HWT Etta-West.ufo
<glyph name="numbersign" format="2">
	<advance width="542"/>
	<unicode hex="0023"/>
	<outline>
		<contour>
			<point x="293" y="0" type="line"/>
			<point x="344" y="0" type="line"/>
			<point x="452" y="700" type="line"/>
			<point x="401" y="700" type="line"/>
		</contour>
		<contour>
			<point x="20" y="237" type="curve" smooth="yes"/>
			<point x="20" y="140" type="line"/>
			<point x="427" y="140" type="line" smooth="yes"/>
			<point x="466" y="140"/>
			<point x="482" y="162"/>
			<point x="482" y="203" type="curve" smooth="yes"/>
			<point x="482" y="300" type="line"/>
			<point x="75" y="300" type="line" smooth="yes"/>
			<point x="36" y="300"/>
			<point x="20" y="278"/>
		</contour>
		<contour>
			<point x="90" y="0" type="line"/>
			<point x="141" y="0" type="line"/>
			<point x="249" y="700" type="line"/>
			<point x="198" y="700" type="line"/>
		</contour>
		<contour>
			<point x="60" y="497" type="curve" smooth="yes"/>
			<point x="60" y="400" type="line"/>
			<point x="467" y="400" type="line" smooth="yes"/>
			<point x="506" y="400"/>
			<point x="522" y="422"/>
			<point x="522" y="463" type="curve" smooth="yes"/>
			<point x="522" y="560" type="line"/>
			<point x="115" y="560" type="line" smooth="yes"/>
			<point x="76" y="560"/>
			<point x="60" y="538"/>
		</contour>
	</outline>
</glyph>
<glyph name="dollar" format="2">
	<advance width="471"/>
	<unicode hex="0024"/>
	<outline>
		<contour>
			<point x="189" y="70" type="curve" smooth="yes"/>
			<point x="281" y="70" type="line" smooth="yes"/>
			<point x="377" y="70"/>
			<point x="416" y="117"/>
			<point x="416" y="217" type="curve" smooth="yes"/>
			<point x="416" y="315"/>
			<point x="390" y="339"/>
			<point x="293" y="368" type="curve" smooth="yes"/>
			<point x="181" y="401" type="line" smooth="yes"/>
			<point x="159" y="408"/>
			<point x="140" y="416"/>
			<point x="140" y="433" type="curve" smooth="yes"/>
			<point x="140" y="454"/>
			<point x="160" y="471"/>
			<point x="237" y="471" type="curve" smooth="yes"/>
			<point x="316" y="471"/>
			<point x="351" y="447"/>
			<point x="351" y="404" type="curve"/>
			<point x="401" y="404" type="line"/>
			<point x="401" y="504" type="line" smooth="yes"/>
			<point x="401" y="587"/>
			<point x="345" y="630"/>
			<point x="273" y="630" type="curve" smooth="yes"/>
			<point x="199" y="630" type="line" smooth="yes"/>
			<point x="98" y="630"/>
			<point x="56" y="571"/>
			<point x="56" y="498" type="curve" smooth="yes"/>
			<point x="56" y="414"/>
			<point x="73" y="383"/>
			<point x="165" y="355" type="curve" smooth="yes"/>
			<point x="275" y="322" type="line" smooth="yes"/>
			<point x="330" y="305"/>
			<point x="343" y="295"/>
			<point x="343" y="276" type="curve" smooth="yes"/>
			<point x="343" y="255"/>
			<point x="322" y="233"/>
			<point x="232" y="233" type="curve" smooth="yes"/>
			<point x="135" y="233"/>
			<point x="115" y="255"/>
			<point x="115" y="295" type="curve"/>
			<point x="65" y="295" type="line"/>
			<point x="65" y="195" type="line" smooth="yes"/>
			<point x="65" y="122"/>
			<point x="107" y="70"/>
		</contour>
		<contour>
			<point x="214" y="0" type="line"/>
			<point x="264" y="0" type="line"/>
			<point x="264" y="163" type="line"/>
			<point x="214" y="163" type="line"/>
		</contour>
		<contour>
			<point x="208" y="532" type="line"/>
			<point x="258" y="532" type="line"/>
			<point x="258" y="700" type="line"/>
			<point x="208" y="700" type="line"/>
		</contour>
	</outline>
</glyph>
<glyph name="percent" format="2">
	<advance width="601"/>
	<unicode hex="0025"/>
	<outline>
		<contour>
			<point x="30" y="0" type="line"/>
			<point x="103" y="0" type="line"/>
			<point x="571" y="700" type="line"/>
			<point x="498" y="700" type="line"/>
		</contour>
		<contour>
			<point x="128" y="320" type="curve" smooth="yes"/>
			<point x="193" y="320"/>
			<point x="226" y="355"/>
			<point x="226" y="435" type="curve" smooth="yes"/>
			<point x="226" y="595" type="line" smooth="yes"/>
			<point x="226" y="675"/>
			<point x="193" y="710"/>
			<point x="128" y="710" type="curve" smooth="yes"/>
			<point x="64" y="710"/>
			<point x="30" y="675"/>
			<point x="30" y="595" type="curve" smooth="yes"/>
			<point x="30" y="435" type="line" smooth="yes"/>
			<point x="30" y="355"/>
			<point x="64" y="320"/>
		</contour>
		<contour>
			<point x="128" y="428" type="curve" smooth="yes"/>
			<point x="86" y="428"/>
			<point x="65" y="454"/>
			<point x="65" y="499" type="curve" smooth="yes"/>
			<point x="65" y="531" type="line" smooth="yes"/>
			<point x="65" y="576"/>
			<point x="86" y="602"/>
			<point x="128" y="602" type="curve" smooth="yes"/>
			<point x="170" y="602"/>
			<point x="191" y="576"/>
			<point x="191" y="531" type="curve" smooth="yes"/>
			<point x="191" y="499" type="line" smooth="yes"/>
			<point x="191" y="454"/>
			<point x="170" y="428"/>
		</contour>
		<contour>
			<point x="473" y="-10" type="curve" smooth="yes"/>
			<point x="538" y="-10"/>
			<point x="571" y="25"/>
			<point x="571" y="105" type="curve" smooth="yes"/>
			<point x="571" y="265" type="line" smooth="yes"/>
			<point x="571" y="345"/>
			<point x="538" y="380"/>
			<point x="473" y="380" type="curve" smooth="yes"/>
			<point x="409" y="380"/>
			<point x="375" y="345"/>
			<point x="375" y="265" type="curve" smooth="yes"/>
			<point x="375" y="105" type="line" smooth="yes"/>
			<point x="375" y="25"/>
			<point x="409" y="-10"/>
		</contour>
		<contour>
			<point x="473" y="98" type="curve" smooth="yes"/>
			<point x="431" y="98"/>
			<point x="410" y="124"/>
			<point x="410" y="169" type="curve" smooth="yes"/>
			<point x="410" y="201" type="line" smooth="yes"/>
			<point x="410" y="246"/>
			<point x="431" y="272"/>
			<point x="473" y="272" type="curve" smooth="yes"/>
			<point x="515" y="272"/>
			<point x="536" y="246"/>
			<point x="536" y="201" type="curve" smooth="yes"/>
			<point x="536" y="169" type="line" smooth="yes"/>
			<point x="536" y="124"/>
			<point x="515" y="98"/>
		</contour>
	</outline>
</glyph>
<glyph name="ampersand" format="2">
	<advance width="518"/>
	<unicode hex="0026"/>
	<outline>
		<contour>
			<point x="243" y="0" type="curve" smooth="yes"/>
			<point x="335" y="0" type="line" smooth="yes"/>
			<point x="391" y="0"/>
			<point x="443" y="16"/>
			<point x="443" y="77" type="curve" smooth="yes"/>
			<point x="443" y="443" type="line"/>
			<point x="393" y="443" type="line"/>
			<point x="393" y="255" type="line" smooth="yes"/>
			<point x="393" y="222"/>
			<point x="371" y="200"/>
			<point x="336" y="200" type="curve" smooth="yes"/>
			<point x="244" y="200" type="line" smooth="yes"/>
			<point x="205" y="200"/>
			<point x="186" y="227"/>
			<point x="186" y="267" type="curve" smooth="yes"/>
			<point x="186" y="277" type="line" smooth="yes"/>
			<point x="186" y="318"/>
			<point x="211" y="335"/>
			<point x="299" y="335" type="curve" smooth="yes"/>
			<point x="508" y="335" type="line"/>
			<point x="508" y="385" type="line"/>
			<point x="299" y="385" type="line" smooth="yes"/>
			<point x="232" y="385"/>
			<point x="201" y="399"/>
			<point x="201" y="450" type="curve" smooth="yes"/>
			<point x="201" y="490"/>
			<point x="222" y="505"/>
			<point x="271" y="505" type="curve" smooth="yes"/>
			<point x="418" y="505" type="line"/>
			<point x="418" y="609" type="line"/>
			<point x="418" y="664"/>
			<point x="387" y="700"/>
			<point x="318" y="700" type="curve" smooth="yes"/>
			<point x="250" y="700" type="line" smooth="yes"/>
			<point x="161" y="700"/>
			<point x="150" y="671"/>
			<point x="150" y="556" type="curve" smooth="yes"/>
			<point x="150" y="450" type="line" smooth="yes"/>
			<point x="150" y="400"/>
			<point x="180" y="366"/>
			<point x="230" y="366" type="curve" smooth="yes"/>
			<point x="234" y="366"/>
			<point x="234" y="361"/>
			<point x="230" y="361" type="curve" smooth="yes"/>
			<point x="171" y="361"/>
			<point x="135" y="331"/>
			<point x="135" y="267" type="curve" smooth="yes"/>
			<point x="135" y="77" type="line" smooth="yes"/>
			<point x="135" y="16"/>
			<point x="187" y="0"/>
		</contour>
		<contour>
			<point x="68" y="71" type="curve"/>
			<point x="66" y="91"/>
			<point x="65" y="111"/>
			<point x="65" y="138" type="curve" smooth="yes"/>
			<point x="65" y="220" type="line" smooth="yes"/>
			<point x="65" y="257"/>
			<point x="68" y="277"/>
			<point x="73" y="297" type="curve"/>
			<point x="37" y="283"/>
			<point x="20" y="256"/>
			<point x="20" y="185" type="curve" smooth="yes"/>
			<point x="20" y="111"/>
			<point x="41" y="83"/>
		</contour>
		<contour>
			<point x="131" y="26" type="curve"/>
			<point x="120" y="49"/>
			<point x="120" y="70"/>
			<point x="120" y="97" type="curve" smooth="yes"/>
			<point x="120" y="258" type="line" smooth="yes"/>
			<point x="120" y="293"/>
			<point x="120" y="315"/>
			<point x="131" y="338" type="curve"/>
			<point x="99" y="330"/>
			<point x="80" y="306"/>
			<point x="80" y="228" type="curve" smooth="yes"/>
			<point x="80" y="116" type="line" smooth="yes"/>
			<point x="80" y="58"/>
			<point x="99" y="34"/>
		</contour>
		<contour>
			<point x="87" y="419" type="curve"/>
			<point x="83" y="431"/>
			<point x="80" y="443"/>
			<point x="80" y="478" type="curve" smooth="yes"/>
			<point x="80" y="547" type="line" smooth="yes"/>
			<point x="80" y="582"/>
			<point x="83" y="609"/>
			<point x="88" y="627" type="curve"/>
			<point x="63" y="614"/>
			<point x="45" y="580"/>
			<point x="45" y="521" type="curve" smooth="yes"/>
			<point x="45" y="462"/>
			<point x="61" y="431"/>
		</contour>
		<contour>
			<point x="152" y="380" type="curve"/>
			<point x="140" y="403"/>
			<point x="135" y="424"/>
			<point x="135" y="451" type="curve" smooth="yes"/>
			<point x="135" y="563" type="line" smooth="yes"/>
			<point x="135" y="608"/>
			<point x="135" y="642"/>
			<point x="146" y="675" type="curve"/>
			<point x="114" y="670"/>
			<point x="95" y="643"/>
			<point x="95" y="555" type="curve" smooth="yes"/>
			<point x="95" y="470" type="line" smooth="yes"/>
			<point x="95" y="412"/>
			<point x="120" y="385"/>
		</contour>
	</outline>
</glyph>
<glyph name="parenleft" format="2">
	<advance width="230"/>
	<unicode hex="0028"/>
	<outline>
		<contour>
			<point x="220" y="0" type="curve"/>
			<point x="220" y="160" type="line"/>
			<point x="105" y="160"/>
			<point x="70" y="200"/>
			<point x="70" y="350" type="curve" smooth="yes"/>
			<point x="70" y="500"/>
			<point x="105" y="540"/>
			<point x="220" y="540" type="curve"/>
			<point x="220" y="700" type="line"/>
			<point x="88" y="700"/>
			<point x="20" y="608"/>
			<point x="20" y="350" type="curve" smooth="yes"/>
			<point x="20" y="92"/>
			<point x="88" y="0"/>
		</contour>
	</outline>
</glyph>
<glyph name="asterisk" format="2">
	<advance width="418"/>
	<unicode hex="002A"/>
	<outline>
		<contour>
			<point x="137" y="345" type="curve" smooth="yes"/>
			<point x="152" y="345"/>
			<point x="163" y="353"/>
			<point x="175" y="369" type="curve" smooth="yes"/>
			<point x="190" y="390"/>
			<point x="187" y="406"/>
			<point x="187" y="423" type="curve" smooth="yes"/>
			<point x="187" y="439"/>
			<point x="194" y="453"/>
			<point x="207" y="480" type="curve" smooth="yes"/>
			<point x="209" y="484" type="line"/>
			<point x="212" y="480" type="line" smooth="yes"/>
			<point x="236" y="448"/>
			<point x="230" y="428"/>
			<point x="230" y="408" type="curve" smooth="yes"/>
			<point x="230" y="396"/>
			<point x="232" y="384"/>
			<point x="243" y="369" type="curve" smooth="yes"/>
			<point x="255" y="353"/>
			<point x="266" y="345"/>
			<point x="281" y="345" type="curve" smooth="yes"/>
			<point x="292" y="345"/>
			<point x="306" y="350"/>
			<point x="322" y="362" type="curve" smooth="yes"/>
			<point x="343" y="378"/>
			<point x="353" y="392"/>
			<point x="353" y="407" type="curve" smooth="yes"/>
			<point x="353" y="418"/>
			<point x="349" y="428"/>
			<point x="340" y="440" type="curve" smooth="yes"/>
			<point x="311" y="479"/>
			<point x="283" y="452"/>
			<point x="244" y="504" type="curve" smooth="yes"/>
			<point x="241" y="508" type="line"/>
			<point x="246" y="509" type="line" smooth="yes"/>
			<point x="259" y="512"/>
			<point x="269" y="515"/>
			<point x="278" y="515" type="curve" smooth="yes"/>
			<point x="305" y="515"/>
			<point x="319" y="501"/>
			<point x="341" y="501" type="curve" smooth="yes"/>
			<point x="347" y="501"/>
			<point x="353" y="501"/>
			<point x="361" y="504" type="curve" smooth="yes"/>
			<point x="385" y="512"/>
			<point x="398" y="524"/>
			<point x="398" y="546" type="curve" smooth="yes"/>
			<point x="398" y="555"/>
			<point x="396" y="565"/>
			<point x="392" y="577" type="curve" smooth="yes"/>
			<point x="382" y="609"/>
			<point x="368" y="622"/>
			<point x="347" y="622" type="curve" smooth="yes"/>
			<point x="340" y="622"/>
			<point x="333" y="621"/>
			<point x="324" y="618" type="curve" smooth="yes"/>
			<point x="278" y="603"/>
			<point x="295" y="563"/>
			<point x="233" y="547" type="curve" smooth="yes"/>
			<point x="229" y="546" type="line"/>
			<point x="229" y="550" type="line" smooth="yes"/>
			<point x="229" y="614"/>
			<point x="269" y="610"/>
			<point x="269" y="658" type="curve" smooth="yes"/>
			<point x="269" y="694"/>
			<point x="254" y="710"/>
			<point x="209" y="710" type="curve" smooth="yes"/>
			<point x="164" y="710"/>
			<point x="149" y="694"/>
			<point x="149" y="658" type="curve" smooth="yes"/>
			<point x="149" y="610"/>
			<point x="189" y="614"/>
			<point x="189" y="550" type="curve" smooth="yes"/>
			<point x="189" y="545" type="line"/>
			<point x="184" y="547" type="line" smooth="yes"/>
			<point x="126" y="570"/>
			<point x="140" y="604"/>
			<point x="94" y="618" type="curve" smooth="yes"/>
			<point x="85" y="621"/>
			<point x="78" y="622"/>
			<point x="71" y="622" type="curve" smooth="yes"/>
			<point x="50" y="622"/>
			<point x="36" y="609"/>
			<point x="26" y="577" type="curve" smooth="yes"/>
			<point x="22" y="565"/>
			<point x="20" y="555"/>
			<point x="20" y="546" type="curve" smooth="yes"/>
			<point x="20" y="524"/>
			<point x="33" y="512"/>
			<point x="57" y="504" type="curve" smooth="yes"/>
			<point x="64" y="502"/>
			<point x="71" y="501"/>
			<point x="77" y="501" type="curve" smooth="yes"/>
			<point x="99" y="501"/>
			<point x="113" y="514"/>
			<point x="139" y="514" type="curve" smooth="yes"/>
			<point x="148" y="514"/>
			<point x="159" y="511"/>
			<point x="172" y="508" type="curve" smooth="yes"/>
			<point x="177" y="507" type="line"/>
			<point x="174" y="503" type="line" smooth="yes"/>
			<point x="136" y="453"/>
			<point x="106" y="479"/>
			<point x="78" y="440" type="curve" smooth="yes"/>
			<point x="69" y="428"/>
			<point x="65" y="418"/>
			<point x="65" y="407" type="curve" smooth="yes"/>
			<point x="65" y="392"/>
			<point x="75" y="378"/>
			<point x="96" y="362" type="curve" smooth="yes"/>
			<point x="112" y="350"/>
			<point x="126" y="345"/>
		</contour>
	</outline>
</glyph>
<glyph name="comma" format="2">
	<advance width="230"/>
	<unicode hex="002C"/>
	<outline>
		<contour>
			<point x="30" y="-125" type="line"/>
			<point x="64" y="-125" type="line" smooth="yes"/>
			<point x="148" y="-125"/>
			<point x="190" y="-92"/>
			<point x="190" y="-15" type="curve"/>
			<point x="190" y="75" type="line"/>
			<point x="130" y="75" type="line"/>
			<point x="130" y="-15" type="line"/>
			<point x="130" y="-57"/>
			<point x="117" y="-75"/>
			<point x="64" y="-75" type="curve" smooth="yes"/>
			<point x="30" y="-75" type="line"/>
		</contour>
		<contour>
			<point x="100" y="0" type="curve" smooth="yes"/>
			<point x="130" y="0" type="line" smooth="yes"/>
			<point x="172" y="0"/>
			<point x="190" y="18"/>
			<point x="190" y="60" type="curve" smooth="yes"/>
			<point x="190" y="90" type="line" smooth="yes"/>
			<point x="190" y="132"/>
			<point x="172" y="150"/>
			<point x="130" y="150" type="curve" smooth="yes"/>
			<point x="100" y="150" type="line" smooth="yes"/>
			<point x="58" y="150"/>
			<point x="40" y="132"/>
			<point x="40" y="90" type="curve" smooth="yes"/>
			<point x="40" y="60" type="line" smooth="yes"/>
			<point x="40" y="18"/>
			<point x="58" y="0"/>
		</contour>
	</outline>
</glyph>
<glyph name="hyphen" format="2">
	<advance width="280"/>
	<unicode hex="002D"/>
	<outline>
		<contour>
			<point x="40" y="320" type="line"/>
			<point x="240" y="320" type="line"/>
			<point x="240" y="380" type="line"/>
			<point x="40" y="380" type="line"/>
		</contour>
	</outline>
</glyph>
<glyph name="slash" format="2">
	<advance width="301"/>
	<unicode hex="002F"/>
	<outline>
		<contour>
			<point x="0" y="0" type="line"/>
			<point x="53" y="0" type="line"/>
			<point x="301" y="700" type="line"/>
			<point x="248" y="700" type="line"/>
		</contour>
	</outline>
</glyph>
<glyph name="zero" format="2">
	<advance width="664"/>
	<unicode hex="0030"/>
	<outline>
		<contour>
			<point x="332" y="-10" type="curve" smooth="yes"/>
			<point x="441" y="-10"/>
			<point x="513" y="34"/>
			<point x="513" y="183" type="curve" smooth="yes"/>
			<point x="513" y="517" type="line" smooth="yes"/>
			<point x="513" y="666"/>
			<point x="441" y="710"/>
			<point x="332" y="710" type="curve" smooth="yes"/>
			<point x="223" y="710"/>
			<point x="151" y="666"/>
			<point x="151" y="517" type="curve" smooth="yes"/>
			<point x="151" y="183" type="line" smooth="yes"/>
			<point x="151" y="34"/>
			<point x="223" y="-10"/>
		</contour>
		<contour>
			<point x="89" y="107" type="curve"/>
			<point x="84" y="125"/>
			<point x="81" y="154"/>
			<point x="81" y="190" type="curve" smooth="yes"/>
			<point x="81" y="510" type="line" smooth="yes"/>
			<point x="81" y="546"/>
			<point x="84" y="575"/>
			<point x="89" y="593" type="curve"/>
			<point x="45" y="565"/>
			<point x="25" y="503"/>
			<point x="25" y="388" type="curve" smooth="yes"/>
			<point x="25" y="312" type="line" smooth="yes"/>
			<point x="25" y="197"/>
			<point x="45" y="135"/>
		</contour>
		<contour>
			<point x="153" y="70" type="curve"/>
			<point x="142" y="95"/>
			<point x="136" y="126"/>
			<point x="136" y="172" type="curve" smooth="yes"/>
			<point x="136" y="528" type="line" smooth="yes"/>
			<point x="136" y="574"/>
			<point x="142" y="605"/>
			<point x="153" y="630" type="curve"/>
			<point x="116" y="625"/>
			<point x="96" y="593"/>
			<point x="96" y="520" type="curve" smooth="yes"/>
			<point x="96" y="180" type="line" smooth="yes"/>
			<point x="96" y="107"/>
			<point x="116" y="75"/>
		</contour>
		<contour>
			<point x="337" y="190" type="curve" smooth="yes"/>
			<point x="327" y="190" type="line"/>
			<point x="265" y="190"/>
			<point x="206" y="227"/>
			<point x="206" y="300" type="curve" smooth="yes"/>
			<point x="206" y="400" type="line" smooth="yes"/>
			<point x="206" y="473"/>
			<point x="265" y="510"/>
			<point x="327" y="510" type="curve" smooth="yes"/>
			<point x="337" y="510" type="line" smooth="yes"/>
			<point x="399" y="510"/>
			<point x="458" y="473"/>
			<point x="458" y="400" type="curve" smooth="yes"/>
			<point x="458" y="300" type="line" smooth="yes"/>
			<point x="458" y="227"/>
			<point x="399" y="190"/>
		</contour>
		<contour>
			<point x="511" y="70" type="curve"/>
			<point x="548" y="75"/>
			<point x="568" y="107"/>
			<point x="568" y="180" type="curve" smooth="yes"/>
			<point x="568" y="520" type="line" smooth="yes"/>
			<point x="568" y="593"/>
			<point x="548" y="625"/>
			<point x="511" y="630" type="curve"/>
			<point x="522" y="605"/>
			<point x="528" y="574"/>
			<point x="528" y="528" type="curve" smooth="yes"/>
			<point x="528" y="172" type="line" smooth="yes"/>
			<point x="528" y="126"/>
			<point x="522" y="95"/>
		</contour>
		<contour>
			<point x="575" y="107" type="curve"/>
			<point x="619" y="135"/>
			<point x="639" y="197"/>
			<point x="639" y="312" type="curve" smooth="yes"/>
			<point x="639" y="388" type="line" smooth="yes"/>
			<point x="639" y="503"/>
			<point x="619" y="565"/>
			<point x="575" y="593" type="curve"/>
			<point x="580" y="575"/>
			<point x="583" y="546"/>
			<point x="583" y="510" type="curve" smooth="yes"/>
			<point x="583" y="190" type="line" smooth="yes"/>
			<point x="583" y="154"/>
			<point x="580" y="125"/>
		</contour>
	</outline>
</glyph>
<glyph name="one" format="2">
	<advance width="427"/>
	<unicode hex="0031"/>
	<outline>
		<contour>
			<point x="20" y="0" type="line"/>
			<point x="92" y="0" type="line" smooth="yes"/>
			<point x="163" y="0"/>
			<point x="195" y="42"/>
			<point x="195" y="138" type="curve" smooth="yes"/>
			<point x="195" y="582" type="line" smooth="yes"/>
			<point x="195" y="669"/>
			<point x="157" y="700"/>
			<point x="112" y="700" type="curve" smooth="yes"/>
			<point x="50" y="700" type="line"/>
			<point x="20" y="500" type="line"/>
			<point x="89" y="500" type="line" smooth="yes"/>
			<point x="125" y="500"/>
			<point x="145" y="475"/>
			<point x="145" y="425" type="curve" smooth="yes"/>
			<point x="145" y="273" type="line" smooth="yes"/>
			<point x="145" y="222"/>
			<point x="131" y="200"/>
			<point x="99" y="200" type="curve" smooth="yes"/>
			<point x="20" y="200" type="line"/>
		</contour>
		<contour>
			<point x="192" y="30" type="curve"/>
			<point x="268" y="30" type="line"/>
			<point x="255" y="51"/>
			<point x="250" y="78"/>
			<point x="250" y="119" type="curve" smooth="yes"/>
			<point x="250" y="670" type="line"/>
			<point x="192" y="670" type="line"/>
			<point x="205" y="649"/>
			<point x="210" y="622"/>
			<point x="210" y="581" type="curve" smooth="yes"/>
			<point x="210" y="119" type="line" smooth="yes"/>
			<point x="210" y="78"/>
			<point x="205" y="51"/>
		</contour>
		<contour>
			<point x="368" y="0" type="curve" smooth="yes"/>
			<point x="417" y="0" type="line"/>
			<point x="417" y="200" type="line"/>
			<point x="361" y="200" type="line" smooth="yes"/>
			<point x="329" y="200"/>
			<point x="315" y="222"/>
			<point x="315" y="273" type="curve" smooth="yes"/>
			<point x="315" y="700" type="line"/>
			<point x="289" y="700"/>
			<point x="265" y="681"/>
			<point x="265" y="649" type="curve" smooth="yes"/>
			<point x="265" y="138" type="line" smooth="yes"/>
			<point x="265" y="42"/>
			<point x="297" y="0"/>
		</contour>
	</outline>
</glyph>
<glyph name="two" format="2">
	<advance width="505"/>
	<unicode hex="0032"/>
	<outline>
		<contour>
			<point x="157" y="0" type="curve"/>
			<point x="138" y="21"/>
			<point x="126" y="41"/>
			<point x="126" y="86" type="curve" smooth="yes"/>
			<point x="126" y="149" type="line" smooth="yes"/>
			<point x="126" y="251"/>
			<point x="147" y="269"/>
			<point x="194" y="300" type="curve" smooth="yes"/>
			<point x="362" y="412" type="line" smooth="yes"/>
			<point x="420" y="451"/>
			<point x="434" y="480"/>
			<point x="434" y="578" type="curve" smooth="yes"/>
			<point x="434" y="666"/>
			<point x="406" y="693"/>
			<point x="356" y="693" type="curve"/>
			<point x="377" y="677"/>
			<point x="394" y="653"/>
			<point x="394" y="579" type="curve" smooth="yes"/>
			<point x="394" y="515"/>
			<point x="381" y="478"/>
			<point x="342" y="451" type="curve" smooth="yes"/>
			<point x="138" y="312" type="line" smooth="yes"/>
			<point x="92" y="281"/>
			<point x="86" y="234"/>
			<point x="86" y="169" type="curve" smooth="yes"/>
			<point x="86" y="111" type="line" smooth="yes"/>
			<point x="86" y="38"/>
			<point x="116" y="0"/>
		</contour>
		<contour>
			<point x="103" y="0" type="curve"/>
			<point x="89" y="19"/>
			<point x="71" y="48"/>
			<point x="71" y="101" type="curve" smooth="yes"/>
			<point x="71" y="175" type="line" smooth="yes"/>
			<point x="71" y="219"/>
			<point x="71" y="263"/>
			<point x="116" y="316" type="curve"/>
			<point x="39" y="286"/>
			<point x="25" y="216"/>
			<point x="25" y="156" type="curve" smooth="yes"/>
			<point x="25" y="100" type="line" smooth="yes"/>
			<point x="25" y="36"/>
			<point x="71" y="0"/>
		</contour>
		<contour>
			<point x="234" y="0" type="curve" smooth="yes"/>
			<point x="369" y="0" type="line" smooth="yes"/>
			<point x="438" y="0"/>
			<point x="469" y="36"/>
			<point x="469" y="101" type="curve" smooth="yes"/>
			<point x="469" y="287" type="line"/>
			<point x="419" y="287" type="line"/>
			<point x="419" y="260" type="line" smooth="yes"/>
			<point x="419" y="210"/>
			<point x="398" y="195"/>
			<point x="349" y="195" type="curve" smooth="yes"/>
			<point x="239" y="195" type="line" smooth="yes"/>
			<point x="202" y="195"/>
			<point x="161" y="199"/>
			<point x="152" y="234" type="curve"/>
			<point x="144" y="216"/>
			<point x="141" y="189"/>
			<point x="141" y="151" type="curve" smooth="yes"/>
			<point x="141" y="86" type="line" smooth="yes"/>
			<point x="141" y="35"/>
			<point x="174" y="0"/>
		</contour>
		<contour>
			<point x="33" y="529" type="curve" smooth="yes"/>
			<point x="33" y="429" type="line"/>
			<point x="83" y="429" type="line"/>
			<point x="83" y="488"/>
			<point x="132" y="510"/>
			<point x="199" y="510" type="curve" smooth="yes"/>
			<point x="247" y="510" type="line" smooth="yes"/>
			<point x="286" y="510"/>
			<point x="330" y="508"/>
			<point x="333" y="464" type="curve"/>
			<point x="361" y="486"/>
			<point x="379" y="522"/>
			<point x="379" y="579" type="curve" smooth="yes"/>
			<point x="379" y="664"/>
			<point x="340" y="710"/>
			<point x="259" y="710" type="curve" smooth="yes"/>
			<point x="243" y="710" type="line" smooth="yes"/>
			<point x="124" y="710"/>
			<point x="33" y="654"/>
		</contour>
		<contour>
			<point x="382" y="407" type="curve"/>
			<point x="456" y="426"/>
			<point x="495" y="455"/>
			<point x="495" y="547" type="curve" smooth="yes"/>
			<point x="495" y="613"/>
			<point x="477" y="658"/>
			<point x="436" y="662" type="curve"/>
			<point x="447" y="644"/>
			<point x="449" y="607"/>
			<point x="449" y="576" type="curve" smooth="yes"/>
			<point x="449" y="480"/>
			<point x="444" y="458"/>
		</contour>
	</outline>
</glyph>
<glyph name="three" format="2">
	<advance width="535"/>
	<unicode hex="0033"/>
	<outline>
		<contour>
			<point x="180" y="0" type="curve" smooth="yes"/>
			<point x="267" y="0" type="line" smooth="yes"/>
			<point x="362" y="0"/>
			<point x="395" y="41"/>
			<point x="395" y="107" type="curve" smooth="yes"/>
			<point x="395" y="256" type="line" smooth="yes"/>
			<point x="395" y="333"/>
			<point x="361" y="359"/>
			<point x="300" y="359" type="curve" smooth="yes"/>
			<point x="294" y="359"/>
			<point x="294" y="366"/>
			<point x="300" y="366" type="curve" smooth="yes"/>
			<point x="354" y="366"/>
			<point x="380" y="396"/>
			<point x="380" y="457" type="curve" smooth="yes"/>
			<point x="380" y="606" type="line" smooth="yes"/>
			<point x="380" y="666"/>
			<point x="350" y="700"/>
			<point x="250" y="700" type="curve" smooth="yes"/>
			<point x="188" y="700" type="line" smooth="yes"/>
			<point x="89" y="700"/>
			<point x="38" y="654"/>
			<point x="38" y="569" type="curve" smooth="yes"/>
			<point x="38" y="429" type="line"/>
			<point x="88" y="429" type="line"/>
			<point x="88" y="440" type="line" smooth="yes"/>
			<point x="88" y="486"/>
			<point x="108" y="505"/>
			<point x="188" y="505" type="curve" smooth="yes"/>
			<point x="230" y="505" type="line" smooth="yes"/>
			<point x="309" y="505"/>
			<point x="330" y="488"/>
			<point x="330" y="448" type="curve" smooth="yes"/>
			<point x="330" y="406"/>
			<point x="310" y="385"/>
			<point x="241" y="385" type="curve" smooth="yes"/>
			<point x="123" y="385" type="line"/>
			<point x="123" y="335" type="line"/>
			<point x="241" y="335" type="line" smooth="yes"/>
			<point x="320" y="335"/>
			<point x="345" y="314"/>
			<point x="345" y="273" type="curve" smooth="yes"/>
			<point x="345" y="263" type="line" smooth="yes"/>
			<point x="345" y="223"/>
			<point x="316" y="200"/>
			<point x="249" y="200" type="curve" smooth="yes"/>
			<point x="190" y="200" type="line" smooth="yes"/>
			<point x="109" y="200"/>
			<point x="80" y="220"/>
			<point x="80" y="260" type="curve" smooth="yes"/>
			<point x="80" y="271" type="line"/>
			<point x="30" y="271" type="line"/>
			<point x="30" y="141" type="line" smooth="yes"/>
			<point x="30" y="46"/>
			<point x="81" y="0"/>
		</contour>
		<contour>
			<point x="399" y="38" type="curve"/>
			<point x="431" y="38"/>
			<point x="450" y="60"/>
			<point x="450" y="138" type="curve" smooth="yes"/>
			<point x="450" y="238" type="line" smooth="yes"/>
			<point x="450" y="314"/>
			<point x="433" y="338"/>
			<point x="392" y="338" type="curve"/>
			<point x="404" y="322"/>
			<point x="410" y="298"/>
			<point x="410" y="248" type="curve" smooth="yes"/>
			<point x="410" y="109" type="line" smooth="yes"/>
			<point x="410" y="72"/>
			<point x="407" y="53"/>
		</contour>
		<contour>
			<point x="462" y="83" type="curve"/>
			<point x="489" y="88"/>
			<point x="510" y="126"/>
			<point x="510" y="190" type="curve" smooth="yes"/>
			<point x="510" y="251"/>
			<point x="495" y="301"/>
			<point x="459" y="307" type="curve"/>
			<point x="463" y="290"/>
			<point x="465" y="277"/>
			<point x="465" y="237" type="curve" smooth="yes"/>
			<point x="465" y="150" type="line" smooth="yes"/>
			<point x="465" y="123"/>
			<point x="465" y="103"/>
		</contour>
		<contour>
			<point x="379" y="383" type="curve"/>
			<point x="416" y="391"/>
			<point x="435" y="405"/>
			<point x="435" y="481" type="curve" smooth="yes"/>
			<point x="435" y="571" type="line" smooth="yes"/>
			<point x="435" y="640"/>
			<point x="420" y="663"/>
			<point x="384" y="673" type="curve"/>
			<point x="392" y="657"/>
			<point x="395" y="638"/>
			<point x="395" y="593" type="curve" smooth="yes"/>
			<point x="395" y="464" type="line" smooth="yes"/>
			<point x="395" y="427"/>
			<point x="390" y="401"/>
		</contour>
		<contour>
			<point x="444" y="417" type="curve"/>
			<point x="474" y="426"/>
			<point x="495" y="457"/>
			<point x="495" y="516" type="curve" smooth="yes"/>
			<point x="495" y="573"/>
			<point x="475" y="624"/>
			<point x="444" y="634" type="curve"/>
			<point x="450" y="614"/>
			<point x="450" y="582"/>
			<point x="450" y="555" type="curve" smooth="yes"/>
			<point x="450" y="480" type="line" smooth="yes"/>
			<point x="450" y="447"/>
			<point x="448" y="429"/>
		</contour>
	</outline>
</glyph>
<glyph name="four" format="2">
	<advance width="536"/>
	<unicode hex="0034"/>
	<outline>
		<contour>
			<point x="148" y="82" type="curve"/>
			<point x="124" y="102"/>
			<point x="110" y="122"/>
			<point x="110" y="172" type="curve" smooth="yes"/>
			<point x="110" y="224" type="line" smooth="yes"/>
			<point x="110" y="280"/>
			<point x="135" y="312"/>
			<point x="169" y="351" type="curve" smooth="yes"/>
			<point x="337" y="542" type="line" smooth="yes"/>
			<point x="375" y="585"/>
			<point x="392" y="614"/>
			<point x="392" y="641" type="curve" smooth="yes"/>
			<point x="392" y="676"/>
			<point x="369" y="700"/>
			<point x="291" y="700" type="curve" smooth="yes"/>
			<point x="173" y="700" type="line"/>
			<point x="173" y="660" type="line"/>
			<point x="218" y="648"/>
			<point x="234" y="614"/>
			<point x="234" y="569" type="curve" smooth="yes"/>
			<point x="234" y="521"/>
			<point x="212" y="466"/>
			<point x="170" y="414" type="curve" smooth="yes"/>
			<point x="134" y="370" type="line" smooth="yes"/>
			<point x="86" y="312"/>
			<point x="70" y="289"/>
			<point x="70" y="230" type="curve" smooth="yes"/>
			<point x="70" y="171" type="line" smooth="yes"/>
			<point x="70" y="103"/>
			<point x="104" y="82"/>
		</contour>
		<contour>
			<point x="75" y="92" type="curve"/>
			<point x="61" y="111"/>
			<point x="55" y="133"/>
			<point x="55" y="166" type="curve" smooth="yes"/>
			<point x="55" y="230" type="line" smooth="yes"/>
			<point x="55" y="284"/>
			<point x="69" y="320"/>
			<point x="111" y="363" type="curve"/>
			<point x="44" y="341"/>
			<point x="10" y="287"/>
			<point x="10" y="227" type="curve" smooth="yes"/>
			<point x="10" y="173" type="line" smooth="yes"/>
			<point x="10" y="119"/>
			<point x="43" y="92"/>
		</contour>
		<contour>
			<point x="205" y="82" type="curve" smooth="yes"/>
			<point x="335" y="82" type="line"/>
			<point x="335" y="277" type="line"/>
			<point x="220" y="277" type="line" smooth="yes"/>
			<point x="180" y="277"/>
			<point x="167" y="297"/>
			<point x="166" y="322" type="curve"/>
			<point x="146" y="301"/>
			<point x="125" y="269"/>
			<point x="125" y="223" type="curve" smooth="yes"/>
			<point x="125" y="173" type="line" smooth="yes"/>
			<point x="125" y="118"/>
			<point x="160" y="82"/>
		</contour>
		<contour>
			<point x="350" y="0" type="line"/>
			<point x="390" y="0" type="line"/>
			<point x="390" y="399" type="line"/>
			<point x="350" y="399" type="line"/>
		</contour>
		<contour>
			<point x="405" y="82" type="line"/>
			<point x="416" y="82" type="line" smooth="yes"/>
			<point x="485" y="82"/>
			<point x="516" y="118"/>
			<point x="516" y="173" type="curve" smooth="yes"/>
			<point x="516" y="363" type="line"/>
			<point x="466" y="363" type="line"/>
			<point x="466" y="342" type="line" smooth="yes"/>
			<point x="466" y="292"/>
			<point x="445" y="277"/>
			<point x="416" y="277" type="curve" smooth="yes"/>
			<point x="405" y="277" type="line"/>
		</contour>
		<contour>
			<point x="305" y="479" type="line"/>
			<point x="371" y="512"/>
			<point x="457" y="555"/>
			<point x="457" y="622" type="curve" smooth="yes"/>
			<point x="457" y="666"/>
			<point x="423" y="690"/>
			<point x="390" y="690" type="curve"/>
			<point x="399" y="680"/>
			<point x="407" y="665"/>
			<point x="407" y="640" type="curve" smooth="yes"/>
			<point x="407" y="608"/>
			<point x="390" y="579"/>
			<point x="351" y="535" type="curve" smooth="yes"/>
			<point x="304" y="481" type="line"/>
		</contour>
	</outline>
</glyph>
<glyph name="five" format="2">
	<advance width="541"/>
	<unicode hex="0035"/>
	<outline>
		<contour>
			<point x="180" y="0" type="curve" smooth="yes"/>
			<point x="297" y="0" type="line" smooth="yes"/>
			<point x="363" y="0"/>
			<point x="405" y="33"/>
			<point x="405" y="103" type="curve" smooth="yes"/>
			<point x="405" y="296" type="line" smooth="yes"/>
			<point x="405" y="385"/>
			<point x="355" y="401"/>
			<point x="271" y="401" type="curve" smooth="yes"/>
			<point x="119" y="401" type="line"/>
			<point x="119" y="550" type="line"/>
			<point x="90" y="504" type="line"/>
			<point x="409" y="504" type="line" smooth="yes"/>
			<point x="478" y="504"/>
			<point x="509" y="540"/>
			<point x="509" y="595" type="curve" smooth="yes"/>
			<point x="509" y="752" type="line"/>
			<point x="459" y="752" type="line"/>
			<point x="459" y="715"/>
			<point x="450" y="700"/>
			<point x="402" y="700" type="curve" smooth="yes"/>
			<point x="129" y="698" type="line" smooth="yes"/>
			<point x="90" y="698"/>
			<point x="64" y="662"/>
			<point x="64" y="589" type="curve" smooth="yes"/>
			<point x="64" y="356" type="line"/>
			<point x="271" y="356" type="line" smooth="yes"/>
			<point x="340" y="356"/>
			<point x="355" y="333"/>
			<point x="355" y="292" type="curve" smooth="yes"/>
			<point x="355" y="267" type="line" smooth="yes"/>
			<point x="355" y="227"/>
			<point x="336" y="200"/>
			<point x="287" y="200" type="curve" smooth="yes"/>
			<point x="180" y="200" type="line" smooth="yes"/>
			<point x="104" y="200"/>
			<point x="90" y="220"/>
			<point x="90" y="271" type="curve"/>
			<point x="40" y="271" type="line"/>
			<point x="40" y="121" type="line" smooth="yes"/>
			<point x="40" y="36"/>
			<point x="91" y="0"/>
		</contour>
		<contour>
			<point x="409" y="38" type="curve"/>
			<point x="446" y="43"/>
			<point x="460" y="70"/>
			<point x="460" y="128" type="curve" smooth="yes"/>
			<point x="460" y="268" type="line" smooth="yes"/>
			<point x="460" y="354"/>
			<point x="441" y="384"/>
			<point x="389" y="388" type="curve"/>
			<point x="420" y="355"/>
			<point x="420" y="323"/>
			<point x="420" y="278" type="curve" smooth="yes"/>
			<point x="420" y="103" type="line" smooth="yes"/>
			<point x="420" y="75"/>
			<point x="419" y="58"/>
		</contour>
		<contour>
			<point x="472" y="83" type="curve"/>
			<point x="499" y="95"/>
			<point x="521" y="139"/>
			<point x="521" y="211" type="curve" smooth="yes"/>
			<point x="521" y="281"/>
			<point x="503" y="333"/>
			<point x="467" y="347" type="curve"/>
			<point x="472" y="328"/>
			<point x="475" y="307"/>
			<point x="475" y="270" type="curve" smooth="yes"/>
			<point x="475" y="150" type="line" smooth="yes"/>
			<point x="475" y="123"/>
			<point x="475" y="102"/>
		</contour>
	</outline>
</glyph>
<glyph name="six" format="2">
	<advance width="592"/>
	<unicode hex="0036"/>
	<outline>
		<contour>
			<point x="272" y="0" type="curve" smooth="yes"/>
			<point x="356" y="0" type="line" smooth="yes"/>
			<point x="412" y="0"/>
			<point x="468" y="39"/>
			<point x="468" y="110" type="curve" smooth="yes"/>
			<point x="468" y="266" type="line" smooth="yes"/>
			<point x="468" y="340"/>
			<point x="423" y="376"/>
			<point x="339" y="376" type="curve" smooth="yes"/>
			<point x="190" y="376" type="line"/>
			<point x="190" y="331" type="line"/>
			<point x="331" y="331" type="line" smooth="yes"/>
			<point x="388" y="331"/>
			<point x="413" y="315"/>
			<point x="413" y="274" type="curve" smooth="yes"/>
			<point x="413" y="260" type="line" smooth="yes"/>
			<point x="413" y="224"/>
			<point x="388" y="200"/>
			<point x="336" y="200" type="curve" smooth="yes"/>
			<point x="303" y="200" type="line" smooth="yes"/>
			<point x="241" y="200"/>
			<point x="206" y="221"/>
			<point x="206" y="294" type="curve" smooth="yes"/>
			<point x="206" y="400" type="line" smooth="yes"/>
			<point x="206" y="473"/>
			<point x="251" y="505"/>
			<point x="318" y="505" type="curve" smooth="yes"/>
			<point x="368" y="505" type="line" smooth="yes"/>
			<point x="433" y="505"/>
			<point x="451" y="490"/>
			<point x="455" y="450" type="curve"/>
			<point x="506" y="450" type="line"/>
			<point x="506" y="526" type="line" smooth="yes"/>
			<point x="506" y="641"/>
			<point x="455" y="700"/>
			<point x="356" y="700" type="curve" smooth="yes"/>
			<point x="319" y="700" type="line" smooth="yes"/>
			<point x="232" y="700"/>
			<point x="151" y="666"/>
			<point x="151" y="517" type="curve" smooth="yes"/>
			<point x="151" y="183" type="line" smooth="yes"/>
			<point x="151" y="34"/>
			<point x="222" y="0"/>
		</contour>
		<contour>
			<point x="89" y="107" type="curve"/>
			<point x="84" y="125"/>
			<point x="81" y="154"/>
			<point x="81" y="190" type="curve" smooth="yes"/>
			<point x="81" y="510" type="line" smooth="yes"/>
			<point x="81" y="546"/>
			<point x="84" y="575"/>
			<point x="89" y="593" type="curve"/>
			<point x="45" y="565"/>
			<point x="25" y="503"/>
			<point x="25" y="388" type="curve" smooth="yes"/>
			<point x="25" y="312" type="line" smooth="yes"/>
			<point x="25" y="197"/>
			<point x="45" y="135"/>
		</contour>
		<contour>
			<point x="153" y="70" type="curve"/>
			<point x="142" y="95"/>
			<point x="136" y="126"/>
			<point x="136" y="172" type="curve" smooth="yes"/>
			<point x="136" y="528" type="line" smooth="yes"/>
			<point x="136" y="574"/>
			<point x="142" y="605"/>
			<point x="153" y="630" type="curve"/>
			<point x="116" y="625"/>
			<point x="96" y="593"/>
			<point x="96" y="520" type="curve" smooth="yes"/>
			<point x="96" y="180" type="line" smooth="yes"/>
			<point x="96" y="107"/>
			<point x="116" y="75"/>
		</contour>
		<contour>
			<point x="469" y="40" type="curve"/>
			<point x="501" y="48"/>
			<point x="522" y="70"/>
			<point x="522" y="128" type="curve" smooth="yes"/>
			<point x="522" y="245" type="line" smooth="yes"/>
			<point x="522" y="326"/>
			<point x="500" y="350"/>
			<point x="454" y="358" type="curve"/>
			<point x="477" y="335"/>
			<point x="482" y="303"/>
			<point x="482" y="258" type="curve" smooth="yes"/>
			<point x="482" y="109" type="line" smooth="yes"/>
			<point x="482" y="82"/>
			<point x="480" y="62"/>
		</contour>
		<contour>
			<point x="534" y="83" type="curve"/>
			<point x="561" y="95"/>
			<point x="582" y="144"/>
			<point x="582" y="208" type="curve" smooth="yes"/>
			<point x="582" y="269"/>
			<point x="565" y="313"/>
			<point x="522" y="333" type="curve"/>
			<point x="535" y="310"/>
			<point x="537" y="287"/>
			<point x="537" y="240" type="curve" smooth="yes"/>
			<point x="537" y="150" type="line" smooth="yes"/>
			<point x="537" y="123"/>
			<point x="537" y="103"/>
		</contour>
		<contour>
			<point x="522" y="526" type="curve" smooth="yes"/>
			<point x="522" y="450" type="line"/>
			<point x="562" y="450" type="line"/>
			<point x="562" y="530" type="line" smooth="yes"/>
			<point x="562" y="603"/>
			<point x="538" y="635"/>
			<point x="499" y="640" type="curve"/>
			<point x="514" y="615"/>
			<point x="522" y="584"/>
		</contour>
	</outline>
</glyph>
<glyph name="seven" format="2">
	<advance width="477"/>
	<unicode hex="0037"/>
	<outline>
		<contour>
			<point x="220" y="0" type="curve" smooth="yes"/>
			<point x="362" y="0" type="line"/>
			<point x="362" y="50" type="line"/>
			<point x="317" y="59"/>
			<point x="279" y="101"/>
			<point x="279" y="191" type="curve" smooth="yes"/>
			<point x="279" y="216" type="line" smooth="yes"/>
			<point x="279" y="289"/>
			<point x="298" y="358"/>
			<point x="359" y="425" type="curve" smooth="yes"/>
			<point x="395" y="464"/>
			<point x="411" y="487"/>
			<point x="411" y="542" type="curve" smooth="yes"/>
			<point x="411" y="611" type="line" smooth="yes"/>
			<point x="411" y="677"/>
			<point x="388" y="700"/>
			<point x="346" y="700" type="curve"/>
			<point x="361" y="686"/>
			<point x="371" y="661"/>
			<point x="371" y="620" type="curve" smooth="yes"/>
			<point x="371" y="555" type="line" smooth="yes"/>
			<point x="371" y="500"/>
			<point x="355" y="482"/>
			<point x="325" y="448" type="curve" smooth="yes"/>
			<point x="249" y="364" type="line" smooth="yes"/>
			<point x="161" y="266"/>
			<point x="126" y="227"/>
			<point x="126" y="138" type="curve" smooth="yes"/>
			<point x="126" y="119" type="line" smooth="yes"/>
			<point x="126" y="38"/>
			<point x="168" y="0"/>
		</contour>
		<contour>
			<point x="152" y="0" type="curve"/>
			<point x="137" y="14"/>
			<point x="111" y="46"/>
			<point x="111" y="118" type="curve" smooth="yes"/>
			<point x="111" y="140" type="line" smooth="yes"/>
			<point x="111" y="212"/>
			<point x="137" y="259"/>
			<point x="170" y="301" type="curve"/>
			<point x="169" y="302" type="line"/>
			<point x="107" y="275"/>
			<point x="65" y="209"/>
			<point x="65" y="131" type="curve" smooth="yes"/>
			<point x="65" y="111" type="line" smooth="yes"/>
			<point x="65" y="41"/>
			<point x="101" y="0"/>
		</contour>
		<contour>
			<point x="10" y="609" type="curve" smooth="yes"/>
			<point x="10" y="419" type="line"/>
			<point x="60" y="419" type="line"/>
			<point x="60" y="440" type="line" smooth="yes"/>
			<point x="60" y="490"/>
			<point x="81" y="501"/>
			<point x="130" y="501" type="curve" smooth="yes"/>
			<point x="259" y="501" type="line" smooth="yes"/>
			<point x="299" y="501"/>
			<point x="306" y="482"/>
			<point x="310" y="460" type="curve"/>
			<point x="338" y="481"/>
			<point x="356" y="506"/>
			<point x="356" y="555" type="curve" smooth="yes"/>
			<point x="356" y="620" type="line" smooth="yes"/>
			<point x="356" y="669"/>
			<point x="333" y="700"/>
			<point x="297" y="700" type="curve" smooth="yes"/>
			<point x="110" y="700" type="line" smooth="yes"/>
			<point x="41" y="700"/>
			<point x="10" y="664"/>
		</contour>
		<contour>
			<point x="372" y="411" type="curve"/>
			<point x="373" y="410" type="line"/>
			<point x="438" y="429"/>
			<point x="472" y="465"/>
			<point x="472" y="533" type="curve" smooth="yes"/>
			<point x="472" y="599" type="line" smooth="yes"/>
			<point x="472" y="649"/>
			<point x="448" y="675"/>
			<point x="417" y="675" type="curve"/>
			<point x="422" y="661"/>
			<point x="426" y="639"/>
			<point x="426" y="606" type="curve" smooth="yes"/>
			<point x="426" y="532" type="line" smooth="yes"/>
			<point x="426" y="471"/>
			<point x="406" y="446"/>
		</contour>
	</outline>
</glyph>
<glyph name="eight" format="2">
	<advance width="598"/>
	<unicode hex="0038"/>
	<outline>
		<contour>
			<point x="243" y="0" type="curve" smooth="yes"/>
			<point x="355" y="0" type="line" smooth="yes"/>
			<point x="411" y="0"/>
			<point x="463" y="16"/>
			<point x="463" y="77" type="curve" smooth="yes"/>
			<point x="463" y="267" type="line" smooth="yes"/>
			<point x="463" y="331"/>
			<point x="427" y="361"/>
			<point x="368" y="361" type="curve" smooth="yes"/>
			<point x="364" y="361"/>
			<point x="364" y="366"/>
			<point x="368" y="366" type="curve" smooth="yes"/>
			<point x="418" y="366"/>
			<point x="448" y="400"/>
			<point x="448" y="450" type="curve" smooth="yes"/>
			<point x="448" y="556" type="line" smooth="yes"/>
			<point x="448" y="671"/>
			<point x="437" y="700"/>
			<point x="348" y="700" type="curve" smooth="yes"/>
			<point x="250" y="700" type="line" smooth="yes"/>
			<point x="161" y="700"/>
			<point x="150" y="671"/>
			<point x="150" y="556" type="curve" smooth="yes"/>
			<point x="150" y="450" type="line" smooth="yes"/>
			<point x="150" y="400"/>
			<point x="180" y="366"/>
			<point x="230" y="366" type="curve" smooth="yes"/>
			<point x="234" y="366"/>
			<point x="234" y="361"/>
			<point x="230" y="361" type="curve" smooth="yes"/>
			<point x="171" y="361"/>
			<point x="135" y="331"/>
			<point x="135" y="267" type="curve" smooth="yes"/>
			<point x="135" y="77" type="line" smooth="yes"/>
			<point x="135" y="16"/>
			<point x="187" y="0"/>
		</contour>
		<contour>
			<point x="68" y="71" type="curve"/>
			<point x="66" y="91"/>
			<point x="65" y="111"/>
			<point x="65" y="138" type="curve" smooth="yes"/>
			<point x="65" y="220" type="line" smooth="yes"/>
			<point x="65" y="257"/>
			<point x="68" y="277"/>
			<point x="73" y="297" type="curve"/>
			<point x="37" y="283"/>
			<point x="20" y="256"/>
			<point x="20" y="185" type="curve" smooth="yes"/>
			<point x="20" y="111"/>
			<point x="41" y="83"/>
		</contour>
		<contour>
			<point x="131" y="26" type="curve"/>
			<point x="120" y="47"/>
			<point x="120" y="70"/>
			<point x="120" y="97" type="curve" smooth="yes"/>
			<point x="120" y="258" type="line" smooth="yes"/>
			<point x="120" y="293"/>
			<point x="120" y="315"/>
			<point x="131" y="338" type="curve"/>
			<point x="99" y="330"/>
			<point x="80" y="306"/>
			<point x="80" y="228" type="curve" smooth="yes"/>
			<point x="80" y="116" type="line" smooth="yes"/>
			<point x="80" y="58"/>
			<point x="99" y="34"/>
		</contour>
		<contour>
			<point x="354" y="200" type="curve" smooth="yes"/>
			<point x="244" y="200" type="line"/>
			<point x="205" y="200"/>
			<point x="186" y="227"/>
			<point x="186" y="267" type="curve" smooth="yes"/>
			<point x="186" y="277" type="line" smooth="yes"/>
			<point x="186" y="318"/>
			<point x="211" y="335"/>
			<point x="299" y="335" type="curve" smooth="yes"/>
			<point x="387" y="335"/>
			<point x="412" y="318"/>
			<point x="412" y="277" type="curve" smooth="yes"/>
			<point x="412" y="267" type="line" smooth="yes"/>
			<point x="412" y="227"/>
			<point x="393" y="200"/>
		</contour>
		<contour>
			<point x="87" y="419" type="curve"/>
			<point x="83" y="431"/>
			<point x="80" y="443"/>
			<point x="80" y="478" type="curve" smooth="yes"/>
			<point x="80" y="547" type="line" smooth="yes"/>
			<point x="80" y="582"/>
			<point x="83" y="609"/>
			<point x="88" y="627" type="curve"/>
			<point x="63" y="614"/>
			<point x="45" y="580"/>
			<point x="45" y="521" type="curve" smooth="yes"/>
			<point x="45" y="462"/>
			<point x="61" y="431"/>
		</contour>
		<contour>
			<point x="152" y="380" type="curve"/>
			<point x="140" y="403"/>
			<point x="135" y="424"/>
			<point x="135" y="451" type="curve" smooth="yes"/>
			<point x="135" y="563" type="line" smooth="yes"/>
			<point x="135" y="608"/>
			<point x="135" y="642"/>
			<point x="146" y="675" type="curve"/>
			<point x="114" y="670"/>
			<point x="95" y="643"/>
			<point x="95" y="555" type="curve" smooth="yes"/>
			<point x="95" y="470" type="line" smooth="yes"/>
			<point x="95" y="412"/>
			<point x="120" y="385"/>
		</contour>
		<contour>
			<point x="467" y="26" type="curve"/>
			<point x="499" y="34"/>
			<point x="518" y="58"/>
			<point x="518" y="116" type="curve" smooth="yes"/>
			<point x="518" y="228" type="line" smooth="yes"/>
			<point x="518" y="306"/>
			<point x="499" y="330"/>
			<point x="467" y="338" type="curve"/>
			<point x="478" y="315"/>
			<point x="478" y="293"/>
			<point x="478" y="258" type="curve" smooth="yes"/>
			<point x="478" y="97" type="line" smooth="yes"/>
			<point x="478" y="70"/>
			<point x="478" y="47"/>
		</contour>
		<contour>
			<point x="530" y="71" type="curve"/>
			<point x="557" y="83"/>
			<point x="578" y="111"/>
			<point x="578" y="185" type="curve" smooth="yes"/>
			<point x="578" y="256"/>
			<point x="561" y="283"/>
			<point x="525" y="297" type="curve"/>
			<point x="530" y="277"/>
			<point x="533" y="257"/>
			<point x="533" y="220" type="curve" smooth="yes"/>
			<point x="533" y="138" type="line" smooth="yes"/>
			<point x="533" y="111"/>
			<point x="532" y="91"/>
		</contour>
		<contour>
			<point x="299" y="385" type="curve" smooth="yes"/>
			<point x="232" y="385"/>
			<point x="201" y="399"/>
			<point x="201" y="450" type="curve" smooth="yes"/>
			<point x="201" y="490"/>
			<point x="222" y="505"/>
			<point x="271" y="505" type="curve" smooth="yes"/>
			<point x="327" y="505" type="line" smooth="yes"/>
			<point x="376" y="505"/>
			<point x="397" y="490"/>
			<point x="397" y="450" type="curve" smooth="yes"/>
			<point x="397" y="399"/>
			<point x="366" y="385"/>
		</contour>
		<contour>
			<point x="446" y="380" type="curve"/>
			<point x="478" y="385"/>
			<point x="503" y="412"/>
			<point x="503" y="470" type="curve" smooth="yes"/>
			<point x="503" y="555" type="line" smooth="yes"/>
			<point x="503" y="643"/>
			<point x="484" y="670"/>
			<point x="452" y="675" type="curve"/>
			<point x="463" y="642"/>
			<point x="463" y="608"/>
			<point x="463" y="563" type="curve" smooth="yes"/>
			<point x="463" y="451" type="line" smooth="yes"/>
			<point x="463" y="424"/>
			<point x="458" y="403"/>
		</contour>
		<contour>
			<point x="511" y="419" type="curve"/>
			<point x="537" y="431"/>
			<point x="553" y="462"/>
			<point x="553" y="521" type="curve" smooth="yes"/>
			<point x="553" y="580"/>
			<point x="535" y="614"/>
			<point x="510" y="627" type="curve"/>
			<point x="515" y="609"/>
			<point x="518" y="582"/>
			<point x="518" y="547" type="curve" smooth="yes"/>
			<point x="518" y="478" type="line" smooth="yes"/>
			<point x="518" y="443"/>
			<point x="515" y="431"/>
		</contour>
	</outline>
</glyph>
<glyph name="nine" format="2">
	<advance width="587"/>
	<unicode hex="0039"/>
	<outline>
		<contour>
			<point x="226" y="0" type="curve" smooth="yes"/>
			<point x="268" y="0" type="line" smooth="yes"/>
			<point x="355" y="0"/>
			<point x="436" y="34"/>
			<point x="436" y="183" type="curve" smooth="yes"/>
			<point x="436" y="517" type="line" smooth="yes"/>
			<point x="436" y="666"/>
			<point x="365" y="700"/>
			<point x="315" y="700" type="curve" smooth="yes"/>
			<point x="236" y="700" type="line" smooth="yes"/>
			<point x="180" y="700"/>
			<point x="124" y="661"/>
			<point x="124" y="590" type="curve" smooth="yes"/>
			<point x="124" y="434" type="line" smooth="yes"/>
			<point x="124" y="360"/>
			<point x="169" y="324"/>
			<point x="253" y="324" type="curve" smooth="yes"/>
			<point x="397" y="324" type="line"/>
			<point x="397" y="369" type="line"/>
			<point x="261" y="369" type="line" smooth="yes"/>
			<point x="204" y="369"/>
			<point x="179" y="385"/>
			<point x="179" y="426" type="curve" smooth="yes"/>
			<point x="179" y="440" type="line" smooth="yes"/>
			<point x="179" y="476"/>
			<point x="204" y="500"/>
			<point x="256" y="500" type="curve" smooth="yes"/>
			<point x="284" y="500" type="line" smooth="yes"/>
			<point x="346" y="500"/>
			<point x="381" y="479"/>
			<point x="381" y="406" type="curve" smooth="yes"/>
			<point x="381" y="300" type="line" smooth="yes"/>
			<point x="381" y="227"/>
			<point x="336" y="195"/>
			<point x="269" y="195" type="curve" smooth="yes"/>
			<point x="214" y="195" type="line" smooth="yes"/>
			<point x="157" y="195"/>
			<point x="139" y="210"/>
			<point x="135" y="250" type="curve"/>
			<point x="84" y="250" type="line"/>
			<point x="84" y="174" type="line" smooth="yes"/>
			<point x="84" y="59"/>
			<point x="135" y="0"/>
		</contour>
		<contour>
			<point x="91" y="60" type="curve"/>
			<point x="76" y="85"/>
			<point x="68" y="116"/>
			<point x="68" y="174" type="curve" smooth="yes"/>
			<point x="68" y="250" type="line"/>
			<point x="28" y="250" type="line"/>
			<point x="28" y="170" type="line" smooth="yes"/>
			<point x="28" y="97"/>
			<point x="52" y="65"/>
		</contour>
		<contour>
			<point x="70" y="367" type="curve"/>
			<point x="57" y="390"/>
			<point x="55" y="413"/>
			<point x="55" y="460" type="curve" smooth="yes"/>
			<point x="55" y="550" type="line" smooth="yes"/>
			<point x="55" y="577"/>
			<point x="55" y="597"/>
			<point x="58" y="617" type="curve"/>
			<point x="31" y="605"/>
			<point x="10" y="556"/>
			<point x="10" y="492" type="curve" smooth="yes"/>
			<point x="10" y="431"/>
			<point x="27" y="387"/>
		</contour>
		<contour>
			<point x="138" y="342" type="curve"/>
			<point x="115" y="365"/>
			<point x="110" y="397"/>
			<point x="110" y="442" type="curve" smooth="yes"/>
			<point x="110" y="591" type="line" smooth="yes"/>
			<point x="110" y="618"/>
			<point x="112" y="638"/>
			<point x="123" y="660" type="curve"/>
			<point x="91" y="652"/>
			<point x="70" y="630"/>
			<point x="70" y="572" type="curve" smooth="yes"/>
			<point x="70" y="455" type="line" smooth="yes"/>
			<point x="70" y="374"/>
			<point x="92" y="350"/>
		</contour>
		<contour>
			<point x="434" y="70" type="curve"/>
			<point x="471" y="75"/>
			<point x="491" y="107"/>
			<point x="491" y="180" type="curve" smooth="yes"/>
			<point x="491" y="520" type="line" smooth="yes"/>
			<point x="491" y="593"/>
			<point x="471" y="625"/>
			<point x="434" y="630" type="curve"/>
			<point x="445" y="605"/>
			<point x="451" y="574"/>
			<point x="451" y="528" type="curve" smooth="yes"/>
			<point x="451" y="172" type="line" smooth="yes"/>
			<point x="451" y="126"/>
			<point x="445" y="95"/>
		</contour>
		<contour>
			<point x="498" y="107" type="curve"/>
			<point x="542" y="135"/>
			<point x="562" y="197"/>
			<point x="562" y="312" type="curve" smooth="yes"/>
			<point x="562" y="388" type="line" smooth="yes"/>
			<point x="562" y="503"/>
			<point x="542" y="565"/>
			<point x="498" y="593" type="curve"/>
			<point x="503" y="575"/>
			<point x="506" y="546"/>
			<point x="506" y="510" type="curve" smooth="yes"/>
			<point x="506" y="190" type="line" smooth="yes"/>
			<point x="506" y="154"/>
			<point x="503" y="125"/>
		</contour>
	</outline>
</glyph>
<glyph name="colon" format="2">
	<advance width="230"/>
	<unicode hex="003A"/>
	<outline>
		<contour>
			<point x="100" y="350" type="curve" smooth="yes"/>
			<point x="130" y="350" type="line" smooth="yes"/>
			<point x="172" y="350"/>
			<point x="190" y="368"/>
			<point x="190" y="410" type="curve" smooth="yes"/>
			<point x="190" y="440" type="line" smooth="yes"/>
			<point x="190" y="482"/>
			<point x="172" y="500"/>
			<point x="130" y="500" type="curve" smooth="yes"/>
			<point x="100" y="500" type="line" smooth="yes"/>
			<point x="58" y="500"/>
			<point x="40" y="482"/>
			<point x="40" y="440" type="curve" smooth="yes"/>
			<point x="40" y="410" type="line" smooth="yes"/>
			<point x="40" y="368"/>
			<point x="58" y="350"/>
		</contour>
		<contour>
			<point x="100" y="0" type="curve" smooth="yes"/>
			<point x="130" y="0" type="line" smooth="yes"/>
			<point x="172" y="0"/>
			<point x="190" y="18"/>
			<point x="190" y="60" type="curve" smooth="yes"/>
			<point x="190" y="90" type="line" smooth="yes"/>
			<point x="190" y="132"/>
			<point x="172" y="150"/>
			<point x="130" y="150" type="curve" smooth="yes"/>
			<point x="100" y="150" type="line" smooth="yes"/>
			<point x="58" y="150"/>
			<point x="40" y="132"/>
			<point x="40" y="90" type="curve" smooth="yes"/>
			<point x="40" y="60" type="line" smooth="yes"/>
			<point x="40" y="18"/>
			<point x="58" y="0"/>
		</contour>
	</outline>
</glyph>
<glyph name="less" format="2">
	<advance width="400"/>
	<unicode hex="003C"/>
	<outline>
		<contour>
			<point x="287" y="186" type="line"/>
			<point x="287" y="270" type="line"/>
			<point x="166" y="363" type="line"/>
			<point x="166" y="335" type="line"/>
			<point x="287" y="428" type="line"/>
			<point x="287" y="512" type="line"/>
			<point x="71" y="349" type="line"/>
		</contour>
	</outline>
</glyph>
<glyph name="equal" format="2">
	<advance width="400"/>
	<unicode hex="003D"/>
	<outline>
		<contour>
			<point x="56" y="372" type="line"/>
			<point x="344" y="372" type="line"/>
			<point x="344" y="442" type="line"/>
			<point x="56" y="442" type="line"/>
		</contour>
		<contour>
			<point x="56" y="250" type="line"/>
			<point x="344" y="250" type="line"/>
			<point x="344" y="320" type="line"/>
			<point x="56" y="320" type="line"/>
		</contour>
	</outline>
</glyph>
<glyph name="greater" format="2">
	<advance width="400"/>
	<unicode hex="003E"/>
	<outline>
		<contour>
			<point x="114" y="186" type="line"/>
			<point x="330" y="349" type="line"/>
			<point x="114" y="512" type="line"/>
			<point x="114" y="428" type="line"/>
			<point x="235" y="335" type="line"/>
			<point x="235" y="363" type="line"/>
			<point x="114" y="270" type="line"/>
		</contour>
	</outline>
</glyph>
<glyph name="question" format="2">
	<advance width="415"/>
	<unicode hex="003F"/>
	<outline>
		<contour>
			<point x="154" y="250" type="curve"/>
			<point x="204" y="250" type="line"/>
			<point x="204" y="282"/>
			<point x="212" y="302"/>
			<point x="235" y="325" type="curve" smooth="yes"/>
			<point x="286" y="375" type="line" smooth="yes"/>
			<point x="374" y="461"/>
			<point x="395" y="504"/>
			<point x="395" y="572" type="curve" smooth="yes"/>
			<point x="395" y="661"/>
			<point x="341" y="700"/>
			<point x="236" y="700" type="curve" smooth="yes"/>
			<point x="151" y="700" type="line" smooth="yes"/>
			<point x="81" y="700"/>
			<point x="35" y="653"/>
			<point x="35" y="573" type="curve" smooth="yes"/>
			<point x="35" y="429" type="line"/>
			<point x="85" y="429" type="line"/>
			<point x="85" y="484"/>
			<point x="99" y="505"/>
			<point x="162" y="505" type="curve" smooth="yes"/>
			<point x="202" y="505" type="line" smooth="yes"/>
			<point x="245" y="505"/>
			<point x="268" y="491"/>
			<point x="268" y="463" type="curve" smooth="yes"/>
			<point x="268" y="438"/>
			<point x="258" y="419"/>
			<point x="229" y="390" type="curve" smooth="yes"/>
			<point x="198" y="359" type="line" smooth="yes"/>
			<point x="164" y="325"/>
			<point x="154" y="299"/>
		</contour>
		<contour>
			<point x="164" y="0" type="curve" smooth="yes"/>
			<point x="194" y="0" type="line" smooth="yes"/>
			<point x="236" y="0"/>
			<point x="254" y="18"/>
			<point x="254" y="60" type="curve" smooth="yes"/>
			<point x="254" y="90" type="line" smooth="yes"/>
			<point x="254" y="132"/>
			<point x="236" y="150"/>
			<point x="194" y="150" type="curve" smooth="yes"/>
			<point x="164" y="150" type="line" smooth="yes"/>
			<point x="122" y="150"/>
			<point x="104" y="132"/>
			<point x="104" y="90" type="curve" smooth="yes"/>
			<point x="104" y="60" type="line" smooth="yes"/>
			<point x="104" y="18"/>
			<point x="122" y="0"/>
		</contour>
	</outline>
</glyph>
<glyph name="A" format="2">
	<advance width="705"/>
	<unicode hex="0041"/>
	<anchor x="353" y="0" name="bottom"/>
	<anchor x="695" y="0" name="ogonek"/>
	<anchor x="353" y="700" name="top"/>
	<outline>
		<contour>
			<point x="279" y="0" type="curve" smooth="yes"/>
			<point x="308" y="0" type="line"/>
			<point x="308" y="200" type="line"/>
			<point x="292" y="200" type="line" smooth="yes"/>
			<point x="273" y="200"/>
			<point x="259" y="217"/>
			<point x="259" y="245" type="curve" smooth="yes"/>
			<point x="259" y="254"/>
			<point x="260" y="264"/>
			<point x="263" y="275" type="curve" smooth="yes"/>
			<point x="305" y="422" type="line" smooth="yes"/>
			<point x="323" y="484"/>
			<point x="335" y="500"/>
			<point x="352" y="500" type="curve" smooth="yes"/>
			<point x="353" y="500" type="line" smooth="yes"/>
			<point x="370" y="500"/>
			<point x="382" y="484"/>
			<point x="400" y="422" type="curve" smooth="yes"/>
			<point x="442" y="275" type="line" smooth="yes"/>
			<point x="445" y="264"/>
			<point x="446" y="254"/>
			<point x="446" y="245" type="curve" smooth="yes"/>
			<point x="446" y="217"/>
			<point x="432" y="200"/>
			<point x="413" y="200" type="curve" smooth="yes"/>
			<point x="397" y="200" type="line"/>
			<point x="397" y="0" type="line"/>
			<point x="426" y="0" type="line" smooth="yes"/>
			<point x="483" y="0"/>
			<point x="535" y="29"/>
			<point x="535" y="91" type="curve" smooth="yes"/>
			<point x="535" y="105"/>
			<point x="532" y="121"/>
			<point x="525" y="147" type="curve" smooth="yes"/>
			<point x="374" y="670" type="line" smooth="yes"/>
			<point x="368" y="691"/>
			<point x="362" y="700"/>
			<point x="353" y="700" type="curve" smooth="yes"/>
			<point x="344" y="700"/>
			<point x="337" y="691"/>
			<point x="331" y="670" type="curve" smooth="yes"/>
			<point x="180" y="147" type="line" smooth="yes"/>
			<point x="172" y="121"/>
			<point x="170" y="105"/>
			<point x="170" y="91" type="curve" smooth="yes"/>
			<point x="170" y="29"/>
			<point x="222" y="0"/>
		</contour>
		<contour>
			<point x="10" y="0" type="line"/>
			<point x="53" y="0"/>
			<point x="85" y="75"/>
			<point x="105" y="143" type="curve" smooth="yes"/>
			<point x="216" y="525" type="line" smooth="yes"/>
			<point x="227" y="563"/>
			<point x="237" y="598"/>
			<point x="237" y="619" type="curve" smooth="yes"/>
			<point x="237" y="663"/>
			<point x="208" y="700"/>
			<point x="161" y="700" type="curve" smooth="yes"/>
			<point x="132" y="700" type="line"/>
			<point x="82" y="500" type="line"/>
			<point x="103" y="500" type="line" smooth="yes"/>
			<point x="126" y="500"/>
			<point x="140" y="492"/>
			<point x="140" y="465" type="curve" smooth="yes"/>
			<point x="140" y="453"/>
			<point x="138" y="438"/>
			<point x="132" y="418" type="curve" smooth="yes"/>
			<point x="91" y="275" type="line" smooth="yes"/>
			<point x="77" y="225"/>
			<point x="65" y="200"/>
			<point x="26" y="200" type="curve" smooth="yes"/>
			<point x="10" y="200" type="line"/>
		</contour>
		<contour>
			<point x="81" y="30" type="curve"/>
			<point x="164" y="30" type="line"/>
			<point x="158" y="44"/>
			<point x="152" y="61"/>
			<point x="152" y="87" type="curve" smooth="yes"/>
			<point x="152" y="103"/>
			<point x="155" y="121"/>
			<point x="162" y="146" type="curve" smooth="yes"/>
			<point x="315" y="670" type="line"/>
			<point x="241" y="670" type="line"/>
			<point x="247" y="657"/>
			<point x="252" y="641"/>
			<point x="252" y="619" type="curve" smooth="yes"/>
			<point x="252" y="597"/>
			<point x="243" y="564"/>
			<point x="229" y="515" type="curve" smooth="yes"/>
			<point x="120" y="137" type="line" smooth="yes"/>
			<point x="103" y="79"/>
			<point x="92" y="50"/>
		</contour>
		<contour>
			<point x="249" y="278" type="line"/>
			<point x="454" y="278" type="line"/>
			<point x="451" y="328" type="line"/>
			<point x="240" y="328" type="line"/>
		</contour>
		<contour>
			<point x="541" y="30" type="curve"/>
			<point x="624" y="30" type="line"/>
			<point x="613" y="50"/>
			<point x="602" y="79"/>
			<point x="585" y="137" type="curve" smooth="yes"/>
			<point x="476" y="515" type="line" smooth="yes"/>
			<point x="462" y="564"/>
			<point x="453" y="597"/>
			<point x="453" y="619" type="curve" smooth="yes"/>
			<point x="453" y="641"/>
			<point x="458" y="657"/>
			<point x="464" y="670" type="curve"/>
			<point x="390" y="670" type="line"/>
			<point x="543" y="146" type="line" smooth="yes"/>
			<point x="550" y="121"/>
			<point x="553" y="103"/>
			<point x="553" y="87" type="curve" smooth="yes"/>
			<point x="553" y="61"/>
			<point x="547" y="44"/>
		</contour>
		<contour>
			<point x="695" y="0" type="curve"/>
			<point x="695" y="200" type="line"/>
			<point x="679" y="200" type="line" smooth="yes"/>
			<point x="640" y="200"/>
			<point x="628" y="225"/>
			<point x="614" y="275" type="curve" smooth="yes"/>
			<point x="573" y="418" type="line" smooth="yes"/>
			<point x="567" y="438"/>
			<point x="565" y="453"/>
			<point x="565" y="465" type="curve" smooth="yes"/>
			<point x="565" y="492"/>
			<point x="579" y="500"/>
			<point x="602" y="500" type="curve" smooth="yes"/>
			<point x="623" y="500" type="line"/>
			<point x="573" y="700" type="line"/>
			<point x="544" y="700" type="line" smooth="yes"/>
			<point x="497" y="700"/>
			<point x="468" y="663"/>
			<point x="468" y="619" type="curve" smooth="yes"/>
			<point x="468" y="598"/>
			<point x="478" y="563"/>
			<point x="489" y="525" type="curve" smooth="yes"/>
			<point x="600" y="143" type="line" smooth="yes"/>
			<point x="619" y="79"/>
			<point x="651" y="0"/>
		</contour>
	</outline>
</glyph>
<glyph name="B" format="2">
	<advance width="670"/>
	<unicode hex="0042"/>
	<outline>
		<contour>
			<point x="325" y="0" type="curve" smooth="yes"/>
			<point x="437" y="0" type="line" smooth="yes"/>
			<point x="493" y="0"/>
			<point x="545" y="26"/>
			<point x="545" y="87" type="curve" smooth="yes"/>
			<point x="545" y="276" type="line" smooth="yes"/>
			<point x="545" y="333"/>
			<point x="484" y="361"/>
			<point x="450" y="361" type="curve" smooth="yes"/>
			<point x="446" y="361"/>
			<point x="446" y="366"/>
			<point x="450" y="366" type="curve" smooth="yes"/>
			<point x="494" y="366"/>
			<point x="530" y="400"/>
			<point x="530" y="450" type="curve" smooth="yes"/>
			<point x="530" y="556" type="line" smooth="yes"/>
			<point x="530" y="671"/>
			<point x="519" y="700"/>
			<point x="430" y="700" type="curve" smooth="yes"/>
			<point x="325" y="700" type="line" smooth="yes"/>
			<point x="259" y="700"/>
			<point x="222" y="669"/>
			<point x="222" y="582" type="curve" smooth="yes"/>
			<point x="222" y="138" type="line" smooth="yes"/>
			<point x="222" y="42"/>
			<point x="249" y="0"/>
		</contour>
		<contour>
			<point x="40" y="0" type="line"/>
			<point x="49" y="0" type="line" smooth="yes"/>
			<point x="125" y="0"/>
			<point x="152" y="42"/>
			<point x="152" y="138" type="curve" smooth="yes"/>
			<point x="152" y="582" type="line" smooth="yes"/>
			<point x="152" y="669"/>
			<point x="119" y="700"/>
			<point x="49" y="700" type="curve" smooth="yes"/>
			<point x="40" y="700" type="line"/>
			<point x="40" y="500" type="line"/>
			<point x="51" y="500" type="line" smooth="yes"/>
			<point x="92" y="500"/>
			<point x="102" y="483"/>
			<point x="102" y="415" type="curve" smooth="yes"/>
			<point x="102" y="273" type="line" smooth="yes"/>
			<point x="102" y="222"/>
			<point x="88" y="200"/>
			<point x="56" y="200" type="curve" smooth="yes"/>
			<point x="40" y="200" type="line"/>
		</contour>
		<contour>
			<point x="149" y="30" type="curve"/>
			<point x="225" y="30" type="line"/>
			<point x="212" y="51"/>
			<point x="207" y="78"/>
			<point x="207" y="119" type="curve" smooth="yes"/>
			<point x="207" y="581" type="line" smooth="yes"/>
			<point x="207" y="622"/>
			<point x="212" y="649"/>
			<point x="225" y="670" type="curve"/>
			<point x="149" y="670" type="line"/>
			<point x="162" y="649"/>
			<point x="167" y="622"/>
			<point x="167" y="581" type="curve" smooth="yes"/>
			<point x="167" y="119" type="line" smooth="yes"/>
			<point x="167" y="78"/>
			<point x="162" y="51"/>
		</contour>
		<contour>
			<point x="437" y="200" type="curve" smooth="yes"/>
			<point x="318" y="200" type="line"/>
			<point x="286" y="200"/>
			<point x="272" y="222"/>
			<point x="272" y="273" type="curve" smooth="yes"/>
			<point x="272" y="420" type="line" smooth="yes"/>
			<point x="272" y="488"/>
			<point x="282" y="505"/>
			<point x="323" y="505" type="curve" smooth="yes"/>
			<point x="410" y="505" type="line" smooth="yes"/>
			<point x="459" y="505"/>
			<point x="480" y="490"/>
			<point x="480" y="450" type="curve" smooth="yes"/>
			<point x="480" y="399"/>
			<point x="449" y="385"/>
			<point x="381" y="385" type="curve" smooth="yes"/>
			<point x="263" y="385" type="line"/>
			<point x="263" y="335" type="line"/>
			<point x="381" y="335" type="line" smooth="yes"/>
			<point x="470" y="335"/>
			<point x="495" y="318"/>
			<point x="495" y="277" type="curve" smooth="yes"/>
			<point x="495" y="267" type="line" smooth="yes"/>
			<point x="495" y="227"/>
			<point x="476" y="200"/>
		</contour>
		<contour>
			<point x="549" y="38" type="curve"/>
			<point x="581" y="46"/>
			<point x="600" y="70"/>
			<point x="600" y="128" type="curve" smooth="yes"/>
			<point x="600" y="208" type="line" smooth="yes"/>
			<point x="600" y="296"/>
			<point x="581" y="320"/>
			<point x="549" y="328" type="curve"/>
			<point x="560" y="295"/>
			<point x="560" y="263"/>
			<point x="560" y="218" type="curve" smooth="yes"/>
			<point x="560" y="109" type="line" smooth="yes"/>
			<point x="560" y="82"/>
			<point x="560" y="58"/>
		</contour>
		<contour>
			<point x="612" y="83" type="curve"/>
			<point x="639" y="95"/>
			<point x="660" y="121"/>
			<point x="660" y="185" type="curve" smooth="yes"/>
			<point x="660" y="246"/>
			<point x="643" y="273"/>
			<point x="607" y="287" type="curve"/>
			<point x="612" y="267"/>
			<point x="615" y="227"/>
			<point x="615" y="200" type="curve" smooth="yes"/>
			<point x="615" y="150" type="line" smooth="yes"/>
			<point x="615" y="123"/>
			<point x="615" y="103"/>
		</contour>
		<contour>
			<point x="534" y="383" type="curve"/>
			<point x="566" y="391"/>
			<point x="585" y="415"/>
			<point x="585" y="473" type="curve" smooth="yes"/>
			<point x="585" y="553" type="line" smooth="yes"/>
			<point x="585" y="641"/>
			<point x="566" y="665"/>
			<point x="534" y="673" type="curve"/>
			<point x="545" y="640"/>
			<point x="545" y="608"/>
			<point x="545" y="563" type="curve" smooth="yes"/>
			<point x="545" y="454" type="line" smooth="yes"/>
			<point x="545" y="427"/>
			<point x="545" y="405"/>
		</contour>
		<contour>
			<point x="592" y="426" type="curve"/>
			<point x="618" y="440"/>
			<point x="635" y="462"/>
			<point x="635" y="521" type="curve" smooth="yes"/>
			<point x="635" y="578"/>
			<point x="617" y="606"/>
			<point x="592" y="625" type="curve"/>
			<point x="597" y="605"/>
			<point x="600" y="572"/>
			<point x="600" y="545" type="curve" smooth="yes"/>
			<point x="600" y="505" type="line" smooth="yes"/>
			<point x="600" y="478"/>
			<point x="597" y="438"/>
		</contour>
	</outline>
</glyph>
<glyph name="C" format="2">
	<advance width="643"/>
	<unicode hex="0043"/>
	<anchor x="362" y="0" name="bottom"/>
	<anchor x="362" y="700" name="top"/>
	<outline>
		<contour>
			<point x="362" y="-10" type="curve" smooth="yes"/>
			<point x="498" y="-10"/>
			<point x="548" y="31"/>
			<point x="548" y="124" type="curve" smooth="yes"/>
			<point x="548" y="285" type="line"/>
			<point x="498" y="285" type="line"/>
			<point x="498" y="267" type="line" smooth="yes"/>
			<point x="498" y="218"/>
			<point x="464" y="190"/>
			<point x="383" y="190" type="curve" smooth="yes"/>
			<point x="317" y="190" type="line" smooth="yes"/>
			<point x="237" y="190"/>
			<point x="206" y="237"/>
			<point x="206" y="320" type="curve" smooth="yes"/>
			<point x="206" y="380" type="line" smooth="yes"/>
			<point x="206" y="463"/>
			<point x="237" y="510"/>
			<point x="317" y="510" type="curve" smooth="yes"/>
			<point x="393" y="510" type="line" smooth="yes"/>
			<point x="472" y="510"/>
			<point x="498" y="489"/>
			<point x="498" y="425" type="curve"/>
			<point x="548" y="425" type="line"/>
			<point x="548" y="576" type="line" smooth="yes"/>
			<point x="548" y="669"/>
			<point x="498" y="710"/>
			<point x="362" y="710" type="curve" smooth="yes"/>
			<point x="223" y="710"/>
			<point x="151" y="666"/>
			<point x="151" y="517" type="curve" smooth="yes"/>
			<point x="151" y="183" type="line" smooth="yes"/>
			<point x="151" y="34"/>
			<point x="223" y="-10"/>
		</contour>
		<contour>
			<point x="89" y="107" type="curve"/>
			<point x="84" y="125"/>
			<point x="81" y="154"/>
			<point x="81" y="190" type="curve" smooth="yes"/>
			<point x="81" y="510" type="line" smooth="yes"/>
			<point x="81" y="546"/>
			<point x="84" y="575"/>
			<point x="89" y="593" type="curve"/>
			<point x="45" y="565"/>
			<point x="25" y="503"/>
			<point x="25" y="388" type="curve" smooth="yes"/>
			<point x="25" y="312" type="line" smooth="yes"/>
			<point x="25" y="197"/>
			<point x="45" y="135"/>
		</contour>
		<contour>
			<point x="153" y="70" type="curve"/>
			<point x="142" y="95"/>
			<point x="136" y="126"/>
			<point x="136" y="172" type="curve" smooth="yes"/>
			<point x="136" y="528" type="line" smooth="yes"/>
			<point x="136" y="574"/>
			<point x="142" y="605"/>
			<point x="153" y="630" type="curve"/>
			<point x="116" y="625"/>
			<point x="96" y="593"/>
			<point x="96" y="520" type="curve" smooth="yes"/>
			<point x="96" y="180" type="line" smooth="yes"/>
			<point x="96" y="107"/>
			<point x="116" y="75"/>
		</contour>
		<contour>
			<point x="546" y="30" type="curve"/>
			<point x="583" y="35"/>
			<point x="603" y="67"/>
			<point x="603" y="140" type="curve" smooth="yes"/>
			<point x="603" y="285" type="line"/>
			<point x="563" y="285" type="line"/>
			<point x="563" y="132" type="line" smooth="yes"/>
			<point x="563" y="86"/>
			<point x="557" y="55"/>
		</contour>
		<contour>
			<point x="563" y="548" type="curve" smooth="yes"/>
			<point x="563" y="425" type="line"/>
			<point x="603" y="425" type="line"/>
			<point x="603" y="540" type="line" smooth="yes"/>
			<point x="603" y="613"/>
			<point x="589" y="645"/>
			<point x="553" y="650" type="curve"/>
			<point x="563" y="625"/>
			<point x="563" y="594"/>
		</contour>
	</outline>
</glyph>
<glyph name="E" format="2">
	<advance width="565"/>
	<unicode hex="0045"/>
	<anchor x="288" y="0" name="bottom"/>
	<anchor x="530" y="0" name="ogonek"/>
	<anchor x="288" y="700" name="top"/>
	<anchor x="20" y="700" name="topleft"/>
	<outline>
		<contour>
			<point x="325" y="0" type="curve" smooth="yes"/>
			<point x="432" y="0" type="line" smooth="yes"/>
			<point x="505" y="0"/>
			<point x="530" y="24"/>
			<point x="530" y="67" type="curve" smooth="yes"/>
			<point x="530" y="256" type="line"/>
			<point x="480" y="256" type="line"/>
			<point x="480" y="220"/>
			<point x="463" y="200"/>
			<point x="429" y="200" type="curve" smooth="yes"/>
			<point x="328" y="200" type="line" smooth="yes"/>
			<point x="286" y="200"/>
			<point x="272" y="224"/>
			<point x="272" y="275" type="curve" smooth="yes"/>
			<point x="272" y="413" type="line" smooth="yes"/>
			<point x="272" y="482"/>
			<point x="286" y="505"/>
			<point x="327" y="505" type="curve" smooth="yes"/>
			<point x="410" y="505" type="line" smooth="yes"/>
			<point x="459" y="505"/>
			<point x="480" y="480"/>
			<point x="480" y="425" type="curve"/>
			<point x="530" y="425" type="line"/>
			<point x="530" y="626" type="line" smooth="yes"/>
			<point x="530" y="670"/>
			<point x="509" y="700"/>
			<point x="440" y="700" type="curve" smooth="yes"/>
			<point x="325" y="700" type="line" smooth="yes"/>
			<point x="259" y="700"/>
			<point x="222" y="669"/>
			<point x="222" y="582" type="curve" smooth="yes"/>
			<point x="222" y="138" type="line" smooth="yes"/>
			<point x="222" y="42"/>
			<point x="254" y="0"/>
		</contour>
		<contour>
			<point x="40" y="0" type="line"/>
			<point x="49" y="0" type="line" smooth="yes"/>
			<point x="120" y="0"/>
			<point x="152" y="42"/>
			<point x="152" y="138" type="curve" smooth="yes"/>
			<point x="152" y="582" type="line" smooth="yes"/>
			<point x="152" y="669"/>
			<point x="114" y="700"/>
			<point x="49" y="700" type="curve" smooth="yes"/>
			<point x="40" y="700" type="line"/>
			<point x="40" y="500" type="line"/>
			<point x="51" y="500" type="line" smooth="yes"/>
			<point x="92" y="500"/>
			<point x="102" y="483"/>
			<point x="102" y="415" type="curve" smooth="yes"/>
			<point x="102" y="273" type="line" smooth="yes"/>
			<point x="102" y="222"/>
			<point x="88" y="200"/>
			<point x="56" y="200" type="curve" smooth="yes"/>
			<point x="40" y="200" type="line"/>
		</contour>
		<contour>
			<point x="149" y="30" type="curve"/>
			<point x="225" y="30" type="line"/>
			<point x="212" y="51"/>
			<point x="207" y="78"/>
			<point x="207" y="119" type="curve" smooth="yes"/>
			<point x="207" y="581" type="line" smooth="yes"/>
			<point x="207" y="622"/>
			<point x="212" y="649"/>
			<point x="225" y="670" type="curve"/>
			<point x="149" y="670" type="line"/>
			<point x="162" y="649"/>
			<point x="167" y="622"/>
			<point x="167" y="581" type="curve" smooth="yes"/>
			<point x="167" y="119" type="line" smooth="yes"/>
			<point x="167" y="78"/>
			<point x="162" y="51"/>
		</contour>
		<contour>
			<point x="398" y="305" type="curve"/>
			<point x="432" y="305" type="line"/>
			<point x="432" y="415" type="line"/>
			<point x="398" y="415" type="line"/>
			<point x="380" y="395"/>
			<point x="370" y="385"/>
			<point x="351" y="385" type="curve" smooth="yes"/>
			<point x="258" y="385" type="line"/>
			<point x="258" y="335" type="line"/>
			<point x="351" y="335" type="line" smooth="yes"/>
			<point x="373" y="335"/>
			<point x="392" y="328"/>
		</contour>
	</outline>
</glyph>
<glyph name="F" format="2">
	<advance width="543"/>
	<unicode hex="0046"/>
	<outline>
		<contour>
			<point x="325" y="0" type="curve"/>
			<point x="374" y="0" type="line"/>
			<point x="374" y="200" type="line"/>
			<point x="318" y="200" type="line" smooth="yes"/>
			<point x="286" y="200"/>
			<point x="272" y="224"/>
			<point x="272" y="275" type="curve" smooth="yes"/>
			<point x="272" y="413" type="line" smooth="yes"/>
			<point x="272" y="482"/>
			<point x="286" y="505"/>
			<point x="327" y="505" type="curve" smooth="yes"/>
			<point x="408" y="505" type="line" smooth="yes"/>
			<point x="457" y="505"/>
			<point x="478" y="490"/>
			<point x="478" y="450" type="curve" smooth="yes"/>
			<point x="478" y="405" type="line"/>
			<point x="528" y="405" type="line"/>
			<point x="528" y="616" type="line" smooth="yes"/>
			<point x="528" y="671"/>
			<point x="497" y="700"/>
			<point x="428" y="700" type="curve" smooth="yes"/>
			<point x="325" y="700" type="line" smooth="yes"/>
			<point x="259" y="700"/>
			<point x="222" y="669"/>
			<point x="222" y="582" type="curve" smooth="yes"/>
			<point x="222" y="138" type="line" smooth="yes"/>
			<point x="222" y="42"/>
			<point x="254" y="0"/>
		</contour>
		<contour>
			<point x="40" y="0" type="line"/>
			<point x="49" y="0" type="line" smooth="yes"/>
			<point x="120" y="0"/>
			<point x="152" y="42"/>
			<point x="152" y="138" type="curve" smooth="yes"/>
			<point x="152" y="582" type="line" smooth="yes"/>
			<point x="152" y="669"/>
			<point x="114" y="700"/>
			<point x="49" y="700" type="curve" smooth="yes"/>
			<point x="40" y="700" type="line"/>
			<point x="40" y="500" type="line"/>
			<point x="51" y="500" type="line" smooth="yes"/>
			<point x="92" y="500"/>
			<point x="102" y="483"/>
			<point x="102" y="415" type="curve" smooth="yes"/>
			<point x="102" y="273" type="line" smooth="yes"/>
			<point x="102" y="222"/>
			<point x="88" y="200"/>
			<point x="56" y="200" type="curve" smooth="yes"/>
			<point x="40" y="200" type="line"/>
		</contour>
		<contour>
			<point x="149" y="30" type="curve"/>
			<point x="225" y="30" type="line"/>
			<point x="212" y="51"/>
			<point x="207" y="78"/>
			<point x="207" y="119" type="curve" smooth="yes"/>
			<point x="207" y="581" type="line" smooth="yes"/>
			<point x="207" y="622"/>
			<point x="212" y="649"/>
			<point x="225" y="670" type="curve"/>
			<point x="149" y="670" type="line"/>
			<point x="162" y="649"/>
			<point x="167" y="622"/>
			<point x="167" y="581" type="curve" smooth="yes"/>
			<point x="167" y="119" type="line" smooth="yes"/>
			<point x="167" y="78"/>
			<point x="162" y="51"/>
		</contour>
		<contour>
			<point x="398" y="282" type="curve"/>
			<point x="432" y="282" type="line"/>
			<point x="432" y="392" type="line"/>
			<point x="398" y="392" type="line"/>
			<point x="380" y="372"/>
			<point x="370" y="362"/>
			<point x="351" y="362" type="curve" smooth="yes"/>
			<point x="258" y="362" type="line"/>
			<point x="258" y="312" type="line"/>
			<point x="351" y="312" type="line" smooth="yes"/>
			<point x="373" y="312"/>
			<point x="392" y="305"/>
		</contour>
	</outline>
</glyph>
<glyph name="G" format="2">
	<advance width="638"/>
	<unicode hex="0047"/>
	<anchor x="348" y="0" name="bottom"/>
	<anchor x="334" y="700" name="top"/>
	<outline>
		<contour>
			<point x="347" y="-10" type="curve" smooth="yes"/>
			<point x="483" y="-10"/>
			<point x="543" y="51"/>
			<point x="543" y="144" type="curve" smooth="yes"/>
			<point x="543" y="345" type="line"/>
			<point x="312" y="345" type="line"/>
			<point x="312" y="295" type="line"/>
			<point x="451" y="295" type="line" smooth="yes"/>
			<point x="473" y="295"/>
			<point x="483" y="285"/>
			<point x="483" y="263" type="curve" smooth="yes"/>
			<point x="483" y="212"/>
			<point x="459" y="190"/>
			<point x="378" y="190" type="curve" smooth="yes"/>
			<point x="317" y="190" type="line" smooth="yes"/>
			<point x="237" y="190"/>
			<point x="206" y="237"/>
			<point x="206" y="320" type="curve" smooth="yes"/>
			<point x="206" y="380" type="line" smooth="yes"/>
			<point x="206" y="463"/>
			<point x="237" y="510"/>
			<point x="317" y="510" type="curve" smooth="yes"/>
			<point x="368" y="510" type="line" smooth="yes"/>
			<point x="455" y="510"/>
			<point x="483" y="484"/>
			<point x="483" y="415" type="curve"/>
			<point x="533" y="415" type="line"/>
			<point x="533" y="576" type="line" smooth="yes"/>
			<point x="533" y="669"/>
			<point x="483" y="710"/>
			<point x="347" y="710" type="curve" smooth="yes"/>
			<point x="208" y="710"/>
			<point x="151" y="666"/>
			<point x="151" y="517" type="curve" smooth="yes"/>
			<point x="151" y="183" type="line" smooth="yes"/>
			<point x="151" y="34"/>
			<point x="208" y="-10"/>
		</contour>
		<contour>
			<point x="89" y="107" type="curve"/>
			<point x="84" y="125"/>
			<point x="81" y="154"/>
			<point x="81" y="190" type="curve" smooth="yes"/>
			<point x="81" y="510" type="line" smooth="yes"/>
			<point x="81" y="546"/>
			<point x="84" y="575"/>
			<point x="89" y="593" type="curve"/>
			<point x="45" y="565"/>
			<point x="25" y="503"/>
			<point x="25" y="388" type="curve" smooth="yes"/>
			<point x="25" y="312" type="line" smooth="yes"/>
			<point x="25" y="197"/>
			<point x="45" y="135"/>
		</contour>
		<contour>
			<point x="153" y="70" type="curve"/>
			<point x="142" y="95"/>
			<point x="136" y="126"/>
			<point x="136" y="172" type="curve" smooth="yes"/>
			<point x="136" y="528" type="line" smooth="yes"/>
			<point x="136" y="574"/>
			<point x="142" y="605"/>
			<point x="153" y="630" type="curve"/>
			<point x="116" y="625"/>
			<point x="96" y="593"/>
			<point x="96" y="520" type="curve" smooth="yes"/>
			<point x="96" y="180" type="line" smooth="yes"/>
			<point x="96" y="107"/>
			<point x="116" y="75"/>
		</contour>
		<contour>
			<point x="541" y="42" type="curve"/>
			<point x="578" y="47"/>
			<point x="598" y="79"/>
			<point x="598" y="152" type="curve" smooth="yes"/>
			<point x="598" y="345" type="line"/>
			<point x="558" y="345" type="line"/>
			<point x="558" y="144" type="line" smooth="yes"/>
			<point x="558" y="98"/>
			<point x="552" y="67"/>
		</contour>
		<contour>
			<point x="548" y="548" type="curve" smooth="yes"/>
			<point x="548" y="415" type="line"/>
			<point x="588" y="415" type="line"/>
			<point x="588" y="540" type="line" smooth="yes"/>
			<point x="588" y="613"/>
			<point x="574" y="645"/>
			<point x="538" y="650" type="curve"/>
			<point x="548" y="625"/>
			<point x="548" y="594"/>
		</contour>
	</outline>
</glyph>
<glyph name="H" format="2">
	<advance width="728"/>
	<unicode hex="0048"/>
	<outline>
		<contour>
			<point x="679" y="0" type="curve" smooth="yes"/>
			<point x="688" y="0" type="line"/>
			<point x="688" y="200" type="line"/>
			<point x="672" y="200" type="line" smooth="yes"/>
			<point x="640" y="200"/>
			<point x="626" y="222"/>
			<point x="626" y="273" type="curve" smooth="yes"/>
			<point x="626" y="415" type="line" smooth="yes"/>
			<point x="626" y="483"/>
			<point x="636" y="500"/>
			<point x="677" y="500" type="curve" smooth="yes"/>
			<point x="688" y="500" type="line"/>
			<point x="688" y="700" type="line"/>
			<point x="679" y="700" type="line" smooth="yes"/>
			<point x="614" y="700"/>
			<point x="576" y="669"/>
			<point x="576" y="582" type="curve" smooth="yes"/>
			<point x="576" y="138" type="line" smooth="yes"/>
			<point x="576" y="42"/>
			<point x="608" y="0"/>
		</contour>
		<contour>
			<point x="40" y="0" type="line"/>
			<point x="49" y="0" type="line" smooth="yes"/>
			<point x="120" y="0"/>
			<point x="152" y="42"/>
			<point x="152" y="138" type="curve" smooth="yes"/>
			<point x="152" y="582" type="line" smooth="yes"/>
			<point x="152" y="669"/>
			<point x="114" y="700"/>
			<point x="49" y="700" type="curve" smooth="yes"/>
			<point x="40" y="700" type="line"/>
			<point x="40" y="500" type="line"/>
			<point x="51" y="500" type="line" smooth="yes"/>
			<point x="92" y="500"/>
			<point x="102" y="483"/>
			<point x="102" y="415" type="curve" smooth="yes"/>
			<point x="102" y="273" type="line" smooth="yes"/>
			<point x="102" y="222"/>
			<point x="88" y="200"/>
			<point x="56" y="200" type="curve" smooth="yes"/>
			<point x="40" y="200" type="line"/>
		</contour>
		<contour>
			<point x="149" y="30" type="curve"/>
			<point x="225" y="30" type="line"/>
			<point x="212" y="51"/>
			<point x="207" y="78"/>
			<point x="207" y="119" type="curve" smooth="yes"/>
			<point x="207" y="581" type="line" smooth="yes"/>
			<point x="207" y="622"/>
			<point x="212" y="649"/>
			<point x="225" y="670" type="curve"/>
			<point x="149" y="670" type="line"/>
			<point x="162" y="649"/>
			<point x="167" y="622"/>
			<point x="167" y="581" type="curve" smooth="yes"/>
			<point x="167" y="119" type="line" smooth="yes"/>
			<point x="167" y="78"/>
			<point x="162" y="51"/>
		</contour>
		<contour>
			<point x="325" y="0" type="curve" smooth="yes"/>
			<point x="334" y="0" type="line"/>
			<point x="334" y="200" type="line"/>
			<point x="318" y="200" type="line" smooth="yes"/>
			<point x="286" y="200"/>
			<point x="272" y="222"/>
			<point x="272" y="273" type="curve" smooth="yes"/>
			<point x="272" y="415" type="line" smooth="yes"/>
			<point x="272" y="484"/>
			<point x="282" y="500"/>
			<point x="323" y="500" type="curve" smooth="yes"/>
			<point x="334" y="500" type="line"/>
			<point x="334" y="700" type="line"/>
			<point x="325" y="700" type="line" smooth="yes"/>
			<point x="259" y="700"/>
			<point x="222" y="669"/>
			<point x="222" y="582" type="curve" smooth="yes"/>
			<point x="222" y="138" type="line" smooth="yes"/>
			<point x="222" y="42"/>
			<point x="254" y="0"/>
		</contour>
		<contour>
			<point x="263" y="335" type="line"/>
			<point x="468" y="335" type="line"/>
			<point x="468" y="385" type="line"/>
			<point x="263" y="385" type="line"/>
		</contour>
		<contour>
			<point x="394" y="0" type="line"/>
			<point x="403" y="0" type="line" smooth="yes"/>
			<point x="474" y="0"/>
			<point x="506" y="42"/>
			<point x="506" y="138" type="curve" smooth="yes"/>
			<point x="506" y="582" type="line" smooth="yes"/>
			<point x="506" y="669"/>
			<point x="468" y="700"/>
			<point x="403" y="700" type="curve" smooth="yes"/>
			<point x="394" y="700" type="line"/>
			<point x="394" y="500" type="line"/>
			<point x="405" y="500" type="line" smooth="yes"/>
			<point x="446" y="500"/>
			<point x="456" y="483"/>
			<point x="456" y="415" type="curve" smooth="yes"/>
			<point x="456" y="273" type="line" smooth="yes"/>
			<point x="456" y="222"/>
			<point x="442" y="200"/>
			<point x="410" y="200" type="curve" smooth="yes"/>
			<point x="394" y="200" type="line"/>
		</contour>
		<contour>
			<point x="503" y="30" type="curve"/>
			<point x="579" y="30" type="line"/>
			<point x="566" y="51"/>
			<point x="561" y="78"/>
			<point x="561" y="119" type="curve" smooth="yes"/>
			<point x="561" y="581" type="line" smooth="yes"/>
			<point x="561" y="622"/>
			<point x="566" y="649"/>
			<point x="579" y="670" type="curve"/>
			<point x="503" y="670" type="line"/>
			<point x="516" y="649"/>
			<point x="521" y="622"/>
			<point x="521" y="581" type="curve" smooth="yes"/>
			<point x="521" y="119" type="line" smooth="yes"/>
			<point x="521" y="78"/>
			<point x="516" y="51"/>
		</contour>
	</outline>
</glyph>
<glyph name="J" format="2">
	<advance width="463"/>
	<unicode hex="004A"/>
	<outline>
		<contour>
			<point x="132" y="0" type="curve" smooth="yes"/>
			<point x="172" y="0" type="line" smooth="yes"/>
			<point x="224" y="0"/>
			<point x="251" y="42"/>
			<point x="251" y="138" type="curve" smooth="yes"/>
			<point x="251" y="582" type="line" smooth="yes"/>
			<point x="251" y="669"/>
			<point x="218" y="700"/>
			<point x="148" y="700" type="curve" smooth="yes"/>
			<point x="108" y="700" type="line"/>
			<point x="108" y="500" type="line"/>
			<point x="150" y="500" type="line" smooth="yes"/>
			<point x="191" y="500"/>
			<point x="201" y="483"/>
			<point x="201" y="415" type="curve" smooth="yes"/>
			<point x="201" y="275" type="line" smooth="yes"/>
			<point x="201" y="224"/>
			<point x="179" y="200"/>
			<point x="140" y="200" type="curve" smooth="yes"/>
			<point x="117" y="200" type="line" smooth="yes"/>
			<point x="70" y="200"/>
			<point x="53" y="226"/>
			<point x="53" y="275" type="curve"/>
			<point x="10" y="275" type="line"/>
			<point x="10" y="116" type="line" smooth="yes"/>
			<point x="10" y="48"/>
			<point x="50" y="0"/>
		</contour>
		<contour>
			<point x="245" y="30" type="curve"/>
			<point x="282" y="30"/>
			<point x="306" y="51"/>
			<point x="306" y="119" type="curve" smooth="yes"/>
			<point x="306" y="581" type="line" smooth="yes"/>
			<point x="306" y="622"/>
			<point x="311" y="649"/>
			<point x="324" y="670" type="curve"/>
			<point x="248" y="670" type="line"/>
			<point x="261" y="649"/>
			<point x="266" y="622"/>
			<point x="266" y="581" type="curve" smooth="yes"/>
			<point x="266" y="119" type="line" smooth="yes"/>
			<point x="266" y="70"/>
			<point x="261" y="51"/>
		</contour>
		<contour>
			<point x="316" y="78" type="curve"/>
			<point x="353" y="93"/>
			<point x="371" y="128"/>
			<point x="371" y="205" type="curve" smooth="yes"/>
			<point x="371" y="415" type="line" smooth="yes"/>
			<point x="371" y="483"/>
			<point x="389" y="500"/>
			<point x="437" y="500" type="curve" smooth="yes"/>
			<point x="448" y="500" type="line"/>
			<point x="448" y="700" type="line"/>
			<point x="419" y="700" type="line" smooth="yes"/>
			<point x="363" y="700"/>
			<point x="321" y="669"/>
			<point x="321" y="582" type="curve" smooth="yes"/>
			<point x="321" y="144" type="line" smooth="yes"/>
			<point x="321" y="119"/>
			<point x="320" y="97"/>
		</contour>
	</outline>
</glyph>
<glyph name="K" format="2">
	<advance width="650"/>
	<unicode hex="004B"/>
	<anchor x="377" y="0" name="bottom"/>
	<anchor x="325" y="700" name="top"/>
	<outline>
		<contour>
			<point x="512" y="0" type="curve" smooth="yes"/>
			<point x="535" y="0" type="line" smooth="yes"/>
			<point x="588" y="0"/>
			<point x="625" y="32"/>
			<point x="625" y="97" type="curve" smooth="yes"/>
			<point x="625" y="276" type="line"/>
			<point x="575" y="276" type="line"/>
			<point x="575" y="217"/>
			<point x="548" y="200"/>
			<point x="514" y="200" type="curve" smooth="yes"/>
			<point x="494" y="200" type="line" smooth="yes"/>
			<point x="461" y="200"/>
			<point x="440" y="210"/>
			<point x="418" y="261" type="curve" smooth="yes"/>
			<point x="370" y="375" type="line"/>
			<point x="370" y="348" type="line"/>
			<point x="414" y="447" type="line" smooth="yes"/>
			<point x="433" y="491"/>
			<point x="451" y="500"/>
			<point x="482" y="500" type="curve" smooth="yes"/>
			<point x="507" y="500" type="line" smooth="yes"/>
			<point x="541" y="500"/>
			<point x="569" y="483"/>
			<point x="569" y="424" type="curve"/>
			<point x="619" y="424" type="line"/>
			<point x="619" y="603" type="line" smooth="yes"/>
			<point x="619" y="664"/>
			<point x="582" y="700"/>
			<point x="531" y="700" type="curve" smooth="yes"/>
			<point x="489" y="700" type="line" smooth="yes"/>
			<point x="434" y="700"/>
			<point x="411" y="666"/>
			<point x="394" y="602" type="curve" smooth="yes"/>
			<point x="332" y="372" type="line"/>
			<point x="333" y="345" type="line"/>
			<point x="409" y="98" type="line" smooth="yes"/>
			<point x="428" y="35"/>
			<point x="458" y="0"/>
		</contour>
		<contour>
			<point x="40" y="0" type="line"/>
			<point x="49" y="0" type="line" smooth="yes"/>
			<point x="120" y="0"/>
			<point x="152" y="42"/>
			<point x="152" y="138" type="curve" smooth="yes"/>
			<point x="152" y="582" type="line" smooth="yes"/>
			<point x="152" y="669"/>
			<point x="114" y="700"/>
			<point x="49" y="700" type="curve" smooth="yes"/>
			<point x="40" y="700" type="line"/>
			<point x="40" y="500" type="line"/>
			<point x="51" y="500" type="line" smooth="yes"/>
			<point x="92" y="500"/>
			<point x="102" y="483"/>
			<point x="102" y="415" type="curve" smooth="yes"/>
			<point x="102" y="273" type="line" smooth="yes"/>
			<point x="102" y="222"/>
			<point x="88" y="200"/>
			<point x="56" y="200" type="curve" smooth="yes"/>
			<point x="40" y="200" type="line"/>
		</contour>
		<contour>
			<point x="149" y="30" type="curve"/>
			<point x="225" y="30" type="line"/>
			<point x="212" y="51"/>
			<point x="207" y="78"/>
			<point x="207" y="119" type="curve" smooth="yes"/>
			<point x="207" y="581" type="line" smooth="yes"/>
			<point x="207" y="622"/>
			<point x="212" y="649"/>
			<point x="225" y="670" type="curve"/>
			<point x="149" y="670" type="line"/>
			<point x="162" y="649"/>
			<point x="167" y="622"/>
			<point x="167" y="581" type="curve" smooth="yes"/>
			<point x="167" y="119" type="line" smooth="yes"/>
			<point x="167" y="78"/>
			<point x="162" y="51"/>
		</contour>
		<contour>
			<point x="325" y="0" type="curve" smooth="yes"/>
			<point x="334" y="0" type="line"/>
			<point x="334" y="200" type="line"/>
			<point x="318" y="200" type="line" smooth="yes"/>
			<point x="286" y="200"/>
			<point x="272" y="222"/>
			<point x="272" y="273" type="curve" smooth="yes"/>
			<point x="272" y="415" type="line" smooth="yes"/>
			<point x="272" y="484"/>
			<point x="282" y="500"/>
			<point x="323" y="500" type="curve" smooth="yes"/>
			<point x="329" y="500" type="line"/>
			<point x="329" y="700" type="line"/>
			<point x="325" y="700" type="line" smooth="yes"/>
			<point x="259" y="700"/>
			<point x="222" y="669"/>
			<point x="222" y="582" type="curve" smooth="yes"/>
			<point x="222" y="138" type="line" smooth="yes"/>
			<point x="222" y="42"/>
			<point x="254" y="0"/>
		</contour>
		<contour>
			<point x="258" y="335" type="line"/>
			<point x="375" y="335" type="line"/>
			<point x="375" y="385" type="line"/>
			<point x="258" y="385" type="line"/>
		</contour>
	</outline>
</glyph>
<glyph name="L" format="2">
	<advance width="532"/>
	<unicode hex="004C"/>
	<anchor x="291" y="0" name="bottom"/>
	<anchor x="271" y="350" name="center"/>
	<anchor x="271" y="700" name="top"/>
	<anchor x="522" y="700" name="topright"/>
	<outline>
		<contour>
			<point x="320" y="0" type="curve" smooth="yes"/>
			<point x="411" y="0" type="line" smooth="yes"/>
			<point x="486" y="0"/>
			<point x="522" y="48"/>
			<point x="522" y="116" type="curve" smooth="yes"/>
			<point x="522" y="296" type="line"/>
			<point x="472" y="296" type="line"/>
			<point x="472" y="220"/>
			<point x="455" y="200"/>
			<point x="404" y="200" type="curve" smooth="yes"/>
			<point x="332" y="200" type="line" smooth="yes"/>
			<point x="293" y="200"/>
			<point x="272" y="224"/>
			<point x="272" y="275" type="curve" smooth="yes"/>
			<point x="272" y="415" type="line" smooth="yes"/>
			<point x="272" y="483"/>
			<point x="283" y="500"/>
			<point x="341" y="500" type="curve" smooth="yes"/>
			<point x="352" y="500" type="line"/>
			<point x="352" y="700" type="line"/>
			<point x="320" y="700" type="line" smooth="yes"/>
			<point x="264" y="700"/>
			<point x="222" y="669"/>
			<point x="222" y="582" type="curve" smooth="yes"/>
			<point x="222" y="138" type="line" smooth="yes"/>
			<point x="222" y="42"/>
			<point x="258" y="0"/>
		</contour>
		<contour>
			<point x="40" y="0" type="line"/>
			<point x="49" y="0" type="line" smooth="yes"/>
			<point x="125" y="0"/>
			<point x="152" y="42"/>
			<point x="152" y="138" type="curve" smooth="yes"/>
			<point x="152" y="582" type="line" smooth="yes"/>
			<point x="152" y="669"/>
			<point x="119" y="700"/>
			<point x="49" y="700" type="curve" smooth="yes"/>
			<point x="40" y="700" type="line"/>
			<point x="40" y="500" type="line"/>
			<point x="51" y="500" type="line" smooth="yes"/>
			<point x="92" y="500"/>
			<point x="102" y="483"/>
			<point x="102" y="415" type="curve" smooth="yes"/>
			<point x="102" y="273" type="line" smooth="yes"/>
			<point x="102" y="222"/>
			<point x="88" y="200"/>
			<point x="56" y="200" type="curve" smooth="yes"/>
			<point x="40" y="200" type="line"/>
		</contour>
		<contour>
			<point x="149" y="30" type="curve"/>
			<point x="225" y="30" type="line"/>
			<point x="212" y="51"/>
			<point x="207" y="78"/>
			<point x="207" y="119" type="curve" smooth="yes"/>
			<point x="207" y="581" type="line" smooth="yes"/>
			<point x="207" y="622"/>
			<point x="212" y="649"/>
			<point x="225" y="670" type="curve"/>
			<point x="149" y="670" type="line"/>
			<point x="162" y="649"/>
			<point x="167" y="622"/>
			<point x="167" y="581" type="curve" smooth="yes"/>
			<point x="167" y="119" type="line" smooth="yes"/>
			<point x="167" y="78"/>
			<point x="162" y="51"/>
		</contour>
	</outline>
</glyph>
<glyph name="M" format="2">
	<advance width="884"/>
	<unicode hex="004D"/>
	<outline>
		<contour>
			<point x="277" y="0" type="curve" smooth="yes"/>
			<point x="346" y="0" type="line"/>
			<point x="323" y="200" type="line"/>
			<point x="296" y="200" type="line" smooth="yes"/>
			<point x="273" y="200"/>
			<point x="261" y="213"/>
			<point x="261" y="242" type="curve" smooth="yes"/>
			<point x="261" y="248"/>
			<point x="262" y="256"/>
			<point x="265" y="275" type="curve" smooth="yes"/>
			<point x="286" y="412" type="line" smooth="yes"/>
			<point x="293" y="455"/>
			<point x="302" y="470"/>
			<point x="319" y="470" type="curve" smooth="yes"/>
			<point x="338" y="470"/>
			<point x="345" y="455"/>
			<point x="350" y="412" type="curve" smooth="yes"/>
			<point x="386" y="84" type="line" smooth="yes"/>
			<point x="393" y="18"/>
			<point x="415" y="0"/>
			<point x="442" y="0" type="curve" smooth="yes"/>
			<point x="469" y="0"/>
			<point x="491" y="18"/>
			<point x="498" y="84" type="curve" smooth="yes"/>
			<point x="534" y="412" type="line" smooth="yes"/>
			<point x="539" y="455"/>
			<point x="546" y="470"/>
			<point x="565" y="470" type="curve" smooth="yes"/>
			<point x="582" y="470"/>
			<point x="591" y="455"/>
			<point x="598" y="412" type="curve" smooth="yes"/>
			<point x="619" y="275" type="line" smooth="yes"/>
			<point x="622" y="256"/>
			<point x="623" y="248"/>
			<point x="623" y="242" type="curve" smooth="yes"/>
			<point x="623" y="213"/>
			<point x="611" y="200"/>
			<point x="588" y="200" type="curve" smooth="yes"/>
			<point x="561" y="200" type="line"/>
			<point x="538" y="0" type="line"/>
			<point x="607" y="0" type="line" smooth="yes"/>
			<point x="664" y="0"/>
			<point x="692" y="25"/>
			<point x="692" y="87" type="curve" smooth="yes"/>
			<point x="692" y="101"/>
			<point x="690" y="121"/>
			<point x="686" y="147" type="curve" smooth="yes"/>
			<point x="609" y="654" type="line" smooth="yes"/>
			<point x="605" y="680"/>
			<point x="593" y="700"/>
			<point x="559" y="700" type="curve" smooth="yes"/>
			<point x="528" y="700"/>
			<point x="517" y="684"/>
			<point x="514" y="654" type="curve" smooth="yes"/>
			<point x="472" y="285" type="line" smooth="yes"/>
			<point x="468" y="251"/>
			<point x="456" y="237"/>
			<point x="442" y="237" type="curve" smooth="yes"/>
			<point x="428" y="237"/>
			<point x="416" y="251"/>
			<point x="412" y="285" type="curve" smooth="yes"/>
			<point x="370" y="654" type="line" smooth="yes"/>
			<point x="367" y="684"/>
			<point x="356" y="700"/>
			<point x="325" y="700" type="curve" smooth="yes"/>
			<point x="291" y="700"/>
			<point x="279" y="680"/>
			<point x="275" y="654" type="curve" smooth="yes"/>
			<point x="198" y="147" type="line" smooth="yes"/>
			<point x="194" y="121"/>
			<point x="192" y="101"/>
			<point x="192" y="87" type="curve" smooth="yes"/>
			<point x="192" y="25"/>
			<point x="220" y="0"/>
		</contour>
		<contour>
			<point x="15" y="0" type="line"/>
			<point x="60" y="0"/>
			<point x="110" y="51"/>
			<point x="123" y="138" type="curve" smooth="yes"/>
			<point x="179" y="515" type="line" smooth="yes"/>
			<point x="186" y="563"/>
			<point x="192" y="605"/>
			<point x="192" y="621" type="curve" smooth="yes"/>
			<point x="192" y="663"/>
			<point x="170" y="700"/>
			<point x="118" y="700" type="curve" smooth="yes"/>
			<point x="90" y="700" type="line"/>
			<point x="40" y="500" type="line"/>
			<point x="68" y="500" type="line" smooth="yes"/>
			<point x="96" y="500"/>
			<point x="118" y="488"/>
			<point x="118" y="443" type="curve" smooth="yes"/>
			<point x="118" y="436"/>
			<point x="117" y="427"/>
			<point x="116" y="418" type="curve" smooth="yes"/>
			<point x="96" y="275" type="line" smooth="yes"/>
			<point x="89" y="223"/>
			<point x="70" y="200"/>
			<point x="31" y="200" type="curve" smooth="yes"/>
			<point x="15" y="200" type="line"/>
		</contour>
		<contour>
			<point x="101" y="30" type="curve"/>
			<point x="184" y="30" type="line"/>
			<point x="179" y="40"/>
			<point x="174" y="52"/>
			<point x="174" y="74" type="curve" smooth="yes"/>
			<point x="174" y="91"/>
			<point x="177" y="121"/>
			<point x="181" y="146" type="curve" smooth="yes"/>
			<point x="261" y="670" type="line"/>
			<point x="201" y="670" type="line"/>
			<point x="207" y="657"/>
			<point x="209" y="647"/>
			<point x="209" y="631" type="curve" smooth="yes"/>
			<point x="209" y="604"/>
			<point x="203" y="563"/>
			<point x="196" y="515" type="curve" smooth="yes"/>
			<point x="139" y="137" type="line" smooth="yes"/>
			<point x="130" y="79"/>
			<point x="113" y="50"/>
		</contour>
		<contour>
			<point x="699" y="30" type="curve"/>
			<point x="783" y="30" type="line"/>
			<point x="767" y="51"/>
			<point x="754" y="75"/>
			<point x="745" y="137" type="curve" smooth="yes"/>
			<point x="688" y="515" type="line" smooth="yes"/>
			<point x="681" y="562"/>
			<point x="675" y="604"/>
			<point x="675" y="631" type="curve" smooth="yes"/>
			<point x="675" y="647"/>
			<point x="677" y="657"/>
			<point x="683" y="670" type="curve"/>
			<point x="623" y="670" type="line"/>
			<point x="703" y="146" type="line" smooth="yes"/>
			<point x="707" y="121"/>
			<point x="710" y="100"/>
			<point x="710" y="79" type="curve" smooth="yes"/>
			<point x="710" y="58"/>
			<point x="706" y="45"/>
		</contour>
		<contour>
			<point x="869" y="0" type="curve"/>
			<point x="869" y="200" type="line"/>
			<point x="853" y="200" type="line" smooth="yes"/>
			<point x="814" y="200"/>
			<point x="795" y="223"/>
			<point x="788" y="275" type="curve" smooth="yes"/>
			<point x="768" y="418" type="line" smooth="yes"/>
			<point x="767" y="427"/>
			<point x="766" y="436"/>
			<point x="766" y="443" type="curve" smooth="yes"/>
			<point x="766" y="488"/>
			<point x="788" y="500"/>
			<point x="816" y="500" type="curve" smooth="yes"/>
			<point x="844" y="500" type="line"/>
			<point x="794" y="700" type="line"/>
			<point x="766" y="700" type="line" smooth="yes"/>
			<point x="714" y="700"/>
			<point x="692" y="663"/>
			<point x="692" y="621" type="curve" smooth="yes"/>
			<point x="692" y="604"/>
			<point x="698" y="563"/>
			<point x="705" y="515" type="curve" smooth="yes"/>
			<point x="761" y="138" type="line" smooth="yes"/>
			<point x="774" y="51"/>
			<point x="824" y="0"/>
		</contour>
	</outline>
</glyph>
<glyph name="N" format="2">
	<advance width="752"/>
	<unicode hex="004E"/>
	<anchor x="376" y="0" name="bottom"/>
	<anchor x="376" y="700" name="top"/>
	<outline>
		<contour>
			<point x="330" y="0" type="curve" smooth="yes"/>
			<point x="335" y="0" type="line"/>
			<point x="335" y="200" type="line"/>
			<point x="323" y="200" type="line" smooth="yes"/>
			<point x="301" y="200"/>
			<point x="287" y="222"/>
			<point x="287" y="273" type="curve" smooth="yes"/>
			<point x="287" y="413" type="line" smooth="yes"/>
			<point x="287" y="455"/>
			<point x="297" y="468"/>
			<point x="311" y="468" type="curve" smooth="yes"/>
			<point x="322" y="468"/>
			<point x="336" y="455"/>
			<point x="343" y="417" type="curve" smooth="yes"/>
			<point x="406" y="98" type="line" smooth="yes"/>
			<point x="420" y="29"/>
			<point x="447" y="0"/>
			<point x="480" y="0" type="curve" smooth="yes"/>
			<point x="510" y="0"/>
			<point x="540" y="15"/>
			<point x="540" y="118" type="curve" smooth="yes"/>
			<point x="540" y="582" type="line" smooth="yes"/>
			<point x="540" y="669"/>
			<point x="507" y="700"/>
			<point x="437" y="700" type="curve" smooth="yes"/>
			<point x="428" y="700" type="line"/>
			<point x="428" y="500" type="line"/>
			<point x="439" y="500" type="line" smooth="yes"/>
			<point x="480" y="500"/>
			<point x="490" y="483"/>
			<point x="490" y="415" type="curve" smooth="yes"/>
			<point x="490" y="281" type="line" smooth="yes"/>
			<point x="490" y="243"/>
			<point x="478" y="232"/>
			<point x="461" y="232" type="curve" smooth="yes"/>
			<point x="445" y="232"/>
			<point x="426" y="249"/>
			<point x="420" y="283" type="curve" smooth="yes"/>
			<point x="361" y="592" type="line" smooth="yes"/>
			<point x="348" y="662"/>
			<point x="331" y="700"/>
			<point x="296" y="700" type="curve" smooth="yes"/>
			<point x="261" y="700"/>
			<point x="237" y="669"/>
			<point x="237" y="582" type="curve" smooth="yes"/>
			<point x="237" y="138" type="line" smooth="yes"/>
			<point x="237" y="42"/>
			<point x="264" y="0"/>
		</contour>
		<contour>
			<point x="40" y="0" type="line"/>
			<point x="69" y="0" type="line" smooth="yes"/>
			<point x="131" y="0"/>
			<point x="167" y="42"/>
			<point x="167" y="138" type="curve" smooth="yes"/>
			<point x="167" y="582" type="line" smooth="yes"/>
			<point x="167" y="669"/>
			<point x="124" y="700"/>
			<point x="69" y="700" type="curve" smooth="yes"/>
			<point x="40" y="700" type="line"/>
			<point x="40" y="500" type="line"/>
			<point x="51" y="500" type="line" smooth="yes"/>
			<point x="99" y="500"/>
			<point x="117" y="483"/>
			<point x="117" y="415" type="curve" smooth="yes"/>
			<point x="117" y="273" type="line" smooth="yes"/>
			<point x="117" y="222"/>
			<point x="95" y="200"/>
			<point x="56" y="200" type="curve" smooth="yes"/>
			<point x="40" y="200" type="line"/>
		</contour>
		<contour>
			<point x="164" y="30" type="curve"/>
			<point x="240" y="30" type="line"/>
			<point x="227" y="51"/>
			<point x="222" y="78"/>
			<point x="222" y="119" type="curve" smooth="yes"/>
			<point x="222" y="581" type="line" smooth="yes"/>
			<point x="222" y="622"/>
			<point x="225" y="649"/>
			<point x="234" y="670" type="curve"/>
			<point x="164" y="670" type="line"/>
			<point x="177" y="649"/>
			<point x="182" y="622"/>
			<point x="182" y="581" type="curve" smooth="yes"/>
			<point x="182" y="119" type="line" smooth="yes"/>
			<point x="182" y="78"/>
			<point x="177" y="51"/>
		</contour>
		<contour>
			<point x="529" y="0" type="curve"/>
			<point x="570" y="0" type="line"/>
			<point x="590" y="29"/>
			<point x="595" y="60"/>
			<point x="595" y="122" type="curve" smooth="yes"/>
			<point x="595" y="581" type="line" smooth="yes"/>
			<point x="595" y="622"/>
			<point x="600" y="649"/>
			<point x="613" y="670" type="curve"/>
			<point x="537" y="670" type="line"/>
			<point x="550" y="649"/>
			<point x="555" y="622"/>
			<point x="555" y="581" type="curve" smooth="yes"/>
			<point x="555" y="119" type="line" smooth="yes"/>
			<point x="555" y="58"/>
			<point x="553" y="30"/>
		</contour>
		<contour>
			<point x="588" y="0" type="curve"/>
			<point x="632" y="0"/>
			<point x="660" y="40"/>
			<point x="660" y="153" type="curve" smooth="yes"/>
			<point x="660" y="415" type="line" smooth="yes"/>
			<point x="660" y="483"/>
			<point x="678" y="500"/>
			<point x="726" y="500" type="curve" smooth="yes"/>
			<point x="737" y="500" type="line"/>
			<point x="737" y="700" type="line"/>
			<point x="708" y="700" type="line" smooth="yes"/>
			<point x="652" y="700"/>
			<point x="610" y="669"/>
			<point x="610" y="582" type="curve" smooth="yes"/>
			<point x="610" y="127" type="line" smooth="yes"/>
			<point x="610" y="61"/>
			<point x="607" y="30"/>
		</contour>
	</outline>
</glyph>
<glyph name="O" format="2">
	<advance width="684"/>
	<unicode hex="004F"/>
	<anchor x="342" y="0" name="bottom"/>
	<anchor x="342" y="350" name="center"/>
	<anchor x="620" y="10" name="ogonek"/>
	<anchor x="342" y="700" name="top"/>
	<anchor x="15" y="700" name="topleft"/>
	<anchor x="669" y="700" name="topright"/>
	<outline>
		<contour>
			<point x="342" y="-10" type="curve" smooth="yes"/>
			<point x="461" y="-10"/>
			<point x="533" y="34"/>
			<point x="533" y="183" type="curve" smooth="yes"/>
			<point x="533" y="517" type="line" smooth="yes"/>
			<point x="533" y="666"/>
			<point x="461" y="710"/>
			<point x="342" y="710" type="curve" smooth="yes"/>
			<point x="223" y="710"/>
			<point x="151" y="666"/>
			<point x="151" y="517" type="curve" smooth="yes"/>
			<point x="151" y="183" type="line" smooth="yes"/>
			<point x="151" y="34"/>
			<point x="223" y="-10"/>
		</contour>
		<contour>
			<point x="89" y="107" type="curve"/>
			<point x="84" y="125"/>
			<point x="81" y="154"/>
			<point x="81" y="190" type="curve" smooth="yes"/>
			<point x="81" y="510" type="line" smooth="yes"/>
			<point x="81" y="546"/>
			<point x="84" y="575"/>
			<point x="89" y="593" type="curve"/>
			<point x="45" y="565"/>
			<point x="25" y="503"/>
			<point x="25" y="388" type="curve" smooth="yes"/>
			<point x="25" y="312" type="line" smooth="yes"/>
			<point x="25" y="197"/>
			<point x="45" y="135"/>
		</contour>
		<contour>
			<point x="153" y="70" type="curve"/>
			<point x="142" y="95"/>
			<point x="136" y="126"/>
			<point x="136" y="172" type="curve" smooth="yes"/>
			<point x="136" y="528" type="line" smooth="yes"/>
			<point x="136" y="574"/>
			<point x="142" y="605"/>
			<point x="153" y="630" type="curve"/>
			<point x="116" y="625"/>
			<point x="96" y="593"/>
			<point x="96" y="520" type="curve" smooth="yes"/>
			<point x="96" y="180" type="line" smooth="yes"/>
			<point x="96" y="107"/>
			<point x="116" y="75"/>
		</contour>
		<contour>
			<point x="357" y="190" type="curve" smooth="yes"/>
			<point x="327" y="190" type="line"/>
			<point x="265" y="190"/>
			<point x="206" y="227"/>
			<point x="206" y="300" type="curve" smooth="yes"/>
			<point x="206" y="400" type="line" smooth="yes"/>
			<point x="206" y="473"/>
			<point x="265" y="510"/>
			<point x="327" y="510" type="curve" smooth="yes"/>
			<point x="357" y="510" type="line" smooth="yes"/>
			<point x="419" y="510"/>
			<point x="478" y="473"/>
			<point x="478" y="400" type="curve" smooth="yes"/>
			<point x="478" y="300" type="line" smooth="yes"/>
			<point x="478" y="227"/>
			<point x="419" y="190"/>
		</contour>
		<contour>
			<point x="531" y="70" type="curve"/>
			<point x="568" y="75"/>
			<point x="588" y="107"/>
			<point x="588" y="180" type="curve" smooth="yes"/>
			<point x="588" y="520" type="line" smooth="yes"/>
			<point x="588" y="593"/>
			<point x="568" y="625"/>
			<point x="531" y="630" type="curve"/>
			<point x="542" y="605"/>
			<point x="548" y="574"/>
			<point x="548" y="528" type="curve" smooth="yes"/>
			<point x="548" y="172" type="line" smooth="yes"/>
			<point x="548" y="126"/>
			<point x="542" y="95"/>
		</contour>
		<contour>
			<point x="595" y="107" type="curve"/>
			<point x="639" y="135"/>
			<point x="659" y="197"/>
			<point x="659" y="312" type="curve" smooth="yes"/>
			<point x="659" y="388" type="line" smooth="yes"/>
			<point x="659" y="503"/>
			<point x="639" y="565"/>
			<point x="595" y="593" type="curve"/>
			<point x="600" y="575"/>
			<point x="603" y="546"/>
			<point x="603" y="510" type="curve" smooth="yes"/>
			<point x="603" y="190" type="line" smooth="yes"/>
			<point x="603" y="154"/>
			<point x="600" y="125"/>
		</contour>
	</outline>
</glyph>
<glyph name="P" format="2">
	<advance width="624"/>
	<unicode hex="0050"/>
	<outline>
		<contour>
			<point x="325" y="0" type="curve" smooth="yes"/>
			<point x="402" y="0" type="line"/>
			<point x="402" y="200" type="line"/>
			<point x="318" y="200" type="line" smooth="yes"/>
			<point x="286" y="200"/>
			<point x="272" y="222"/>
			<point x="272" y="273" type="curve" smooth="yes"/>
			<point x="272" y="413" type="line" smooth="yes"/>
			<point x="272" y="482"/>
			<point x="290" y="505"/>
			<point x="331" y="505" type="curve" smooth="yes"/>
			<point x="405" y="505" type="line" smooth="yes"/>
			<point x="464" y="505"/>
			<point x="494" y="482"/>
			<point x="494" y="430" type="curve" smooth="yes"/>
			<point x="494" y="405" type="line" smooth="yes"/>
			<point x="494" y="364"/>
			<point x="478" y="342"/>
			<point x="439" y="342" type="curve" smooth="yes"/>
			<point x="249" y="342" type="line"/>
			<point x="249" y="292" type="line"/>
			<point x="439" y="292" type="line" smooth="yes"/>
			<point x="505" y="292"/>
			<point x="544" y="334"/>
			<point x="544" y="410" type="curve" smooth="yes"/>
			<point x="544" y="566" type="line" smooth="yes"/>
			<point x="544" y="659"/>
			<point x="493" y="700"/>
			<point x="393" y="700" type="curve" smooth="yes"/>
			<point x="325" y="700" type="line" smooth="yes"/>
			<point x="259" y="700"/>
			<point x="222" y="669"/>
			<point x="222" y="582" type="curve" smooth="yes"/>
			<point x="222" y="138" type="line" smooth="yes"/>
			<point x="222" y="42"/>
			<point x="254" y="0"/>
		</contour>
		<contour>
			<point x="40" y="0" type="line"/>
			<point x="49" y="0" type="line" smooth="yes"/>
			<point x="120" y="0"/>
			<point x="152" y="42"/>
			<point x="152" y="138" type="curve" smooth="yes"/>
			<point x="152" y="582" type="line" smooth="yes"/>
			<point x="152" y="669"/>
			<point x="114" y="700"/>
			<point x="49" y="700" type="curve" smooth="yes"/>
			<point x="40" y="700" type="line"/>
			<point x="40" y="500" type="line"/>
			<point x="51" y="500" type="line" smooth="yes"/>
			<point x="92" y="500"/>
			<point x="102" y="483"/>
			<point x="102" y="415" type="curve" smooth="yes"/>
			<point x="102" y="273" type="line" smooth="yes"/>
			<point x="102" y="222"/>
			<point x="88" y="200"/>
			<point x="56" y="200" type="curve" smooth="yes"/>
			<point x="40" y="200" type="line"/>
		</contour>
		<contour>
			<point x="149" y="30" type="curve"/>
			<point x="225" y="30" type="line"/>
			<point x="212" y="51"/>
			<point x="207" y="78"/>
			<point x="207" y="119" type="curve" smooth="yes"/>
			<point x="207" y="581" type="line" smooth="yes"/>
			<point x="207" y="622"/>
			<point x="212" y="649"/>
			<point x="225" y="670" type="curve"/>
			<point x="149" y="670" type="line"/>
			<point x="162" y="649"/>
			<point x="167" y="622"/>
			<point x="167" y="581" type="curve" smooth="yes"/>
			<point x="167" y="119" type="line" smooth="yes"/>
			<point x="167" y="78"/>
			<point x="162" y="51"/>
		</contour>
		<contour>
			<point x="549" y="325" type="curve"/>
			<point x="589" y="340"/>
			<point x="614" y="397"/>
			<point x="614" y="485" type="curve" smooth="yes"/>
			<point x="614" y="573"/>
			<point x="589" y="624"/>
			<point x="549" y="638" type="curve"/>
			<point x="554" y="623"/>
			<point x="559" y="589"/>
			<point x="559" y="556" type="curve" smooth="yes"/>
			<point x="559" y="407" type="line" smooth="yes"/>
			<point x="559" y="374"/>
			<point x="555" y="340"/>
		</contour>
	</outline>
</glyph>
<glyph name="Q" format="2">
	<advance width="722"/>
	<unicode hex="0051"/>
	<outline>
		<contour>
			<point x="340" y="0" type="curve" smooth="yes"/>
			<point x="536" y="0" type="line" smooth="yes"/>
			<point x="645" y="0"/>
			<point x="712" y="42"/>
			<point x="712" y="217" type="curve" smooth="yes"/>
			<point x="712" y="256" type="line"/>
			<point x="666" y="256" type="line"/>
			<point x="646" y="201"/>
			<point x="582" y="175"/>
			<point x="501" y="175" type="curve" smooth="yes"/>
			<point x="411" y="175" type="line"/>
			<point x="432" y="162" type="line"/>
			<point x="482" y="180"/>
			<point x="533" y="208"/>
			<point x="533" y="312" type="curve" smooth="yes"/>
			<point x="533" y="517" type="line" smooth="yes"/>
			<point x="533" y="666"/>
			<point x="461" y="710"/>
			<point x="342" y="710" type="curve" smooth="yes"/>
			<point x="223" y="710"/>
			<point x="151" y="666"/>
			<point x="151" y="517" type="curve" smooth="yes"/>
			<point x="151" y="183" type="line" smooth="yes"/>
			<point x="151" y="34"/>
			<point x="221" y="0"/>
		</contour>
		<contour>
			<point x="89" y="107" type="curve"/>
			<point x="84" y="125"/>
			<point x="81" y="154"/>
			<point x="81" y="190" type="curve" smooth="yes"/>
			<point x="81" y="510" type="line" smooth="yes"/>
			<point x="81" y="546"/>
			<point x="84" y="575"/>
			<point x="89" y="593" type="curve"/>
			<point x="45" y="565"/>
			<point x="25" y="503"/>
			<point x="25" y="388" type="curve" smooth="yes"/>
			<point x="25" y="312" type="line" smooth="yes"/>
			<point x="25" y="197"/>
			<point x="45" y="135"/>
		</contour>
		<contour>
			<point x="153" y="70" type="curve"/>
			<point x="142" y="95"/>
			<point x="136" y="126"/>
			<point x="136" y="172" type="curve" smooth="yes"/>
			<point x="136" y="528" type="line" smooth="yes"/>
			<point x="136" y="574"/>
			<point x="142" y="605"/>
			<point x="153" y="630" type="curve"/>
			<point x="116" y="625"/>
			<point x="96" y="593"/>
			<point x="96" y="520" type="curve" smooth="yes"/>
			<point x="96" y="180" type="line" smooth="yes"/>
			<point x="96" y="107"/>
			<point x="116" y="75"/>
		</contour>
		<contour>
			<point x="357" y="195" type="curve" smooth="yes"/>
			<point x="327" y="195" type="line"/>
			<point x="265" y="195"/>
			<point x="206" y="232"/>
			<point x="206" y="305" type="curve" smooth="yes"/>
			<point x="206" y="405" type="line" smooth="yes"/>
			<point x="206" y="478"/>
			<point x="265" y="515"/>
			<point x="327" y="515" type="curve" smooth="yes"/>
			<point x="357" y="515" type="line" smooth="yes"/>
			<point x="419" y="515"/>
			<point x="478" y="478"/>
			<point x="478" y="405" type="curve" smooth="yes"/>
			<point x="478" y="305" type="line" smooth="yes"/>
			<point x="478" y="232"/>
			<point x="416" y="195"/>
		</contour>
		<contour>
			<point x="531" y="206" type="curve"/>
			<point x="568" y="211"/>
			<point x="588" y="243"/>
			<point x="588" y="316" type="curve" smooth="yes"/>
			<point x="588" y="520" type="line" smooth="yes"/>
			<point x="588" y="593"/>
			<point x="568" y="625"/>
			<point x="531" y="630" type="curve"/>
			<point x="542" y="605"/>
			<point x="548" y="574"/>
			<point x="548" y="528" type="curve" smooth="yes"/>
			<point x="548" y="308" type="line" smooth="yes"/>
			<point x="548" y="262"/>
			<point x="542" y="231"/>
		</contour>
		<contour>
			<point x="595" y="243" type="curve"/>
			<point x="641" y="275"/>
			<point x="659" y="327"/>
			<point x="659" y="418" type="curve" smooth="yes"/>
			<point x="659" y="503"/>
			<point x="639" y="565"/>
			<point x="595" y="593" type="curve"/>
			<point x="600" y="575"/>
			<point x="603" y="546"/>
			<point x="603" y="510" type="curve" smooth="yes"/>
			<point x="603" y="326" type="line" smooth="yes"/>
			<point x="603" y="290"/>
			<point x="600" y="261"/>
		</contour>
	</outline>
</glyph>
<glyph name="R" format="2">
	<advance width="647"/>
	<unicode hex="0052"/>
	<anchor x="350" y="0" name="bottom"/>
	<anchor x="341" y="700" name="top"/>
	<outline>
		<contour>
			<point x="325" y="0" type="curve" smooth="yes"/>
			<point x="334" y="0" type="line"/>
			<point x="334" y="200" type="line"/>
			<point x="318" y="200" type="line" smooth="yes"/>
			<point x="286" y="200"/>
			<point x="272" y="222"/>
			<point x="272" y="273" type="curve" smooth="yes"/>
			<point x="272" y="433" type="line" smooth="yes"/>
			<point x="272" y="482"/>
			<point x="282" y="498"/>
			<point x="323" y="498" type="curve" smooth="yes"/>
			<point x="386" y="498" type="line" smooth="yes"/>
			<point x="434" y="498"/>
			<point x="452" y="481"/>
			<point x="452" y="433" type="curve" smooth="yes"/>
			<point x="452" y="405" type="line" smooth="yes"/>
			<point x="452" y="374"/>
			<point x="430" y="352"/>
			<point x="391" y="352" type="curve" smooth="yes"/>
			<point x="254" y="352" type="line"/>
			<point x="254" y="302" type="line"/>
			<point x="404" y="302" type="line" smooth="yes"/>
			<point x="466" y="302"/>
			<point x="502" y="334"/>
			<point x="502" y="420" type="curve" smooth="yes"/>
			<point x="502" y="582" type="line" smooth="yes"/>
			<point x="502" y="669"/>
			<point x="459" y="700"/>
			<point x="404" y="700" type="curve" smooth="yes"/>
			<point x="325" y="700" type="line" smooth="yes"/>
			<point x="254" y="700"/>
			<point x="222" y="669"/>
			<point x="222" y="582" type="curve" smooth="yes"/>
			<point x="222" y="138" type="line" smooth="yes"/>
			<point x="222" y="42"/>
			<point x="249" y="0"/>
		</contour>
		<contour>
			<point x="40" y="0" type="line"/>
			<point x="49" y="0" type="line" smooth="yes"/>
			<point x="120" y="0"/>
			<point x="152" y="42"/>
			<point x="152" y="138" type="curve" smooth="yes"/>
			<point x="152" y="582" type="line" smooth="yes"/>
			<point x="152" y="669"/>
			<point x="114" y="700"/>
			<point x="49" y="700" type="curve" smooth="yes"/>
			<point x="40" y="700" type="line"/>
			<point x="40" y="500" type="line"/>
			<point x="51" y="500" type="line" smooth="yes"/>
			<point x="92" y="500"/>
			<point x="102" y="486"/>
			<point x="102" y="415" type="curve" smooth="yes"/>
			<point x="102" y="273" type="line" smooth="yes"/>
			<point x="102" y="222"/>
			<point x="88" y="200"/>
			<point x="56" y="200" type="curve" smooth="yes"/>
			<point x="40" y="200" type="line"/>
		</contour>
		<contour>
			<point x="149" y="30" type="curve"/>
			<point x="225" y="30" type="line"/>
			<point x="212" y="51"/>
			<point x="207" y="78"/>
			<point x="207" y="119" type="curve" smooth="yes"/>
			<point x="207" y="581" type="line" smooth="yes"/>
			<point x="207" y="622"/>
			<point x="212" y="649"/>
			<point x="225" y="670" type="curve"/>
			<point x="149" y="670" type="line"/>
			<point x="162" y="649"/>
			<point x="167" y="622"/>
			<point x="167" y="581" type="curve" smooth="yes"/>
			<point x="167" y="119" type="line" smooth="yes"/>
			<point x="167" y="78"/>
			<point x="162" y="51"/>
		</contour>
		<contour>
			<point x="509" y="0" type="curve" smooth="yes"/>
			<point x="547" y="0" type="line" smooth="yes"/>
			<point x="588" y="0"/>
			<point x="625" y="36"/>
			<point x="625" y="97" type="curve" smooth="yes"/>
			<point x="625" y="276" type="line"/>
			<point x="575" y="276" type="line"/>
			<point x="575" y="217"/>
			<point x="547" y="200"/>
			<point x="513" y="200" type="curve" smooth="yes"/>
			<point x="500" y="200" type="line" smooth="yes"/>
			<point x="461" y="200"/>
			<point x="443" y="208"/>
			<point x="430" y="245" type="curve" smooth="yes"/>
			<point x="401" y="327" type="line"/>
			<point x="352" y="327" type="line"/>
			<point x="419" y="98" type="line" smooth="yes"/>
			<point x="438" y="34"/>
			<point x="464" y="0"/>
		</contour>
		<contour>
			<point x="494" y="325" type="curve"/>
			<point x="534" y="335"/>
			<point x="557" y="357"/>
			<point x="557" y="425" type="curve" smooth="yes"/>
			<point x="557" y="564" type="line" smooth="yes"/>
			<point x="557" y="652"/>
			<point x="538" y="676"/>
			<point x="495" y="684" type="curve"/>
			<point x="517" y="651"/>
			<point x="517" y="619"/>
			<point x="517" y="574" type="curve" smooth="yes"/>
			<point x="517" y="435" type="line" smooth="yes"/>
			<point x="517" y="370"/>
			<point x="511" y="347"/>
		</contour>
		<contour>
			<point x="562" y="351" type="curve"/>
			<point x="602" y="366"/>
			<point x="627" y="413"/>
			<point x="627" y="501" type="curve" smooth="yes"/>
			<point x="627" y="589"/>
			<point x="602" y="640"/>
			<point x="562" y="654" type="curve"/>
			<point x="567" y="639"/>
			<point x="572" y="605"/>
			<point x="572" y="572" type="curve" smooth="yes"/>
			<point x="572" y="433" type="line" smooth="yes"/>
			<point x="572" y="400"/>
			<point x="568" y="366"/>
		</contour>
	</outline>
</glyph>
<glyph name="S" format="2">
	<advance width="489"/>
	<unicode hex="0053"/>
	<outline>
		<contour>
			<point x="341" y="10" type="curve"/>
			<point x="382" y="10"/>
			<point x="413" y="46"/>
			<point x="413" y="131" type="curve" smooth="yes"/>
			<point x="413" y="169" type="line" smooth="yes"/>
			<point x="413" y="234"/>
			<point x="405" y="279"/>
			<point x="361" y="312" type="curve" smooth="yes"/>
			<point x="173" y="451" type="line" smooth="yes"/>
			<point x="135" y="479"/>
			<point x="121" y="515"/>
			<point x="121" y="579" type="curve" smooth="yes"/>
			<point x="121" y="653"/>
			<point x="138" y="677"/>
			<point x="159" y="693" type="curve"/>
			<point x="109" y="693"/>
			<point x="81" y="666"/>
			<point x="81" y="578" type="curve" smooth="yes"/>
			<point x="81" y="480"/>
			<point x="96" y="453"/>
			<point x="153" y="412" type="curve" smooth="yes"/>
			<point x="325" y="287" type="line" smooth="yes"/>
			<point x="356" y="265"/>
			<point x="373" y="243"/>
			<point x="373" y="169" type="curve" smooth="yes"/>
			<point x="373" y="126" type="line" smooth="yes"/>
			<point x="373" y="61"/>
			<point x="360" y="31"/>
		</contour>
		<contour>
			<point x="160" y="0" type="curve" smooth="yes"/>
			<point x="265" y="0" type="line" smooth="yes"/>
			<point x="325" y="0"/>
			<point x="358" y="55"/>
			<point x="358" y="126" type="curve" smooth="yes"/>
			<point x="358" y="151" type="line" smooth="yes"/>
			<point x="358" y="189"/>
			<point x="355" y="216"/>
			<point x="347" y="234" type="curve"/>
			<point x="338" y="199"/>
			<point x="297" y="195"/>
			<point x="260" y="195" type="curve" smooth="yes"/>
			<point x="180" y="195" type="line" smooth="yes"/>
			<point x="113" y="195"/>
			<point x="80" y="215"/>
			<point x="80" y="287" type="curve"/>
			<point x="30" y="287" type="line"/>
			<point x="30" y="151" type="line" smooth="yes"/>
			<point x="30" y="56"/>
			<point x="91" y="0"/>
		</contour>
		<contour>
			<point x="412" y="34" type="curve"/>
			<point x="449" y="41"/>
			<point x="474" y="81"/>
			<point x="474" y="173" type="curve" smooth="yes"/>
			<point x="474" y="273"/>
			<point x="423" y="332"/>
			<point x="349" y="344" type="curve"/>
			<point x="375" y="322" type="line" smooth="yes"/>
			<point x="416" y="288"/>
			<point x="428" y="244"/>
			<point x="428" y="185" type="curve" smooth="yes"/>
			<point x="428" y="131" type="line" smooth="yes"/>
			<point x="428" y="70"/>
			<point x="423" y="53"/>
		</contour>
		<contour>
			<point x="163" y="384" type="curve"/>
			<point x="136" y="405" type="line" smooth="yes"/>
			<point x="85" y="445"/>
			<point x="66" y="474"/>
			<point x="66" y="566" type="curve" smooth="yes"/>
			<point x="66" y="614"/>
			<point x="70" y="643"/>
			<point x="79" y="662" type="curve"/>
			<point x="47" y="654"/>
			<point x="20" y="630"/>
			<point x="20" y="544" type="curve" smooth="yes"/>
			<point x="20" y="452"/>
			<point x="84" y="399"/>
		</contour>
		<contour>
			<point x="402" y="439" type="curve"/>
			<point x="452" y="439" type="line"/>
			<point x="452" y="539" type="line" smooth="yes"/>
			<point x="452" y="664"/>
			<point x="391" y="710"/>
			<point x="272" y="710" type="curve" smooth="yes"/>
			<point x="256" y="710" type="line" smooth="yes"/>
			<point x="175" y="710"/>
			<point x="136" y="664"/>
			<point x="136" y="579" type="curve" smooth="yes"/>
			<point x="136" y="522"/>
			<point x="154" y="486"/>
			<point x="182" y="464" type="curve"/>
			<point x="185" y="508"/>
			<point x="229" y="510"/>
			<point x="268" y="510" type="curve" smooth="yes"/>
			<point x="316" y="510" type="line" smooth="yes"/>
			<point x="353" y="510"/>
			<point x="402" y="498"/>
		</contour>
	</outline>
</glyph>
<glyph name="T" format="2">
	<advance width="548"/>
	<unicode hex="0054"/>
	<anchor x="274" y="0" name="bottom"/>
	<anchor x="274" y="350" name="center"/>
	<anchor x="274" y="700" name="top"/>
	<outline>
		<contour>
			<point x="422" y="0" type="curve" smooth="yes"/>
			<point x="441" y="0" type="line"/>
			<point x="441" y="200" type="line"/>
			<point x="415" y="200" type="line" smooth="yes"/>
			<point x="383" y="200"/>
			<point x="359" y="222"/>
			<point x="359" y="273" type="curve" smooth="yes"/>
			<point x="359" y="423" type="line" smooth="yes"/>
			<point x="359" y="481"/>
			<point x="369" y="500"/>
			<point x="406" y="500" type="curve" smooth="yes"/>
			<point x="435" y="500" type="line" smooth="yes"/>
			<point x="472" y="500"/>
			<point x="488" y="479"/>
			<point x="488" y="431" type="curve" smooth="yes"/>
			<point x="488" y="400" type="line"/>
			<point x="538" y="400" type="line"/>
			<point x="538" y="599" type="line" smooth="yes"/>
			<point x="538" y="671"/>
			<point x="504" y="700"/>
			<point x="448" y="700" type="curve" smooth="yes"/>
			<point x="412" y="700" type="line" smooth="yes"/>
			<point x="342" y="700"/>
			<point x="309" y="669"/>
			<point x="309" y="582" type="curve" smooth="yes"/>
			<point x="309" y="138" type="line" smooth="yes"/>
			<point x="309" y="42"/>
			<point x="346" y="0"/>
		</contour>
		<contour>
			<point x="107" y="0" type="line"/>
			<point x="126" y="0" type="line" smooth="yes"/>
			<point x="202" y="0"/>
			<point x="239" y="42"/>
			<point x="239" y="138" type="curve" smooth="yes"/>
			<point x="239" y="582" type="line" smooth="yes"/>
			<point x="239" y="669"/>
			<point x="206" y="700"/>
			<point x="136" y="700" type="curve" smooth="yes"/>
			<point x="100" y="700" type="line" smooth="yes"/>
			<point x="44" y="700"/>
			<point x="10" y="671"/>
			<point x="10" y="599" type="curve" smooth="yes"/>
			<point x="10" y="400" type="line"/>
			<point x="60" y="400" type="line"/>
			<point x="60" y="431" type="line" smooth="yes"/>
			<point x="60" y="479"/>
			<point x="76" y="500"/>
			<point x="113" y="500" type="curve" smooth="yes"/>
			<point x="142" y="500" type="line" smooth="yes"/>
			<point x="179" y="500"/>
			<point x="189" y="481"/>
			<point x="189" y="423" type="curve" smooth="yes"/>
			<point x="189" y="273" type="line" smooth="yes"/>
			<point x="189" y="222"/>
			<point x="165" y="200"/>
			<point x="133" y="200" type="curve" smooth="yes"/>
			<point x="107" y="200" type="line"/>
		</contour>
		<contour>
			<point x="236" y="30" type="curve"/>
			<point x="312" y="30" type="line"/>
			<point x="299" y="51"/>
			<point x="294" y="78"/>
			<point x="294" y="119" type="curve" smooth="yes"/>
			<point x="294" y="581" type="line" smooth="yes"/>
			<point x="294" y="622"/>
			<point x="299" y="649"/>
			<point x="312" y="670" type="curve"/>
			<point x="236" y="670" type="line"/>
			<point x="249" y="649"/>
			<point x="254" y="622"/>
			<point x="254" y="581" type="curve" smooth="yes"/>
			<point x="254" y="119" type="line" smooth="yes"/>
			<point x="254" y="78"/>
			<point x="249" y="51"/>
		</contour>
	</outline>
</glyph>
<glyph name="U" format="2">
	<advance width="688"/>
	<unicode hex="0055"/>
	<anchor x="344" y="0" name="bottom"/>
	<anchor x="647" y="10" name="ogonek"/>
	<anchor x="344" y="700" name="top"/>
	<anchor x="703" y="700" name="topright"/>
	<outline>
		<contour>
			<point x="344" y="-10" type="curve" smooth="yes"/>
			<point x="459" y="-10"/>
			<point x="486" y="32"/>
			<point x="486" y="128" type="curve" smooth="yes"/>
			<point x="486" y="582" type="line" smooth="yes"/>
			<point x="486" y="669"/>
			<point x="453" y="700"/>
			<point x="383" y="700" type="curve" smooth="yes"/>
			<point x="374" y="700" type="line"/>
			<point x="374" y="500" type="line"/>
			<point x="385" y="500" type="line" smooth="yes"/>
			<point x="426" y="500"/>
			<point x="436" y="483"/>
			<point x="436" y="415" type="curve" smooth="yes"/>
			<point x="436" y="285" type="line" smooth="yes"/>
			<point x="436" y="224"/>
			<point x="412" y="192"/>
			<point x="360" y="192" type="curve" smooth="yes"/>
			<point x="328" y="192" type="line" smooth="yes"/>
			<point x="276" y="192"/>
			<point x="252" y="224"/>
			<point x="252" y="285" type="curve" smooth="yes"/>
			<point x="252" y="415" type="line" smooth="yes"/>
			<point x="252" y="484"/>
			<point x="262" y="500"/>
			<point x="303" y="500" type="curve" smooth="yes"/>
			<point x="314" y="500" type="line"/>
			<point x="314" y="700" type="line"/>
			<point x="305" y="700" type="line" smooth="yes"/>
			<point x="234" y="700"/>
			<point x="202" y="669"/>
			<point x="202" y="582" type="curve" smooth="yes"/>
			<point x="202" y="128" type="line" smooth="yes"/>
			<point x="202" y="32"/>
			<point x="229" y="-10"/>
		</contour>
		<contour>
			<point x="132" y="88" type="curve"/>
			<point x="132" y="582" type="line" smooth="yes"/>
			<point x="132" y="669"/>
			<point x="90" y="700"/>
			<point x="34" y="700" type="curve" smooth="yes"/>
			<point x="15" y="700" type="line"/>
			<point x="15" y="500" type="line"/>
			<point x="26" y="500" type="line" smooth="yes"/>
			<point x="67" y="500"/>
			<point x="82" y="483"/>
			<point x="82" y="415" type="curve" smooth="yes"/>
			<point x="82" y="215" type="line" smooth="yes"/>
			<point x="82" y="127"/>
			<point x="98" y="101"/>
		</contour>
		<contour>
			<point x="205" y="30" type="curve"/>
			<point x="192" y="51"/>
			<point x="187" y="78"/>
			<point x="187" y="119" type="curve" smooth="yes"/>
			<point x="187" y="581" type="line" smooth="yes"/>
			<point x="187" y="622"/>
			<point x="192" y="649"/>
			<point x="205" y="670" type="curve"/>
			<point x="129" y="670" type="line"/>
			<point x="142" y="649"/>
			<point x="147" y="622"/>
			<point x="147" y="581" type="curve" smooth="yes"/>
			<point x="147" y="119" type="line" smooth="yes"/>
			<point x="147" y="50"/>
			<point x="174" y="30"/>
		</contour>
		<contour>
			<point x="483" y="30" type="curve"/>
			<point x="514" y="30"/>
			<point x="541" y="50"/>
			<point x="541" y="119" type="curve" smooth="yes"/>
			<point x="541" y="581" type="line" smooth="yes"/>
			<point x="541" y="622"/>
			<point x="546" y="649"/>
			<point x="559" y="670" type="curve"/>
			<point x="483" y="670" type="line"/>
			<point x="496" y="649"/>
			<point x="501" y="622"/>
			<point x="501" y="581" type="curve" smooth="yes"/>
			<point x="501" y="119" type="line" smooth="yes"/>
			<point x="501" y="78"/>
			<point x="496" y="51"/>
		</contour>
		<contour>
			<point x="556" y="582" type="curve" smooth="yes"/>
			<point x="556" y="88" type="line"/>
			<point x="590" y="101"/>
			<point x="606" y="127"/>
			<point x="606" y="215" type="curve" smooth="yes"/>
			<point x="606" y="415" type="line" smooth="yes"/>
			<point x="606" y="483"/>
			<point x="621" y="500"/>
			<point x="662" y="500" type="curve" smooth="yes"/>
			<point x="673" y="500" type="line"/>
			<point x="673" y="700" type="line"/>
			<point x="654" y="700" type="line" smooth="yes"/>
			<point x="598" y="700"/>
			<point x="556" y="669"/>
		</contour>
	</outline>
</glyph>
<glyph name="V" format="2">
	<advance width="705"/>
	<unicode hex="0056"/>
	<outline>
		<contour>
			<point x="352" y="0" type="curve" smooth="yes"/>
			<point x="361" y="0"/>
			<point x="368" y="9"/>
			<point x="374" y="30" type="curve" smooth="yes"/>
			<point x="525" y="553" type="line" smooth="yes"/>
			<point x="533" y="579"/>
			<point x="535" y="595"/>
			<point x="535" y="609" type="curve" smooth="yes"/>
			<point x="535" y="671"/>
			<point x="483" y="700"/>
			<point x="426" y="700" type="curve" smooth="yes"/>
			<point x="397" y="700" type="line"/>
			<point x="397" y="500" type="line"/>
			<point x="413" y="500" type="line" smooth="yes"/>
			<point x="432" y="500"/>
			<point x="446" y="483"/>
			<point x="446" y="455" type="curve" smooth="yes"/>
			<point x="446" y="446"/>
			<point x="445" y="436"/>
			<point x="442" y="425" type="curve" smooth="yes"/>
			<point x="400" y="278" type="line" smooth="yes"/>
			<point x="382" y="216"/>
			<point x="370" y="200"/>
			<point x="353" y="200" type="curve" smooth="yes"/>
			<point x="352" y="200" type="line" smooth="yes"/>
			<point x="335" y="200"/>
			<point x="323" y="216"/>
			<point x="305" y="278" type="curve" smooth="yes"/>
			<point x="263" y="425" type="line" smooth="yes"/>
			<point x="260" y="436"/>
			<point x="259" y="446"/>
			<point x="259" y="455" type="curve" smooth="yes"/>
			<point x="259" y="483"/>
			<point x="273" y="500"/>
			<point x="292" y="500" type="curve" smooth="yes"/>
			<point x="308" y="500" type="line"/>
			<point x="308" y="700" type="line"/>
			<point x="279" y="700" type="line" smooth="yes"/>
			<point x="222" y="700"/>
			<point x="170" y="671"/>
			<point x="170" y="609" type="curve" smooth="yes"/>
			<point x="170" y="595"/>
			<point x="173" y="579"/>
			<point x="180" y="553" type="curve" smooth="yes"/>
			<point x="331" y="30" type="line" smooth="yes"/>
			<point x="337" y="9"/>
			<point x="343" y="0"/>
		</contour>
		<contour>
			<point x="132" y="0" type="line"/>
			<point x="161" y="0" type="line" smooth="yes"/>
			<point x="208" y="0"/>
			<point x="236" y="37"/>
			<point x="236" y="78" type="curve" smooth="yes"/>
			<point x="236" y="106"/>
			<point x="228" y="137"/>
			<point x="214" y="184" type="curve" smooth="yes"/>
			<point x="105" y="557" type="line" smooth="yes"/>
			<point x="86" y="621"/>
			<point x="54" y="700"/>
			<point x="10" y="700" type="curve"/>
			<point x="10" y="500" type="line"/>
			<point x="26" y="500" type="line" smooth="yes"/>
			<point x="65" y="500"/>
			<point x="77" y="475"/>
			<point x="91" y="425" type="curve" smooth="yes"/>
			<point x="132" y="282" type="line" smooth="yes"/>
			<point x="138" y="262"/>
			<point x="140" y="247"/>
			<point x="140" y="235" type="curve" smooth="yes"/>
			<point x="140" y="208"/>
			<point x="126" y="200"/>
			<point x="103" y="200" type="curve" smooth="yes"/>
			<point x="82" y="200" type="line"/>
		</contour>
		<contour>
			<point x="241" y="30" type="curve"/>
			<point x="315" y="30" type="line"/>
			<point x="162" y="554" type="line" smooth="yes"/>
			<point x="155" y="579"/>
			<point x="152" y="597"/>
			<point x="152" y="615" type="curve" smooth="yes"/>
			<point x="152" y="639"/>
			<point x="158" y="656"/>
			<point x="164" y="670" type="curve"/>
			<point x="81" y="670" type="line"/>
			<point x="92" y="650"/>
			<point x="103" y="621"/>
			<point x="120" y="563" type="curve" smooth="yes"/>
			<point x="231" y="185" type="line" smooth="yes"/>
			<point x="245" y="136"/>
			<point x="252" y="103"/>
			<point x="252" y="81" type="curve" smooth="yes"/>
			<point x="252" y="59"/>
			<point x="247" y="43"/>
		</contour>
		<contour>
			<point x="543" y="554" type="curve" smooth="yes"/>
			<point x="390" y="30" type="line"/>
			<point x="464" y="30" type="line"/>
			<point x="458" y="43"/>
			<point x="453" y="59"/>
			<point x="453" y="81" type="curve" smooth="yes"/>
			<point x="453" y="103"/>
			<point x="460" y="136"/>
			<point x="474" y="185" type="curve" smooth="yes"/>
			<point x="585" y="563" type="line" smooth="yes"/>
			<point x="602" y="621"/>
			<point x="613" y="650"/>
			<point x="624" y="670" type="curve"/>
			<point x="541" y="670" type="line"/>
			<point x="547" y="656"/>
			<point x="553" y="639"/>
			<point x="553" y="615" type="curve" smooth="yes"/>
			<point x="553" y="597"/>
			<point x="550" y="579"/>
		</contour>
		<contour>
			<point x="544" y="0" type="curve" smooth="yes"/>
			<point x="573" y="0" type="line"/>
			<point x="623" y="200" type="line"/>
			<point x="602" y="200" type="line" smooth="yes"/>
			<point x="579" y="200"/>
			<point x="565" y="208"/>
			<point x="565" y="235" type="curve" smooth="yes"/>
			<point x="565" y="247"/>
			<point x="567" y="262"/>
			<point x="573" y="282" type="curve" smooth="yes"/>
			<point x="614" y="425" type="line" smooth="yes"/>
			<point x="628" y="475"/>
			<point x="640" y="500"/>
			<point x="679" y="500" type="curve" smooth="yes"/>
			<point x="695" y="500" type="line"/>
			<point x="695" y="700" type="line"/>
			<point x="652" y="700"/>
			<point x="620" y="625"/>
			<point x="600" y="557" type="curve" smooth="yes"/>
			<point x="490" y="184" type="line" smooth="yes"/>
			<point x="476" y="137"/>
			<point x="469" y="106"/>
			<point x="469" y="77" type="curve" smooth="yes"/>
			<point x="469" y="37"/>
			<point x="497" y="0"/>
		</contour>
	</outline>
</glyph>
<glyph name="W" format="2">
	<advance width="894"/>
	<unicode hex="0057"/>
	<anchor x="447" y="0" name="bottom"/>
	<anchor x="447" y="700" name="top"/>
	<outline>
		<contour>
			<point x="335" y="0" type="curve" smooth="yes"/>
			<point x="361" y="0"/>
			<point x="377" y="16"/>
			<point x="380" y="46" type="curve" smooth="yes"/>
			<point x="417" y="415" type="line" smooth="yes"/>
			<point x="420" y="449"/>
			<point x="433" y="463"/>
			<point x="447" y="463" type="curve" smooth="yes"/>
			<point x="461" y="463"/>
			<point x="474" y="449"/>
			<point x="477" y="415" type="curve" smooth="yes"/>
			<point x="514" y="46" type="line" smooth="yes"/>
			<point x="517" y="16"/>
			<point x="533" y="0"/>
			<point x="559" y="0" type="curve" smooth="yes"/>
			<point x="585" y="0"/>
			<point x="598" y="17"/>
			<point x="604" y="46" type="curve" smooth="yes"/>
			<point x="704" y="553" type="line" smooth="yes"/>
			<point x="709" y="579"/>
			<point x="709" y="599"/>
			<point x="709" y="613" type="curve" smooth="yes"/>
			<point x="709" y="675"/>
			<point x="681" y="700"/>
			<point x="624" y="700" type="curve" smooth="yes"/>
			<point x="555" y="700" type="line"/>
			<point x="575" y="500" type="line"/>
			<point x="600" y="500" type="line" smooth="yes"/>
			<point x="622" y="500"/>
			<point x="633" y="488"/>
			<point x="633" y="463" type="curve" smooth="yes"/>
			<point x="633" y="455"/>
			<point x="632" y="446"/>
			<point x="630" y="435" type="curve" smooth="yes"/>
			<point x="602" y="288" type="line" smooth="yes"/>
			<point x="594" y="245"/>
			<point x="586" y="230"/>
			<point x="567" y="230" type="curve" smooth="yes"/>
			<point x="550" y="230"/>
			<point x="543" y="245"/>
			<point x="539" y="288" type="curve" smooth="yes"/>
			<point x="505" y="615" type="line" smooth="yes"/>
			<point x="498" y="681"/>
			<point x="480" y="700"/>
			<point x="447" y="700" type="curve" smooth="yes"/>
			<point x="414" y="700"/>
			<point x="396" y="681"/>
			<point x="389" y="615" type="curve" smooth="yes"/>
			<point x="355" y="288" type="line" smooth="yes"/>
			<point x="351" y="245"/>
			<point x="344" y="230"/>
			<point x="327" y="230" type="curve" smooth="yes"/>
			<point x="308" y="230"/>
			<point x="300" y="245"/>
			<point x="292" y="288" type="curve" smooth="yes"/>
			<point x="264" y="435" type="line" smooth="yes"/>
			<point x="262" y="446"/>
			<point x="261" y="455"/>
			<point x="261" y="463" type="curve" smooth="yes"/>
			<point x="261" y="488"/>
			<point x="272" y="500"/>
			<point x="294" y="500" type="curve" smooth="yes"/>
			<point x="319" y="500" type="line"/>
			<point x="339" y="700" type="line"/>
			<point x="270" y="700" type="line" smooth="yes"/>
			<point x="213" y="700"/>
			<point x="185" y="675"/>
			<point x="185" y="613" type="curve" smooth="yes"/>
			<point x="185" y="599"/>
			<point x="185" y="579"/>
			<point x="190" y="553" type="curve" smooth="yes"/>
			<point x="290" y="46" type="line" smooth="yes"/>
			<point x="296" y="17"/>
			<point x="309" y="0"/>
		</contour>
		<contour>
			<point x="119" y="0" type="line"/>
			<point x="140" y="0" type="line" smooth="yes"/>
			<point x="180" y="0"/>
			<point x="201" y="33"/>
			<point x="201" y="79" type="curve" smooth="yes"/>
			<point x="201" y="104"/>
			<point x="197" y="137"/>
			<point x="190" y="175" type="curve" smooth="yes"/>
			<point x="116" y="557" type="line" smooth="yes"/>
			<point x="97" y="654"/>
			<point x="73" y="700"/>
			<point x="10" y="700" type="curve"/>
			<point x="10" y="500" type="line"/>
			<point x="26" y="500" type="line" smooth="yes"/>
			<point x="65" y="500"/>
			<point x="81" y="476"/>
			<point x="91" y="425" type="curve" smooth="yes"/>
			<point x="119" y="282" type="line" smooth="yes"/>
			<point x="123" y="262"/>
			<point x="125" y="247"/>
			<point x="125" y="236" type="curve" smooth="yes"/>
			<point x="125" y="208"/>
			<point x="113" y="200"/>
			<point x="90" y="200" type="curve" smooth="yes"/>
			<point x="70" y="200" type="line"/>
		</contour>
		<contour>
			<point x="214" y="30" type="curve"/>
			<point x="276" y="30" type="line"/>
			<point x="173" y="554" type="line" smooth="yes"/>
			<point x="168" y="579"/>
			<point x="166" y="601"/>
			<point x="166" y="620" type="curve" smooth="yes"/>
			<point x="166" y="643"/>
			<point x="169" y="655"/>
			<point x="175" y="670" type="curve"/>
			<point x="98" y="670" type="line"/>
			<point x="109" y="650"/>
			<point x="120" y="621"/>
			<point x="131" y="563" type="curve" smooth="yes"/>
			<point x="205" y="185" type="line" smooth="yes"/>
			<point x="215" y="136"/>
			<point x="220" y="103"/>
			<point x="220" y="77" type="curve" smooth="yes"/>
			<point x="220" y="59"/>
			<point x="218" y="43"/>
		</contour>
		<contour>
			<point x="721" y="554" type="curve" smooth="yes"/>
			<point x="618" y="30" type="line"/>
			<point x="680" y="30" type="line"/>
			<point x="676" y="43"/>
			<point x="674" y="59"/>
			<point x="674" y="77" type="curve" smooth="yes"/>
			<point x="674" y="103"/>
			<point x="679" y="136"/>
			<point x="689" y="185" type="curve" smooth="yes"/>
			<point x="763" y="563" type="line" smooth="yes"/>
			<point x="774" y="621"/>
			<point x="785" y="650"/>
			<point x="796" y="670" type="curve"/>
			<point x="719" y="670" type="line"/>
			<point x="725" y="655"/>
			<point x="728" y="643"/>
			<point x="728" y="620" type="curve" smooth="yes"/>
			<point x="728" y="601"/>
			<point x="726" y="579"/>
		</contour>
		<contour>
			<point x="754" y="0" type="curve" smooth="yes"/>
			<point x="775" y="0" type="line"/>
			<point x="824" y="200" type="line"/>
			<point x="804" y="200" type="line" smooth="yes"/>
			<point x="781" y="200"/>
			<point x="769" y="208"/>
			<point x="769" y="236" type="curve" smooth="yes"/>
			<point x="769" y="247"/>
			<point x="771" y="262"/>
			<point x="775" y="282" type="curve" smooth="yes"/>
			<point x="803" y="425" type="line" smooth="yes"/>
			<point x="813" y="476"/>
			<point x="829" y="500"/>
			<point x="868" y="500" type="curve" smooth="yes"/>
			<point x="884" y="500" type="line"/>
			<point x="884" y="700" type="line"/>
			<point x="821" y="700"/>
			<point x="797" y="654"/>
			<point x="778" y="557" type="curve" smooth="yes"/>
			<point x="704" y="175" type="line" smooth="yes"/>
			<point x="697" y="137"/>
			<point x="693" y="104"/>
			<point x="693" y="79" type="curve" smooth="yes"/>
			<point x="693" y="33"/>
			<point x="714" y="0"/>
		</contour>
	</outline>
</glyph>
<glyph name="X" format="2">
	<advance width="564"/>
	<unicode hex="0058"/>
	<outline>
		<contour>
			<point x="495" y="23" type="curve"/>
			<point x="524" y="23"/>
			<point x="549" y="50"/>
			<point x="549" y="104" type="curve" smooth="yes"/>
			<point x="549" y="145" type="line" smooth="yes"/>
			<point x="549" y="208"/>
			<point x="522" y="246"/>
			<point x="474" y="272" type="curve" smooth="yes"/>
			<point x="106" y="471" type="line" smooth="yes"/>
			<point x="71" y="490"/>
			<point x="57" y="515"/>
			<point x="57" y="561" type="curve" smooth="yes"/>
			<point x="57" y="619" type="line" smooth="yes"/>
			<point x="57" y="637"/>
			<point x="58" y="650"/>
			<point x="62" y="665" type="curve"/>
			<point x="41" y="665"/>
			<point x="20" y="638"/>
			<point x="20" y="601" type="curve" smooth="yes"/>
			<point x="20" y="546" type="line" smooth="yes"/>
			<point x="20" y="501"/>
			<point x="41" y="463"/>
			<point x="83" y="440" type="curve" smooth="yes"/>
			<point x="446" y="244" type="line" smooth="yes"/>
			<point x="497" y="216"/>
			<point x="512" y="185"/>
			<point x="512" y="136" type="curve" smooth="yes"/>
			<point x="512" y="93" type="line" smooth="yes"/>
			<point x="512" y="57"/>
			<point x="507" y="38"/>
		</contour>
		<contour>
			<point x="277" y="-2" type="line"/>
			<point x="403" y="-2" type="line" smooth="yes"/>
			<point x="463" y="-2"/>
			<point x="497" y="34"/>
			<point x="497" y="88" type="curve" smooth="yes"/>
			<point x="497" y="130" type="line" smooth="yes"/>
			<point x="497" y="185"/>
			<point x="477" y="211"/>
			<point x="432" y="235" type="curve" smooth="yes"/>
			<point x="196" y="361" type="line"/>
			<point x="77" y="265" type="line" smooth="yes"/>
			<point x="32" y="229"/>
			<point x="15" y="209"/>
			<point x="15" y="163" type="curve" smooth="yes"/>
			<point x="15" y="85" type="line" smooth="yes"/>
			<point x="15" y="31"/>
			<point x="29" y="0"/>
			<point x="112" y="0" type="curve" smooth="yes"/>
			<point x="173" y="0" type="line"/>
			<point x="173" y="200" type="line"/>
			<point x="138" y="200" type="line" smooth="yes"/>
			<point x="121" y="200"/>
			<point x="112" y="209"/>
			<point x="112" y="221" type="curve" smooth="yes"/>
			<point x="112" y="233"/>
			<point x="122" y="242"/>
			<point x="146" y="262" type="curve" smooth="yes"/>
			<point x="227" y="328" type="line"/>
			<point x="174" y="319" type="line"/>
			<point x="299" y="251" type="line" smooth="yes"/>
			<point x="320" y="240"/>
			<point x="327" y="232"/>
			<point x="327" y="221" type="curve" smooth="yes"/>
			<point x="327" y="209"/>
			<point x="321" y="198"/>
			<point x="296" y="198" type="curve" smooth="yes"/>
			<point x="277" y="198" type="line"/>
		</contour>
		<contour>
			<point x="123" y="479" type="curve" smooth="yes"/>
			<point x="353" y="354" type="line"/>
			<point x="472" y="435" type="line" smooth="yes"/>
			<point x="523" y="470"/>
			<point x="544" y="491"/>
			<point x="544" y="546" type="curve" smooth="yes"/>
			<point x="544" y="615" type="line" smooth="yes"/>
			<point x="544" y="669"/>
			<point x="518" y="700"/>
			<point x="427" y="700" type="curve" smooth="yes"/>
			<point x="346" y="700" type="line"/>
			<point x="346" y="500" type="line"/>
			<point x="403" y="500" type="line" smooth="yes"/>
			<point x="422" y="500"/>
			<point x="428" y="492"/>
			<point x="428" y="481" type="curve" smooth="yes"/>
			<point x="428" y="468"/>
			<point x="420" y="457"/>
			<point x="400" y="443" type="curve" smooth="yes"/>
			<point x="326" y="393" type="line"/>
			<point x="369" y="399" type="line"/>
			<point x="265" y="455" type="line" smooth="yes"/>
			<point x="248" y="464"/>
			<point x="241" y="472"/>
			<point x="241" y="482" type="curve" smooth="yes"/>
			<point x="241" y="495"/>
			<point x="249" y="500"/>
			<point x="262" y="500" type="curve" smooth="yes"/>
			<point x="272" y="500" type="line"/>
			<point x="272" y="700" type="line"/>
			<point x="146" y="700" type="line" smooth="yes"/>
			<point x="94" y="700"/>
			<point x="72" y="671"/>
			<point x="72" y="623" type="curve" smooth="yes"/>
			<point x="72" y="563" type="line" smooth="yes"/>
			<point x="72" y="518"/>
			<point x="84" y="500"/>
		</contour>
	</outline>
</glyph>
<glyph name="Y" format="2">
	<advance width="682"/>
	<unicode hex="0059"/>
	<anchor x="341" y="0" name="bottom"/>
	<anchor x="380" y="700" name="top"/>
	<anchor x="25" y="700" name="topleft"/>
	<outline>
		<contour>
			<point x="477" y="0" type="curve" smooth="yes"/>
			<point x="496" y="0" type="line"/>
			<point x="496" y="202" type="line"/>
			<point x="463" y="202" type="line" smooth="yes"/>
			<point x="437" y="202"/>
			<point x="425" y="214"/>
			<point x="425" y="237" type="curve" smooth="yes"/>
			<point x="425" y="259"/>
			<point x="433" y="271"/>
			<point x="446" y="289" type="curve" smooth="yes"/>
			<point x="541" y="421" type="line" smooth="yes"/>
			<point x="588" y="487"/>
			<point x="617" y="529"/>
			<point x="617" y="580" type="curve" smooth="yes"/>
			<point x="617" y="625" type="line" smooth="yes"/>
			<point x="617" y="671"/>
			<point x="589" y="700"/>
			<point x="532" y="700" type="curve" smooth="yes"/>
			<point x="420" y="700" type="line"/>
			<point x="420" y="500" type="line"/>
			<point x="471" y="500" type="line" smooth="yes"/>
			<point x="493" y="500"/>
			<point x="502" y="491"/>
			<point x="502" y="477" type="curve" smooth="yes"/>
			<point x="502" y="466"/>
			<point x="498" y="455"/>
			<point x="484" y="436" type="curve" smooth="yes"/>
			<point x="432" y="362" type="line" smooth="yes"/>
			<point x="422" y="348"/>
			<point x="412" y="335"/>
			<point x="402" y="335" type="curve" smooth="yes"/>
			<point x="391" y="335"/>
			<point x="384" y="345"/>
			<point x="372" y="364" type="curve" smooth="yes"/>
			<point x="325" y="437" type="line" smooth="yes"/>
			<point x="316" y="451"/>
			<point x="312" y="459"/>
			<point x="312" y="471" type="curve" smooth="yes"/>
			<point x="312" y="488"/>
			<point x="324" y="500"/>
			<point x="349" y="500" type="curve"/>
			<point x="349" y="700" type="line"/>
			<point x="273" y="700" type="line" smooth="yes"/>
			<point x="218" y="700"/>
			<point x="178" y="660"/>
			<point x="178" y="609" type="curve" smooth="yes"/>
			<point x="178" y="575"/>
			<point x="190" y="554"/>
			<point x="230" y="494" type="curve" smooth="yes"/>
			<point x="331" y="342" type="line" smooth="yes"/>
			<point x="366" y="290"/>
			<point x="374" y="274"/>
			<point x="374" y="223" type="curve" smooth="yes"/>
			<point x="374" y="138" type="line" smooth="yes"/>
			<point x="374" y="42"/>
			<point x="406" y="0"/>
		</contour>
		<contour>
			<point x="182" y="0" type="line"/>
			<point x="201" y="0" type="line" smooth="yes"/>
			<point x="272" y="0"/>
			<point x="304" y="42"/>
			<point x="304" y="138" type="curve" smooth="yes"/>
			<point x="304" y="223" type="line" smooth="yes"/>
			<point x="304" y="253"/>
			<point x="298" y="271"/>
			<point x="272" y="311" type="curve" smooth="yes"/>
			<point x="112" y="557" type="line" smooth="yes"/>
			<point x="84" y="601"/>
			<point x="63" y="639"/>
			<point x="47" y="664" type="curve" smooth="yes"/>
			<point x="33" y="687"/>
			<point x="22" y="700"/>
			<point x="10" y="700" type="curve"/>
			<point x="10" y="500" type="line"/>
			<point x="39" y="500" type="line" smooth="yes"/>
			<point x="88" y="500"/>
			<point x="100" y="483"/>
			<point x="140" y="425" type="curve" smooth="yes"/>
			<point x="216" y="314" type="line" smooth="yes"/>
			<point x="239" y="280"/>
			<point x="254" y="256"/>
			<point x="254" y="234" type="curve" smooth="yes"/>
			<point x="254" y="215"/>
			<point x="245" y="202"/>
			<point x="218" y="202" type="curve" smooth="yes"/>
			<point x="182" y="202" type="line"/>
		</contour>
		<contour>
			<point x="301" y="30" type="curve"/>
			<point x="377" y="30" type="line"/>
			<point x="364" y="51"/>
			<point x="359" y="78"/>
			<point x="359" y="119" type="curve" smooth="yes"/>
			<point x="359" y="223" type="line" smooth="yes"/>
			<point x="359" y="267"/>
			<point x="351" y="283"/>
			<point x="318" y="333" type="curve" smooth="yes"/>
			<point x="210" y="496" type="line" smooth="yes"/>
			<point x="173" y="552"/>
			<point x="163" y="577"/>
			<point x="163" y="609" type="curve" smooth="yes"/>
			<point x="163" y="636"/>
			<point x="172" y="654"/>
			<point x="183" y="670" type="curve"/>
			<point x="64" y="670" type="line"/>
			<point x="77" y="648"/>
			<point x="95" y="614"/>
			<point x="128" y="563" type="curve" smooth="yes"/>
			<point x="286" y="319" type="line" smooth="yes"/>
			<point x="316" y="273"/>
			<point x="319" y="256"/>
			<point x="319" y="223" type="curve" smooth="yes"/>
			<point x="319" y="119" type="line" smooth="yes"/>
			<point x="319" y="78"/>
			<point x="314" y="51"/>
		</contour>
		<contour>
			<point x="599" y="480" type="curve"/>
			<point x="636" y="485"/>
			<point x="672" y="532"/>
			<point x="672" y="585" type="curve" smooth="yes"/>
			<point x="672" y="621" type="line" smooth="yes"/>
			<point x="672" y="680"/>
			<point x="642" y="697"/>
			<point x="596" y="700" type="curve"/>
			<point x="619" y="686"/>
			<point x="632" y="669"/>
			<point x="632" y="623" type="curve" smooth="yes"/>
			<point x="632" y="577" type="line" smooth="yes"/>
			<point x="632" y="537"/>
			<point x="616" y="507"/>
		</contour>
	</outline>
</glyph>
<glyph name="Z" format="2">
	<advance width="523"/>
	<unicode hex="005A"/>
	<anchor x="266" y="0" name="bottom"/>
	<anchor x="266" y="350" name="center"/>
	<anchor x="266" y="700" name="top"/>
	<outline>
		<contour>
			<point x="156" y="0" type="curve"/>
			<point x="135" y="27"/>
			<point x="130" y="57"/>
			<point x="130" y="104" type="curve" smooth="yes"/>
			<point x="130" y="163" type="line" smooth="yes"/>
			<point x="130" y="246"/>
			<point x="151" y="274"/>
			<point x="204" y="308" type="curve" smooth="yes"/>
			<point x="389" y="427" type="line" smooth="yes"/>
			<point x="433" y="456"/>
			<point x="442" y="487"/>
			<point x="442" y="542" type="curve" smooth="yes"/>
			<point x="442" y="611" type="line" smooth="yes"/>
			<point x="442" y="677"/>
			<point x="419" y="700"/>
			<point x="377" y="700" type="curve"/>
			<point x="392" y="686"/>
			<point x="402" y="661"/>
			<point x="402" y="620" type="curve" smooth="yes"/>
			<point x="402" y="555" type="line" smooth="yes"/>
			<point x="402" y="496"/>
			<point x="388" y="474"/>
			<point x="365" y="459" type="curve" smooth="yes"/>
			<point x="174" y="336" type="line" smooth="yes"/>
			<point x="113" y="297"/>
			<point x="90" y="244"/>
			<point x="90" y="169" type="curve" smooth="yes"/>
			<point x="90" y="102" type="line" smooth="yes"/>
			<point x="90" y="29"/>
			<point x="117" y="7"/>
		</contour>
		<contour>
			<point x="101" y="8" type="curve"/>
			<point x="84" y="27"/>
			<point x="75" y="48"/>
			<point x="75" y="94" type="curve" smooth="yes"/>
			<point x="75" y="168" type="line" smooth="yes"/>
			<point x="75" y="229"/>
			<point x="82" y="276"/>
			<point x="138" y="329" type="curve"/>
			<point x="51" y="299"/>
			<point x="25" y="225"/>
			<point x="25" y="165" type="curve" smooth="yes"/>
			<point x="25" y="99" type="line" smooth="yes"/>
			<point x="25" y="39"/>
			<point x="69" y="8"/>
		</contour>
		<contour>
			<point x="222" y="0" type="curve" smooth="yes"/>
			<point x="387" y="0" type="line" smooth="yes"/>
			<point x="456" y="0"/>
			<point x="487" y="36"/>
			<point x="487" y="91" type="curve" smooth="yes"/>
			<point x="487" y="287" type="line"/>
			<point x="437" y="287" type="line"/>
			<point x="437" y="260" type="line" smooth="yes"/>
			<point x="437" y="210"/>
			<point x="416" y="195"/>
			<point x="367" y="195" type="curve" smooth="yes"/>
			<point x="238" y="195" type="line" smooth="yes"/>
			<point x="192" y="195"/>
			<point x="175" y="208"/>
			<point x="159" y="239" type="curve"/>
			<point x="151" y="223"/>
			<point x="145" y="195"/>
			<point x="145" y="166" type="curve" smooth="yes"/>
			<point x="145" y="106" type="line" smooth="yes"/>
			<point x="145" y="35"/>
			<point x="162" y="0"/>
		</contour>
		<contour>
			<point x="41" y="609" type="curve" smooth="yes"/>
			<point x="41" y="419" type="line"/>
			<point x="91" y="419" type="line"/>
			<point x="91" y="440" type="line" smooth="yes"/>
			<point x="91" y="490"/>
			<point x="112" y="501"/>
			<point x="161" y="501" type="curve" smooth="yes"/>
			<point x="290" y="501" type="line" smooth="yes"/>
			<point x="330" y="501"/>
			<point x="337" y="482"/>
			<point x="341" y="460" type="curve"/>
			<point x="369" y="477"/>
			<point x="387" y="498"/>
			<point x="387" y="555" type="curve" smooth="yes"/>
			<point x="387" y="620" type="line" smooth="yes"/>
			<point x="387" y="669"/>
			<point x="364" y="700"/>
			<point x="328" y="700" type="curve" smooth="yes"/>
			<point x="141" y="700" type="line" smooth="yes"/>
			<point x="72" y="700"/>
			<point x="41" y="664"/>
		</contour>
		<contour>
			<point x="391" y="408" type="curve"/>
			<point x="468" y="427"/>
			<point x="503" y="464"/>
			<point x="503" y="533" type="curve" smooth="yes"/>
			<point x="503" y="599" type="line" smooth="yes"/>
			<point x="503" y="649"/>
			<point x="479" y="675"/>
			<point x="448" y="675" type="curve"/>
			<point x="453" y="661"/>
			<point x="457" y="639"/>
			<point x="457" y="606" type="curve" smooth="yes"/>
			<point x="457" y="532" type="line" smooth="yes"/>
			<point x="457" y="468"/>
			<point x="447" y="444"/>
		</contour>
	</outline>
</glyph>
<glyph name="asciicircum" format="2">
	<advance width="400"/>
	<unicode hex="005E"/>
	<outline>
		<contour>
			<point x="47" y="506" type="line"/>
			<point x="131" y="506" type="line"/>
			<point x="204" y="627" type="line"/>
			<point x="196" y="627" type="line"/>
			<point x="269" y="506" type="line"/>
			<point x="353" y="506" type="line"/>
			<point x="227" y="700" type="line"/>
			<point x="173" y="700" type="line"/>
		</contour>
	</outline>
</glyph>
<glyph name="braceleft" format="2">
	<advance width="291"/>
	<unicode hex="007B"/>
	<outline>
		<contour>
			<point x="211" y="0" type="curve" smooth="yes"/>
			<point x="281" y="0" type="line"/>
			<point x="281" y="160" type="line"/>
			<point x="220" y="160" type="line" smooth="yes"/>
			<point x="166" y="160"/>
			<point x="150" y="174"/>
			<point x="150" y="224" type="curve" smooth="yes"/>
			<point x="150" y="266" type="line" smooth="yes"/>
			<point x="150" y="339"/>
			<point x="60" y="315"/>
			<point x="60" y="350" type="curve" smooth="yes"/>
			<point x="60" y="385"/>
			<point x="150" y="361"/>
			<point x="150" y="434" type="curve" smooth="yes"/>
			<point x="150" y="476" type="line" smooth="yes"/>
			<point x="150" y="526"/>
			<point x="166" y="540"/>
			<point x="220" y="540" type="curve" smooth="yes"/>
			<point x="281" y="540" type="line"/>
			<point x="281" y="700" type="line"/>
			<point x="211" y="700" type="line" smooth="yes"/>
			<point x="139" y="700"/>
			<point x="111" y="672"/>
			<point x="111" y="600" type="curve" smooth="yes"/>
			<point x="111" y="557" type="line" smooth="yes"/>
			<point x="111" y="492"/>
			<point x="103" y="480"/>
			<point x="65" y="480" type="curve" smooth="yes"/>
			<point x="26" y="480"/>
			<point x="10" y="458"/>
			<point x="10" y="417" type="curve" smooth="yes"/>
			<point x="10" y="283" type="line" smooth="yes"/>
			<point x="10" y="242"/>
			<point x="26" y="220"/>
			<point x="65" y="220" type="curve" smooth="yes"/>
			<point x="103" y="220"/>
			<point x="111" y="208"/>
			<point x="111" y="143" type="curve" smooth="yes"/>
			<point x="111" y="100" type="line" smooth="yes"/>
			<point x="111" y="28"/>
			<point x="139" y="0"/>
		</contour>
	</outline>
</glyph>
<glyph name="asciitilde" format="2">
	<advance width="400"/>
	<unicode hex="007E"/>
	<outline>
		<contour>
			<point x="266" y="290" type="curve" smooth="yes"/>
			<point x="335" y="290"/>
			<point x="365" y="339"/>
			<point x="365" y="420" type="curve"/>
			<point x="295" y="420" type="line"/>
			<point x="295" y="379"/>
			<point x="287" y="360"/>
			<point x="266" y="360" type="curve" smooth="yes"/>
			<point x="223" y="360"/>
			<point x="203" y="430"/>
			<point x="135" y="430" type="curve" smooth="yes"/>
			<point x="70" y="430"/>
			<point x="34" y="381"/>
			<point x="34" y="300" type="curve"/>
			<point x="104" y="300" type="line"/>
			<point x="104" y="337"/>
			<point x="111" y="360"/>
			<point x="135" y="360" type="curve" smooth="yes"/>
			<point x="166" y="360"/>
			<point x="197" y="290"/>
		</contour>
	</outline>
</glyph>
<glyph name="cent" format="2">
	<advance width="471"/>
	<unicode hex="00A2"/>
	<outline>
		<contour>
			<point x="245" y="70" type="curve" smooth="yes"/>
			<point x="356" y="70"/>
			<point x="414" y="126"/>
			<point x="414" y="212" type="curve" smooth="yes"/>
			<point x="414" y="303" type="line"/>
			<point x="364" y="303" type="line"/>
			<point x="364" y="265"/>
			<point x="333" y="243"/>
			<point x="246" y="243" type="curve" smooth="yes"/>
			<point x="160" y="243"/>
			<point x="122" y="273"/>
			<point x="122" y="336" type="curve" smooth="yes"/>
			<point x="122" y="368" type="line" smooth="yes"/>
			<point x="122" y="427"/>
			<point x="154" y="461"/>
			<point x="246" y="461" type="curve" smooth="yes"/>
			<point x="327" y="461"/>
			<point x="364" y="438"/>
			<point x="364" y="401" type="curve"/>
			<point x="414" y="401" type="line"/>
			<point x="414" y="487" type="line" smooth="yes"/>
			<point x="414" y="573"/>
			<point x="356" y="630"/>
			<point x="245" y="630" type="curve" smooth="yes"/>
			<point x="131" y="630"/>
			<point x="67" y="580"/>
			<point x="67" y="444" type="curve" smooth="yes"/>
			<point x="67" y="255" type="line" smooth="yes"/>
			<point x="67" y="119"/>
			<point x="131" y="70"/>
		</contour>
		<contour>
			<point x="220" y="0" type="line"/>
			<point x="270" y="0" type="line"/>
			<point x="270" y="183" type="line"/>
			<point x="220" y="183" type="line"/>
		</contour>
		<contour>
			<point x="220" y="536" type="line"/>
			<point x="270" y="536" type="line"/>
			<point x="270" y="700" type="line"/>
			<point x="220" y="700" type="line"/>
		</contour>
	</outline>
</glyph>
<glyph name="sterling" format="2">
	<advance width="471"/>
	<unicode hex="00A3"/>
	<outline>
		<contour>
			<point x="166" y="0" type="curve" smooth="yes"/>
			<point x="318" y="0" type="line" smooth="yes"/>
			<point x="393" y="0"/>
			<point x="436" y="48"/>
			<point x="436" y="116" type="curve" smooth="yes"/>
			<point x="436" y="276" type="line"/>
			<point x="386" y="276" type="line"/>
			<point x="386" y="220"/>
			<point x="369" y="195"/>
			<point x="318" y="195" type="curve" smooth="yes"/>
			<point x="149" y="195" type="line"/>
			<point x="158" y="171" type="line"/>
			<point x="189" y="194"/>
			<point x="201" y="221"/>
			<point x="201" y="261" type="curve" smooth="yes"/>
			<point x="201" y="299"/>
			<point x="188" y="331"/>
			<point x="171" y="367" type="curve" smooth="yes"/>
			<point x="156" y="399"/>
			<point x="144" y="428"/>
			<point x="144" y="452" type="curve" smooth="yes"/>
			<point x="144" y="489"/>
			<point x="169" y="510"/>
			<point x="224" y="510" type="curve" smooth="yes"/>
			<point x="260" y="510" type="line" smooth="yes"/>
			<point x="322" y="510"/>
			<point x="355" y="490"/>
			<point x="355" y="440" type="curve"/>
			<point x="405" y="440" type="line"/>
			<point x="405" y="566" type="line" smooth="yes"/>
			<point x="405" y="659"/>
			<point x="348" y="700"/>
			<point x="267" y="700" type="curve" smooth="yes"/>
			<point x="239" y="700" type="line" smooth="yes"/>
			<point x="125" y="700"/>
			<point x="71" y="636"/>
			<point x="71" y="541" type="curve" smooth="yes"/>
			<point x="71" y="486"/>
			<point x="90" y="428"/>
			<point x="123" y="359" type="curve" smooth="yes"/>
			<point x="137" y="329"/>
			<point x="151" y="298"/>
			<point x="151" y="269" type="curve" smooth="yes"/>
			<point x="151" y="215"/>
			<point x="113" y="195"/>
			<point x="68" y="195" type="curve"/>
			<point x="68" y="94" type="line" smooth="yes"/>
			<point x="68" y="21"/>
			<point x="104" y="0"/>
		</contour>
		<contour>
			<point x="71" y="341" type="line"/>
			<point x="309" y="341" type="line"/>
			<point x="309" y="386" type="line"/>
			<point x="71" y="386" type="line"/>
		</contour>
	</outline>
</glyph>
<glyph name="section" format="2">
	<advance width="445"/>
	<unicode hex="00A7"/>
	<outline>
		<contour>
			<point x="272" y="269" type="curve"/>
			<point x="299" y="238" type="line"/>
			<point x="342" y="252"/>
			<point x="362" y="284"/>
			<point x="362" y="317" type="curve" smooth="yes"/>
			<point x="362" y="362"/>
			<point x="339" y="394"/>
			<point x="278" y="422" type="curve" smooth="yes"/>
			<point x="195" y="460" type="line" smooth="yes"/>
			<point x="148" y="481"/>
			<point x="140" y="492"/>
			<point x="140" y="513" type="curve" smooth="yes"/>
			<point x="140" y="537"/>
			<point x="163" y="555"/>
			<point x="238" y="555" type="curve" smooth="yes"/>
			<point x="320" y="555"/>
			<point x="345" y="526"/>
			<point x="345" y="485" type="curve"/>
			<point x="395" y="485" type="line"/>
			<point x="395" y="582" type="line" smooth="yes"/>
			<point x="395" y="658"/>
			<point x="350" y="710"/>
			<point x="228" y="710" type="curve" smooth="yes"/>
			<point x="104" y="710"/>
			<point x="50" y="651"/>
			<point x="50" y="568" type="curve" smooth="yes"/>
			<point x="50" y="499"/>
			<point x="78" y="460"/>
			<point x="161" y="421" type="curve" smooth="yes"/>
			<point x="257" y="376" type="line" smooth="yes"/>
			<point x="290" y="361"/>
			<point x="307" y="341"/>
			<point x="307" y="317" type="curve" smooth="yes"/>
			<point x="307" y="290"/>
			<point x="296" y="282"/>
		</contour>
		<contour>
			<point x="217" y="-10" type="curve" smooth="yes"/>
			<point x="341" y="-10"/>
			<point x="395" y="49"/>
			<point x="395" y="132" type="curve" smooth="yes"/>
			<point x="395" y="201"/>
			<point x="367" y="240"/>
			<point x="284" y="279" type="curve" smooth="yes"/>
			<point x="188" y="324" type="line" smooth="yes"/>
			<point x="155" y="339"/>
			<point x="138" y="359"/>
			<point x="138" y="383" type="curve" smooth="yes"/>
			<point x="138" y="410"/>
			<point x="149" y="418"/>
			<point x="173" y="431" type="curve"/>
			<point x="146" y="462" type="line"/>
			<point x="103" y="448"/>
			<point x="83" y="416"/>
			<point x="83" y="383" type="curve" smooth="yes"/>
			<point x="83" y="338"/>
			<point x="106" y="306"/>
			<point x="167" y="278" type="curve" smooth="yes"/>
			<point x="250" y="240" type="line" smooth="yes"/>
			<point x="297" y="219"/>
			<point x="305" y="208"/>
			<point x="305" y="187" type="curve" smooth="yes"/>
			<point x="305" y="163"/>
			<point x="282" y="145"/>
			<point x="207" y="145" type="curve" smooth="yes"/>
			<point x="125" y="145"/>
			<point x="100" y="174"/>
			<point x="100" y="215" type="curve"/>
			<point x="50" y="215" type="line"/>
			<point x="50" y="118" type="line" smooth="yes"/>
			<point x="50" y="42"/>
			<point x="95" y="-10"/>
		</contour>
	</outline>
</glyph>
<glyph name="registered" format="2">
	<advance width="547"/>
	<unicode hex="00AE"/>
	<outline>
		<contour>
			<point x="276" y="-10" type="curve" smooth="yes"/>
			<point x="427" y="-10"/>
			<point x="497" y="74"/>
			<point x="497" y="213" type="curve" smooth="yes"/>
			<point x="497" y="487" type="line" smooth="yes"/>
			<point x="497" y="626"/>
			<point x="427" y="710"/>
			<point x="276" y="710" type="curve" smooth="yes"/>
			<point x="115" y="710"/>
			<point x="50" y="626"/>
			<point x="50" y="487" type="curve" smooth="yes"/>
			<point x="50" y="213" type="line" smooth="yes"/>
			<point x="50" y="74"/>
			<point x="115" y="-10"/>
		</contour>
		<contour>
			<point x="340" y="172" type="curve" smooth="yes"/>
			<point x="364" y="172"/>
			<point x="383" y="186"/>
			<point x="383" y="221" type="curve" smooth="yes"/>
			<point x="383" y="312" type="line"/>
			<point x="358" y="312" type="line"/>
			<point x="358" y="284"/>
			<point x="349" y="274"/>
			<point x="334" y="274" type="curve" smooth="yes"/>
			<point x="317" y="274"/>
			<point x="309" y="279"/>
			<point x="302" y="300" type="curve" smooth="yes"/>
			<point x="289" y="338" type="line"/>
			<point x="258" y="338" type="line"/>
			<point x="292" y="222" type="line" smooth="yes"/>
			<point x="303" y="183"/>
			<point x="315" y="172"/>
		</contour>
		<contour>
			<point x="272" y="90" type="curve" smooth="yes"/>
			<point x="147" y="90"/>
			<point x="99" y="140"/>
			<point x="99" y="256" type="curve" smooth="yes"/>
			<point x="99" y="444" type="line" smooth="yes"/>
			<point x="99" y="560"/>
			<point x="147" y="610"/>
			<point x="272" y="610" type="curve" smooth="yes"/>
			<point x="385" y="610"/>
			<point x="447" y="567"/>
			<point x="447" y="444" type="curve" smooth="yes"/>
			<point x="447" y="256" type="line" smooth="yes"/>
			<point x="447" y="133"/>
			<point x="385" y="90"/>
		</contour>
		<contour>
			<point x="225" y="172" type="curve" smooth="yes"/>
			<point x="248" y="172" type="line"/>
			<point x="248" y="276" type="line"/>
			<point x="235" y="276" type="line" smooth="yes"/>
			<point x="209" y="276"/>
			<point x="209" y="286"/>
			<point x="209" y="321" type="curve" smooth="yes"/>
			<point x="209" y="382" type="line" smooth="yes"/>
			<point x="209" y="417"/>
			<point x="209" y="428"/>
			<point x="235" y="428" type="curve" smooth="yes"/>
			<point x="286" y="428" type="line" smooth="yes"/>
			<point x="316" y="428"/>
			<point x="331" y="416"/>
			<point x="331" y="390" type="curve" smooth="yes"/>
			<point x="331" y="369"/>
			<point x="320" y="360"/>
			<point x="303" y="360" type="curve" smooth="yes"/>
			<point x="188" y="360" type="line"/>
			<point x="188" y="325" type="line"/>
			<point x="303" y="325" type="line" smooth="yes"/>
			<point x="344" y="325"/>
			<point x="366" y="346"/>
			<point x="366" y="390" type="curve" smooth="yes"/>
			<point x="366" y="459" type="line" smooth="yes"/>
			<point x="366" y="506"/>
			<point x="341" y="527"/>
			<point x="289" y="527" type="curve" smooth="yes"/>
			<point x="238" y="527" type="line" smooth="yes"/>
			<point x="201" y="527"/>
			<point x="174" y="512"/>
			<point x="174" y="476" type="curve" smooth="yes"/>
			<point x="174" y="223" type="line" smooth="yes"/>
			<point x="174" y="187"/>
			<point x="188" y="172"/>
		</contour>
	</outline>
</glyph>
<glyph name="degree" format="2">
	<advance width="320"/>
	<unicode hex="00B0"/>
	<outline>
		<contour>
			<point x="160" y="490" type="curve" smooth="yes"/>
			<point x="223" y="490"/>
			<point x="270" y="535"/>
			<point x="270" y="600" type="curve" smooth="yes"/>
			<point x="270" y="665"/>
			<point x="223" y="710"/>
			<point x="160" y="710" type="curve" smooth="yes"/>
			<point x="95" y="710"/>
			<point x="50" y="665"/>
			<point x="50" y="600" type="curve" smooth="yes"/>
			<point x="50" y="535"/>
			<point x="95" y="490"/>
		</contour>
		<contour>
			<point x="160" y="548" type="curve" smooth="yes"/>
			<point x="126" y="548"/>
			<point x="108" y="567"/>
			<point x="108" y="600" type="curve" smooth="yes"/>
			<point x="108" y="633"/>
			<point x="126" y="652"/>
			<point x="160" y="652" type="curve" smooth="yes"/>
			<point x="192" y="652"/>
			<point x="212" y="633"/>
			<point x="212" y="600" type="curve" smooth="yes"/>
			<point x="212" y="567"/>
			<point x="192" y="548"/>
		</contour>
	</outline>
</glyph>
<glyph name="threesuperior" format="2">
	<advance width="268"/>
	<unicode hex="00B3"/>
	<outline>
		<contour>
			<point x="71" y="325" type="curve" smooth="yes"/>
			<point x="168" y="325" type="line" smooth="yes"/>
			<point x="225" y="325"/>
			<point x="243" y="342"/>
			<point x="243" y="404" type="curve" smooth="yes"/>
			<point x="243" y="465" type="line" smooth="yes"/>
			<point x="243" y="509"/>
			<point x="213" y="530"/>
			<point x="157" y="530" type="curve" smooth="yes"/>
			<point x="153" y="530"/>
			<point x="151" y="534"/>
			<point x="156" y="537" type="curve" smooth="yes"/>
			<point x="203" y="570" type="line" smooth="yes"/>
			<point x="232" y="590"/>
			<point x="238" y="616"/>
			<point x="238" y="642" type="curve" smooth="yes"/>
			<point x="238" y="686"/>
			<point x="220" y="705"/>
			<point x="187" y="705" type="curve" smooth="yes"/>
			<point x="95" y="705" type="line" smooth="yes"/>
			<point x="58" y="705"/>
			<point x="33" y="690"/>
			<point x="33" y="652" type="curve" smooth="yes"/>
			<point x="33" y="558" type="line"/>
			<point x="65" y="558" type="line"/>
			<point x="65" y="588"/>
			<point x="72" y="599"/>
			<point x="96" y="599" type="curve" smooth="yes"/>
			<point x="140" y="599" type="line" smooth="yes"/>
			<point x="153" y="599"/>
			<point x="160" y="593"/>
			<point x="160" y="585" type="curve" smooth="yes"/>
			<point x="160" y="576"/>
			<point x="148" y="566"/>
			<point x="139" y="559" type="curve" smooth="yes"/>
			<point x="106" y="536" type="line"/>
			<point x="115" y="500" type="line"/>
			<point x="148" y="500" type="line" smooth="yes"/>
			<point x="189" y="500"/>
			<point x="203" y="484"/>
			<point x="203" y="465" type="curve" smooth="yes"/>
			<point x="203" y="443"/>
			<point x="191" y="434"/>
			<point x="152" y="434" type="curve" smooth="yes"/>
			<point x="88" y="434" type="line" smooth="yes"/>
			<point x="71" y="434"/>
			<point x="62" y="445"/>
			<point x="62" y="475" type="curve"/>
			<point x="30" y="475" type="line"/>
			<point x="30" y="378" type="line" smooth="yes"/>
			<point x="30" y="340"/>
			<point x="44" y="325"/>
		</contour>
	</outline>
</glyph>
<glyph name="periodcentered" format="2">
	<advance width="230"/>
	<unicode hex="00B7"/>
	<outline>
		<contour>
			<point x="100" y="275" type="curve" smooth="yes"/>
			<point x="130" y="275" type="line" smooth="yes"/>
			<point x="172" y="275"/>
			<point x="190" y="293"/>
			<point x="190" y="335" type="curve" smooth="yes"/>
			<point x="190" y="365" type="line" smooth="yes"/>
			<point x="190" y="407"/>
			<point x="172" y="425"/>
			<point x="130" y="425" type="curve" smooth="yes"/>
			<point x="100" y="425" type="line" smooth="yes"/>
			<point x="58" y="425"/>
			<point x="40" y="407"/>
			<point x="40" y="365" type="curve" smooth="yes"/>
			<point x="40" y="335" type="line" smooth="yes"/>
			<point x="40" y="293"/>
			<point x="58" y="275"/>
		</contour>
	</outline>
</glyph>
<glyph name="AE" format="2">
	<advance width="893"/>
	<unicode hex="00C6"/>
	<outline>
		<contour>
			<point x="275" y="0" type="curve" smooth="yes"/>
			<point x="304" y="0" type="line"/>
			<point x="304" y="202" type="line"/>
			<point x="277" y="202"/>
			<point x="265" y="214"/>
			<point x="265" y="236" type="curve" smooth="yes"/>
			<point x="265" y="247"/>
			<point x="267" y="260"/>
			<point x="276" y="284" type="curve" smooth="yes"/>
			<point x="339" y="459" type="line" smooth="yes"/>
			<point x="349" y="487"/>
			<point x="364" y="500"/>
			<point x="386" y="500" type="curve" smooth="yes"/>
			<point x="414" y="500"/>
			<point x="430" y="479"/>
			<point x="430" y="438" type="curve" smooth="yes"/>
			<point x="430" y="275" type="line" smooth="yes"/>
			<point x="430" y="224"/>
			<point x="416" y="202"/>
			<point x="384" y="202" type="curve" smooth="yes"/>
			<point x="368" y="202" type="line"/>
			<point x="368" y="0" type="line"/>
			<point x="377" y="0" type="line" smooth="yes"/>
			<point x="448" y="0"/>
			<point x="480" y="42"/>
			<point x="480" y="138" type="curve" smooth="yes"/>
			<point x="480" y="582" type="line" smooth="yes"/>
			<point x="480" y="669"/>
			<point x="453" y="700"/>
			<point x="415" y="700" type="curve" smooth="yes"/>
			<point x="382" y="700"/>
			<point x="365" y="683"/>
			<point x="351" y="643" type="curve" smooth="yes"/>
			<point x="179" y="147" type="line" smooth="yes"/>
			<point x="170" y="121"/>
			<point x="169" y="105"/>
			<point x="169" y="91" type="curve" smooth="yes"/>
			<point x="169" y="29"/>
			<point x="218" y="0"/>
		</contour>
		<contour>
			<point x="10" y="0" type="line"/>
			<point x="23" y="0"/>
			<point x="33" y="3"/>
			<point x="42" y="14" type="curve" smooth="yes"/>
			<point x="56" y="31"/>
			<point x="73" y="73"/>
			<point x="100" y="143" type="curve" smooth="yes"/>
			<point x="245" y="525" type="line" smooth="yes"/>
			<point x="259" y="563"/>
			<point x="264" y="594"/>
			<point x="264" y="619" type="curve" smooth="yes"/>
			<point x="264" y="663"/>
			<point x="231" y="700"/>
			<point x="184" y="700" type="curve" smooth="yes"/>
			<point x="155" y="700" type="line"/>
			<point x="105" y="498" type="line"/>
			<point x="126" y="498" type="line" smooth="yes"/>
			<point x="149" y="498"/>
			<point x="166" y="491"/>
			<point x="166" y="465" type="curve" smooth="yes"/>
			<point x="166" y="453"/>
			<point x="163" y="438"/>
			<point x="155" y="418" type="curve" smooth="yes"/>
			<point x="100" y="275" type="line" smooth="yes"/>
			<point x="82" y="227"/>
			<point x="64" y="202"/>
			<point x="26" y="202" type="curve" smooth="yes"/>
			<point x="10" y="202" type="line"/>
		</contour>
		<contour>
			<point x="77" y="30" type="curve"/>
			<point x="167" y="30" type="line"/>
			<point x="157" y="46"/>
			<point x="150" y="60"/>
			<point x="150" y="92" type="curve" smooth="yes"/>
			<point x="150" y="106"/>
			<point x="153" y="125"/>
			<point x="160" y="146" type="curve" smooth="yes"/>
			<point x="344" y="670" type="line"/>
			<point x="267" y="670" type="line"/>
			<point x="276" y="657"/>
			<point x="282" y="641"/>
			<point x="282" y="619" type="curve" smooth="yes"/>
			<point x="282" y="597"/>
			<point x="277" y="564"/>
			<point x="259" y="515" type="curve" smooth="yes"/>
			<point x="117" y="137" type="line" smooth="yes"/>
			<point x="95" y="79"/>
			<point x="84" y="50"/>
		</contour>
		<contour>
			<point x="245" y="278" type="line"/>
			<point x="435" y="278" type="line"/>
			<point x="432" y="328" type="line"/>
			<point x="266" y="328" type="line"/>
		</contour>
		<contour>
			<point x="477" y="30" type="curve"/>
			<point x="553" y="30" type="line"/>
			<point x="540" y="51"/>
			<point x="535" y="78"/>
			<point x="535" y="119" type="curve" smooth="yes"/>
			<point x="535" y="581" type="line" smooth="yes"/>
			<point x="535" y="622"/>
			<point x="540" y="649"/>
			<point x="553" y="670" type="curve"/>
			<point x="481" y="670" type="line"/>
			<point x="490" y="649"/>
			<point x="495" y="622"/>
			<point x="495" y="581" type="curve" smooth="yes"/>
			<point x="495" y="119" type="line" smooth="yes"/>
			<point x="495" y="78"/>
			<point x="490" y="51"/>
		</contour>
		<contour>
			<point x="726" y="305" type="curve"/>
			<point x="760" y="305" type="line"/>
			<point x="760" y="415" type="line"/>
			<point x="726" y="415" type="line"/>
			<point x="720" y="392"/>
			<point x="701" y="385"/>
			<point x="679" y="385" type="curve" smooth="yes"/>
			<point x="586" y="385" type="line"/>
			<point x="586" y="335" type="line"/>
			<point x="679" y="335" type="line" smooth="yes"/>
			<point x="701" y="335"/>
			<point x="720" y="328"/>
		</contour>
		<contour>
			<point x="653" y="0" type="curve" smooth="yes"/>
			<point x="760" y="0" type="line" smooth="yes"/>
			<point x="833" y="0"/>
			<point x="858" y="24"/>
			<point x="858" y="67" type="curve" smooth="yes"/>
			<point x="858" y="256" type="line"/>
			<point x="818" y="256" type="line"/>
			<point x="818" y="220"/>
			<point x="801" y="200"/>
			<point x="767" y="200" type="curve" smooth="yes"/>
			<point x="656" y="200" type="line" smooth="yes"/>
			<point x="614" y="200"/>
			<point x="600" y="224"/>
			<point x="600" y="275" type="curve" smooth="yes"/>
			<point x="600" y="413" type="line" smooth="yes"/>
			<point x="600" y="482"/>
			<point x="614" y="505"/>
			<point x="655" y="505" type="curve" smooth="yes"/>
			<point x="748" y="505" type="line" smooth="yes"/>
			<point x="797" y="505"/>
			<point x="818" y="480"/>
			<point x="818" y="425" type="curve"/>
			<point x="858" y="425" type="line"/>
			<point x="858" y="626" type="line" smooth="yes"/>
			<point x="858" y="670"/>
			<point x="837" y="700"/>
			<point x="768" y="700" type="curve" smooth="yes"/>
			<point x="653" y="700" type="line" smooth="yes"/>
			<point x="587" y="700"/>
			<point x="550" y="669"/>
			<point x="550" y="582" type="curve" smooth="yes"/>
			<point x="550" y="138" type="line" smooth="yes"/>
			<point x="550" y="42"/>
			<point x="582" y="0"/>
		</contour>
	</outline>
</glyph>
<glyph name="multiply" format="2">
	<advance width="400"/>
	<unicode hex="00D7"/>
	<outline>
		<contour>
			<point x="284" y="212" type="line"/>
			<point x="66" y="430" type="line"/>
			<point x="116" y="480" type="line"/>
			<point x="334" y="262" type="line"/>
		</contour>
		<contour>
			<point x="116" y="212" type="line"/>
			<point x="66" y="262" type="line"/>
			<point x="284" y="480" type="line"/>
			<point x="334" y="430" type="line"/>
		</contour>
	</outline>
</glyph>
<glyph name="Oslash" format="2">
	<advance width="694"/>
	<unicode hex="00D8"/>
	<outline>
		<contour>
			<point x="140" y="-51" type="line"/>
			<point x="195" y="-51" type="line"/>
			<point x="556" y="760" type="line"/>
			<point x="501" y="760" type="line"/>
		</contour>
		<component base="O"/>
	</outline>
</glyph>
<glyph name="Thorn" format="2">
	<advance width="639"/>
	<unicode hex="00DE"/>
	<outline>
		<contour>
			<point x="325" y="0" type="curve" smooth="yes"/>
			<point x="334" y="0" type="line"/>
			<point x="334" y="202" type="line"/>
			<point x="318" y="202" type="line" smooth="yes"/>
			<point x="289" y="202"/>
			<point x="272" y="219"/>
			<point x="272" y="260" type="curve" smooth="yes"/>
			<point x="272" y="415" type="line" smooth="yes"/>
			<point x="272" y="484"/>
			<point x="282" y="500"/>
			<point x="323" y="500" type="curve" smooth="yes"/>
			<point x="334" y="500" type="line"/>
			<point x="334" y="700" type="line"/>
			<point x="325" y="700" type="line" smooth="yes"/>
			<point x="259" y="700"/>
			<point x="222" y="669"/>
			<point x="222" y="582" type="curve" smooth="yes"/>
			<point x="222" y="138" type="line" smooth="yes"/>
			<point x="222" y="42"/>
			<point x="254" y="0"/>
		</contour>
		<contour>
			<point x="40" y="0" type="line"/>
			<point x="49" y="0" type="line" smooth="yes"/>
			<point x="120" y="0"/>
			<point x="152" y="42"/>
			<point x="152" y="138" type="curve" smooth="yes"/>
			<point x="152" y="582" type="line" smooth="yes"/>
			<point x="152" y="669"/>
			<point x="114" y="700"/>
			<point x="49" y="700" type="curve" smooth="yes"/>
			<point x="40" y="700" type="line"/>
			<point x="40" y="500" type="line"/>
			<point x="51" y="500" type="line" smooth="yes"/>
			<point x="92" y="500"/>
			<point x="102" y="483"/>
			<point x="102" y="415" type="curve" smooth="yes"/>
			<point x="102" y="275" type="line" smooth="yes"/>
			<point x="102" y="224"/>
			<point x="88" y="202"/>
			<point x="56" y="202" type="curve" smooth="yes"/>
			<point x="40" y="202" type="line"/>
		</contour>
		<contour>
			<point x="149" y="30" type="curve"/>
			<point x="225" y="30" type="line"/>
			<point x="212" y="51"/>
			<point x="207" y="78"/>
			<point x="207" y="119" type="curve" smooth="yes"/>
			<point x="207" y="581" type="line" smooth="yes"/>
			<point x="207" y="622"/>
			<point x="212" y="649"/>
			<point x="225" y="670" type="curve"/>
			<point x="149" y="670" type="line"/>
			<point x="162" y="649"/>
			<point x="167" y="622"/>
			<point x="167" y="581" type="curve" smooth="yes"/>
			<point x="167" y="119" type="line" smooth="yes"/>
			<point x="167" y="78"/>
			<point x="162" y="51"/>
		</contour>
		<contour>
			<point x="242" y="259" type="line"/>
			<point x="423" y="259" type="line" smooth="yes"/>
			<point x="480" y="259"/>
			<point x="504" y="293"/>
			<point x="504" y="342" type="curve" smooth="yes"/>
			<point x="504" y="377" type="line" smooth="yes"/>
			<point x="504" y="426"/>
			<point x="480" y="459"/>
			<point x="423" y="459" type="curve" smooth="yes"/>
			<point x="242" y="459" type="line"/>
			<point x="242" y="409" type="line"/>
			<point x="412" y="409" type="line" smooth="yes"/>
			<point x="451" y="409"/>
			<point x="454" y="388"/>
			<point x="454" y="367" type="curve" smooth="yes"/>
			<point x="454" y="352" type="line" smooth="yes"/>
			<point x="454" y="331"/>
			<point x="451" y="309"/>
			<point x="412" y="309" type="curve" smooth="yes"/>
			<point x="242" y="309" type="line"/>
		</contour>
		<contour>
			<point x="492" y="265" type="curve"/>
			<point x="539" y="265"/>
			<point x="559" y="275"/>
			<point x="559" y="330" type="curve" smooth="yes"/>
			<point x="559" y="389" type="line" smooth="yes"/>
			<point x="559" y="444"/>
			<point x="539" y="453"/>
			<point x="492" y="453" type="curve"/>
			<point x="511" y="440"/>
			<point x="519" y="418"/>
			<point x="519" y="383" type="curve" smooth="yes"/>
			<point x="519" y="335" type="line" smooth="yes"/>
			<point x="519" y="300"/>
			<point x="511" y="278"/>
		</contour>
		<contour>
			<point x="561" y="275" type="curve"/>
			<point x="604" y="275"/>
			<point x="629" y="310"/>
			<point x="629" y="359" type="curve" smooth="yes"/>
			<point x="629" y="408"/>
			<point x="604" y="443"/>
			<point x="561" y="443" type="curve"/>
			<point x="570" y="433"/>
			<point x="574" y="422"/>
			<point x="574" y="389" type="curve" smooth="yes"/>
			<point x="574" y="330" type="line" smooth="yes"/>
			<point x="574" y="297"/>
			<point x="570" y="285"/>
		</contour>
	</outline>
</glyph>
<glyph name="germandbls" format="2">
	<advance width="704"/>
	<unicode hex="00DF"/>
	<outline>
		<contour>
			<point x="167" y="581" type="curve" smooth="yes"/>
			<point x="167" y="119" type="line"/>
			<point x="167" y="78"/>
			<point x="162" y="51"/>
			<point x="149" y="30" type="curve"/>
			<point x="225" y="30" type="line"/>
			<point x="212" y="51"/>
			<point x="207" y="78"/>
			<point x="207" y="119" type="curve" smooth="yes"/>
			<point x="207" y="581" type="line" smooth="yes"/>
			<point x="207" y="622"/>
			<point x="212" y="649"/>
			<point x="225" y="670" type="curve"/>
			<point x="149" y="670" type="line"/>
			<point x="162" y="649"/>
			<point x="167" y="622"/>
		</contour>
		<contour>
			<point x="40" y="0" type="line"/>
			<point x="49" y="0" type="line" smooth="yes"/>
			<point x="120" y="0"/>
			<point x="152" y="42"/>
			<point x="152" y="138" type="curve" smooth="yes"/>
			<point x="152" y="582" type="line" smooth="yes"/>
			<point x="152" y="669"/>
			<point x="114" y="700"/>
			<point x="49" y="700" type="curve" smooth="yes"/>
			<point x="40" y="700" type="line"/>
			<point x="40" y="498" type="line"/>
			<point x="51" y="498" type="line" smooth="yes"/>
			<point x="92" y="498"/>
			<point x="102" y="481"/>
			<point x="102" y="413" type="curve" smooth="yes"/>
			<point x="102" y="275" type="line" smooth="yes"/>
			<point x="102" y="224"/>
			<point x="88" y="202"/>
			<point x="56" y="202" type="curve" smooth="yes"/>
			<point x="40" y="202" type="line"/>
		</contour>
		<contour>
			<point x="653" y="218" type="curve" smooth="yes"/>
			<point x="653" y="129"/>
			<point x="650" y="93"/>
			<point x="639" y="64" type="curve"/>
			<point x="679" y="83"/>
			<point x="699" y="131"/>
			<point x="699" y="198" type="curve" smooth="yes"/>
			<point x="699" y="268"/>
			<point x="673" y="308"/>
			<point x="644" y="329" type="curve"/>
			<point x="653" y="304"/>
			<point x="653" y="273"/>
		</contour>
		<contour>
			<point x="550" y="15" type="curve"/>
			<point x="610" y="15"/>
			<point x="638" y="66"/>
			<point x="638" y="183" type="curve" smooth="yes"/>
			<point x="638" y="260" type="line" smooth="yes"/>
			<point x="638" y="340"/>
			<point x="614" y="387"/>
			<point x="560" y="387" type="curve"/>
			<point x="586" y="363"/>
			<point x="598" y="336"/>
			<point x="598" y="280" type="curve" smooth="yes"/>
			<point x="598" y="168" type="line" smooth="yes"/>
			<point x="598" y="83"/>
			<point x="585" y="54"/>
		</contour>
		<contour>
			<point x="452" y="405" type="line"/>
			<point x="549" y="405"/>
			<point x="583" y="353"/>
			<point x="583" y="280" type="curve" smooth="yes"/>
			<point x="583" y="169" type="line" smooth="yes"/>
			<point x="583" y="52"/>
			<point x="526" y="0"/>
			<point x="460" y="0" type="curve" smooth="yes"/>
			<point x="442" y="0" type="line" smooth="yes"/>
			<point x="386" y="0"/>
			<point x="341" y="26"/>
			<point x="341" y="87" type="curve" smooth="yes"/>
			<point x="341" y="256" type="line"/>
			<point x="391" y="256" type="line"/>
			<point x="391" y="217"/>
			<point x="412" y="200"/>
			<point x="446" y="200" type="curve" smooth="yes"/>
			<point x="471" y="200" type="line" smooth="yes"/>
			<point x="510" y="200"/>
			<point x="533" y="220"/>
			<point x="533" y="280" type="curve" smooth="yes"/>
			<point x="533" y="330"/>
			<point x="513" y="365"/>
			<point x="446" y="365" type="curve" smooth="yes"/>
			<point x="390" y="365" type="line"/>
			<point x="390" y="416" type="line"/>
			<point x="497" y="469" type="line" smooth="yes"/>
			<point x="511" y="476"/>
			<point x="517" y="484"/>
			<point x="517" y="491" type="curve" smooth="yes"/>
			<point x="517" y="499"/>
			<point x="508" y="505"/>
			<point x="488" y="505" type="curve" smooth="yes"/>
			<point x="323" y="505" type="line" smooth="yes"/>
			<point x="282" y="505"/>
			<point x="272" y="488"/>
			<point x="272" y="419" type="curve" smooth="yes"/>
			<point x="272" y="255" type="line" smooth="yes"/>
			<point x="272" y="222"/>
			<point x="280" y="202"/>
			<point x="308" y="202" type="curve"/>
			<point x="308" y="0" type="line"/>
			<point x="250" y="0"/>
			<point x="222" y="41"/>
			<point x="222" y="138" type="curve" smooth="yes"/>
			<point x="222" y="582" type="line" smooth="yes"/>
			<point x="222" y="669"/>
			<point x="259" y="700"/>
			<point x="325" y="700" type="curve" smooth="yes"/>
			<point x="560" y="700" type="line" smooth="yes"/>
			<point x="621" y="700"/>
			<point x="650" y="666"/>
			<point x="650" y="615" type="curve" smooth="yes"/>
			<point x="650" y="560" type="line" smooth="yes"/>
			<point x="650" y="513"/>
			<point x="634" y="488"/>
			<point x="595" y="469" type="curve" smooth="yes"/>
			<point x="435" y="391" type="line"/>
			<point x="419" y="405" type="line"/>
		</contour>
	</outline>
</glyph>
